  0
SECTION
  2
HEADER
  9
$ACADVER
  1
AC1015
  9
$ACADMAINTVER
 70
     6
  9
$DWGCODEPAGE
  3
ANSI_1252
  9
$INSBASE
 10
0.0
 20
0.0
 30
0.0
  9
$EXTMIN
 10
-382.2332689814
 20
-232.5631856498
 30
0.0
  9
$EXTMAX
 10
281.08
 20
101.4125
 30
0.0
  9
$LIMMIN
 10
0.0
 20
0.0
  9
$LIMMAX
 10
420.0
 20
297.0
  9
$ORTHOMODE
 70
     0
  9
$REGENMODE
 70
     1
  9
$FILLMODE
 70
     1
  9
$QTEXTMODE
 70
     0
  9
$MIRRTEXT
 70
     1
  9
$LTSCALE
 40
1.0
  9
$ATTMODE
 70
     1
  9
$TEXTSIZE
 40
3.175
  9
$TRACEWID
 40
1.0
  9
$TEXTSTYLE
  7
Standard
  9
$CLAYER
  8
0
  9
$CELTYPE
  6
ByLayer
  9
$CECOLOR
 62
   256
  9
$CELTSCALE
 40
1.0
  9
$DISPSILH
 70
     0
  9
$DIMSCALE
 40
1.0
  9
$DIMASZ
 40
3.302
  9
$DIMEXO
 40
0.0
  9
$DIMDLI
 40
3.75
  9
$DIMRND
 40
0.0
  9
$DIMDLE
 40
0.0
  9
$DIMEXE
 40
3.175
  9
$DIMTP
 40
0.0
  9
$DIMTM
 40
0.0
  9
$DIMTXT
 40
3.175
  9
$DIMCEN
 40
2.5
  9
$DIMTSZ
 40
0.0
  9
$DIMTOL
 70
     0
  9
$DIMLIM
 70
     0
  9
$DIMTIH
 70
     1
  9
$DIMTOH
 70
     1
  9
$DIMSE1
 70
     0
  9
$DIMSE2
 70
     0
  9
$DIMTAD
 70
     0
  9
$DIMZIN
 70
     1
  9
$DIMBLK
  1

  9
$DIMASO
 70
     1
  9
$DIMSHO
 70
     1
  9
$DIMPOST
  1

  9
$DIMAPOST
  1

  9
$DIMALT
 70
     0
  9
$DIMALTD
 70
     3
  9
$DIMALTF
 40
0.0393700787
  9
$DIMLFAC
 40
1.0
  9
$DIMTOFL
 70
     1
  9
$DIMTVP
 40
0.0
  9
$DIMTIX
 70
     0
  9
$DIMSOXD
 70
     0
  9
$DIMSAH
 70
     0
  9
$DIMBLK1
  1

  9
$DIMBLK2
  1

  9
$DIMSTYLE
  2
ISO-25
  9
$DIMCLRD
 70
     0
  9
$DIMCLRE
 70
     0
  9
$DIMCLRT
 70
     0
  9
$DIMTFAC
 40
1.0
  9
$DIMGAP
 40
1.524
  9
$DIMJUST
 70
     0
  9
$DIMSD1
 70
     0
  9
$DIMSD2
 70
     0
  9
$DIMTOLJ
 70
     0
  9
$DIMTZIN
 70
     1
  9
$DIMALTZ
 70
     0
  9
$DIMALTTZ
 70
     0
  9
$DIMUPT
 70
     0
  9
$DIMDEC
 70
     2
  9
$DIMTDEC
 70
     2
  9
$DIMALTU
 70
     2
  9
$DIMALTTD
 70
     3
  9
$DIMTXSTY
  7
Standard
  9
$DIMAUNIT
 70
     0
  9
$DIMADEC
 70
     2
  9
$DIMALTRND
 40
0.0
  9
$DIMAZIN
 70
     0
  9
$DIMDSEP
 70
    44
  9
$DIMATFIT
 70
     3
  9
$DIMFRAC
 70
     0
  9
$DIMLDRBLK
  1

  9
$DIMLUNIT
 70
     2
  9
$DIMLWD
 70
    -2
  9
$DIMLWE
 70
    -2
  9
$DIMTMOVE
 70
     0
  9
$LUNITS
 70
     2
  9
$LUPREC
 70
     2
  9
$SKETCHINC
 40
1.0
  9
$FILLETRAD
 40
0.0
  9
$AUNITS
 70
     0
  9
$AUPREC
 70
     2
  9
$MENU
  1
.
  9
$ELEVATION
 40
0.0
  9
$PELEVATION
 40
0.0
  9
$THICKNESS
 40
0.0
  9
$LIMCHECK
 70
     0
  9
$CHAMFERA
 40
0.0
  9
$CHAMFERB
 40
0.0
  9
$CHAMFERC
 40
0.0
  9
$CHAMFERD
 40
0.0
  9
$SKPOLY
 70
     0
  9
$TDCREATE
 40
2461075.871316725
  9
$TDUCREATE
 40
2461076.204650058
  9
$TDUPDATE
 40
2461075.871341517
  9
$TDUUPDATE
 40
2461076.20467485
  9
$TDINDWG
 40
0.0000000116
  9
$TDUSRTIMER
 40
0.0000000116
  9
$USRTIMER
 70
     1
  9
$ANGBASE
 50
0.0
  9
$ANGDIR
 70
     0
  9
$PDMODE
 70
     0
  9
$PDSIZE
 40
-1.0
  9
$PLINEWID
 40
0.0
  9
$SPLFRAME
 70
     0
  9
$SPLINETYPE
 70
     6
  9
$SPLINESEGS
 70
     8
  9
$HANDSEED
  5
1A6
  9
$SURFTAB1
 70
     6
  9
$SURFTAB2
 70
     6
  9
$SURFTYPE
 70
     6
  9
$SURFU
 70
     6
  9
$SURFV
 70
     6
  9
$UCSBASE
  2

  9
$UCSNAME
  2

  9
$UCSORG
 10
0.0
 20
0.0
 30
0.0
  9
$UCSXDIR
 10
1.0
 20
0.0
 30
0.0
  9
$UCSYDIR
 10
0.0
 20
1.0
 30
0.0
  9
$UCSORTHOREF
  2

  9
$UCSORTHOVIEW
 70
     0
  9
$UCSORGTOP
 10
0.0
 20
0.0
 30
0.0
  9
$UCSORGBOTTOM
 10
0.0
 20
0.0
 30
0.0
  9
$UCSORGLEFT
 10
0.0
 20
0.0
 30
0.0
  9
$UCSORGRIGHT
 10
0.0
 20
0.0
 30
0.0
  9
$UCSORGFRONT
 10
0.0
 20
0.0
 30
0.0
  9
$UCSORGBACK
 10
0.0
 20
0.0
 30
0.0
  9
$PUCSBASE
  2

  9
$PUCSNAME
  2

  9
$PUCSORG
 10
0.0
 20
0.0
 30
0.0
  9
$PUCSXDIR
 10
1.0
 20
0.0
 30
0.0
  9
$PUCSYDIR
 10
0.0
 20
1.0
 30
0.0
  9
$PUCSORTHOREF
  2

  9
$PUCSORTHOVIEW
 70
     0
  9
$PUCSORGTOP
 10
0.0
 20
0.0
 30
0.0
  9
$PUCSORGBOTTOM
 10
0.0
 20
0.0
 30
0.0
  9
$PUCSORGLEFT
 10
0.0
 20
0.0
 30
0.0
  9
$PUCSORGRIGHT
 10
0.0
 20
0.0
 30
0.0
  9
$PUCSORGFRONT
 10
0.0
 20
0.0
 30
0.0
  9
$PUCSORGBACK
 10
0.0
 20
0.0
 30
0.0
  9
$USERI1
 70
     0
  9
$USERI2
 70
     0
  9
$USERI3
 70
     0
  9
$USERI4
 70
     0
  9
$USERI5
 70
     0
  9
$USERR1
 40
0.0
  9
$USERR2
 40
0.0
  9
$USERR3
 40
0.0
  9
$USERR4
 40
0.0
  9
$USERR5
 40
0.0
  9
$WORLDVIEW
 70
     1
  9
$SHADEDGE
 70
     3
  9
$SHADEDIF
 70
    70
  9
$TILEMODE
 70
     1
  9
$MAXACTVP
 70
    64
  9
$PINSBASE
 10
0.0
 20
0.0
 30
0.0
  9
$PLIMCHECK
 70
     0
  9
$PEXTMIN
 10
1.0000000000E+20
 20
1.0000000000E+20
 30
1.0000000000E+20
  9
$PEXTMAX
 10
-1.0000000000E+20
 20
-1.0000000000E+20
 30
-1.0000000000E+20
  9
$PLIMMIN
 10
0.0
 20
0.0
  9
$PLIMMAX
 10
420.0
 20
297.0
  9
$UNITMODE
 70
     0
  9
$VISRETAIN
 70
     1
  9
$PLINEGEN
 70
     0
  9
$PSLTSCALE
 70
     1
  9
$TREEDEPTH
 70
  3020
  9
$CMLSTYLE
  2
Standard
  9
$CMLJUST
 70
     0
  9
$CMLSCALE
 40
20.0
  9
$PROXYGRAPHICS
 70
     1
  9
$MEASUREMENT
 70
     1
  9
$CELWEIGHT
370
    -1
  9
$ENDCAPS
280
     0
  9
$JOINSTYLE
280
     0
  9
$LWDISPLAY
290
     1
  9
$INSUNITS
 70
     4
  9
$HYPERLINKBASE
  1

  9
$STYLESHEET
  1

  9
$XEDIT
290
     1
  9
$CEPSNTYPE
380
     0
  9
$PSTYLEMODE
290
     1
  9
$FINGERPRINTGUID
  2
{1a00210d-0db0-4591-83a8-a5be8eaed8b5}
  9
$VERSIONGUID
  2
{FAEB1C32-E019-11D5-929B-00C0DF256EC4}
  9
$EXTNAMES
290
     1
  9
$PSVPSCALE
 40
0.0
  9
$OLESTARTUP
290
     0
  0
ENDSEC
  0
SECTION
  2
CLASSES
  0
CLASS
  1
ACDBDICTIONARYWDFLT
  2
AcDbDictionaryWithDefault
  3
ObjectDBX Classes
 90
        0
280
     0
281
     0
  0
CLASS
  1
VISUALSTYLE
  2
AcDbVisualStyle
  3
ObjectDBX Classes
 90
     4095
280
     0
281
     0
  0
CLASS
  1
MATERIAL
  2
AcDbMaterial
  3
ObjectDBX Classes
 90
     1153
280
     0
281
     0
  0
CLASS
  1
SCALE
  2
AcDbScale
  3
ObjectDBX Classes
 90
     1153
280
     0
281
     0
  0
CLASS
  1
TABLESTYLE
  2
AcDbTableStyle
  3
ObjectDBX Classes
 90
     4095
280
     0
281
     0
  0
CLASS
  1
MLEADERSTYLE
  2
AcDbMLeaderStyle
  3
ACDB_MLEADERSTYLE_CLASS
 90
     4095
280
     0
281
     0
  0
CLASS
  1
SUN
  2
AcDbSun
  3
SCENEOE
 90
     1153
280
     0
281
     0
  0
CLASS
  1
ACDBPLACEHOLDER
  2
AcDbPlaceHolder
  3
ObjectDBX Classes
 90
        0
280
     0
281
     0
  0
CLASS
  1
LAYOUT
  2
AcDbLayout
  3
ObjectDBX Classes
 90
        0
280
     0
281
     0
  0
ENDSEC
  0
SECTION
  2
TABLES
  0
TABLE
  2
VPORT
  5
8
330
0
100
AcDbSymbolTable
 70
     1
  0
VPORT
  5
29
330
8
100
AcDbSymbolTableRecord
100
AcDbViewportTableRecord
  2
*Active
 70
     0
 10
0.0
 20
0.0
 11
1.0
 21
1.0
 12
-50.5766344907
 22
-65.5753428249
 13
0.0
 23
0.0
 14
10.0
 24
10.0
 15
10.0
 25
10.0
 16
0.0
 26
0.0
 36
1.0
 17
0.0
 27
0.0
 37
0.0
 40
340.6551993628
 41
1.9861124551
 42
50.0
 43
0.0
 44
0.0
 50
0.0
 51
0.0
 71
     0
 72
   100
 73
     1
 74
     3
 75
     0
 76
     0
 77
     0
 78
     0
281
     0
 65
     1
110
0.0
120
0.0
130
0.0
111
1.0
121
0.0
131
0.0
112
0.0
122
1.0
132
0.0
 79
     0
146
0.0
  0
ENDTAB
  0
TABLE
  2
LTYPE
  5
5
330
0
100
AcDbSymbolTable
 70
     6
  0
LTYPE
  5
14
330
5
100
AcDbSymbolTableRecord
100
AcDbLinetypeTableRecord
  2
ByBlock
 70
     0
  3

 72
    65
 73
     0
 40
0.0
  0
LTYPE
  5
15
330
5
100
AcDbSymbolTableRecord
100
AcDbLinetypeTableRecord
  2
ByLayer
 70
     0
  3

 72
    65
 73
     0
 40
0.0
  0
LTYPE
  5
16
330
5
100
AcDbSymbolTableRecord
100
AcDbLinetypeTableRecord
  2
Continuous
 70
     0
  3
Solid line
 72
    65
 73
     0
 40
0.0
  0
LTYPE
  5
5E
330
5
100
AcDbSymbolTableRecord
100
AcDbLinetypeTableRecord
  2
HIDDEN
 70
     0
  3
Hidden __ __ __ __ __ __ __ __ __ __ __ __ __ __
 72
    65
 73
     2
 40
1.905
 49
1.27
 74
     0
 49
-0.635
 74
     0
  0
LTYPE
  5
5F
330
5
100
AcDbSymbolTableRecord
100
AcDbLinetypeTableRecord
  2
PHANTOM
 70
     0
  3
Phantom ______  __  __  ______  __  __  ______
 72
    65
 73
     6
 40
12.7
 49
6.35
 74
     0
 49
-1.27
 74
     0
 49
1.27
 74
     0
 49
-1.27
 74
     0
 49
1.27
 74
     0
 49
-1.27
 74
     0
  0
LTYPE
  5
60
330
5
100
AcDbSymbolTableRecord
100
AcDbLinetypeTableRecord
  2
CENTER
 70
     0
  3
Center ____ _ ____ _ ____ _ ____ _ ____ _ ____
 72
    65
 73
     4
 40
10.16
 49
6.35
 74
     0
 49
-1.27
 74
     0
 49
1.27
 74
     0
 49
-1.27
 74
     0
  0
LTYPE
  5
61
330
5
100
AcDbSymbolTableRecord
100
AcDbLinetypeTableRecord
  2
CENTERX2
 70
     0
  3
Center (2x) ________  __  ________  __  _____
 72
    65
 73
     4
 40
20.32
 49
12.7
 74
     0
 49
-2.54
 74
     0
 49
2.54
 74
     0
 49
-2.54
 74
     0
  0
LTYPE
  5
62
330
5
100
AcDbSymbolTableRecord
100
AcDbLinetypeTableRecord
  2
DOT2
 70
     0
  3
Dot (.5x) ........................................
 72
    65
 73
     2
 40
0.635
 49
0.0
 74
     0
 49
-0.635
 74
     0
  0
ENDTAB
  0
TABLE
  2
LAYER
  5
2
330
0
100
AcDbSymbolTable
 70
     1
  0
LAYER
  5
10
330
2
100
AcDbSymbolTableRecord
100
AcDbLayerTableRecord
  2
0
 70
     0
 62
     7
  6
Continuous
370
    -3
390
F
  0
ENDTAB
  0
TABLE
  2
STYLE
  5
3
330
0
100
AcDbSymbolTable
 70
     2
  0
STYLE
  5
11
330
3
100
AcDbSymbolTableRecord
100
AcDbTextStyleTableRecord
  2
Standard
 70
     0
 40
0.0
 41
1.0
 50
0.0
 71
     0
 42
3.175
  3
txt
  4

  0
STYLE
  5
1A2
330
3
100
AcDbSymbolTableRecord
100
AcDbTextStyleTableRecord
  2
SLDTEXTSTYLE0
 70
     0
 40
0.0
 41
0.7
 50
0.0
 71
     0
 42
3.175
  3
TXT
  4

  0
ENDTAB
  0
TABLE
  2
VIEW
  5
6
330
0
100
AcDbSymbolTable
 70
     0
  0
ENDTAB
  0
TABLE
  2
UCS
  5
7
330
0
100
AcDbSymbolTable
 70
     0
  0
ENDTAB
  0
TABLE
  2
APPID
  5
9
330
0
100
AcDbSymbolTable
 70
     1
  0
APPID
  5
12
330
9
100
AcDbSymbolTableRecord
100
AcDbRegAppTableRecord
  2
ACAD
 70
     0
  0
ENDTAB
  0
TABLE
  2
DIMSTYLE
  5
A
330
0
100
AcDbSymbolTable
 70
     1
100
AcDbDimStyleTable
  0
DIMSTYLE
105
27
330
A
100
AcDbSymbolTableRecord
100
AcDbDimStyleTableRecord
  2
ISO-25
 70
     0
 41
2.5
 42
0.625
 43
3.75
 44
1.25
 73
     0
 74
     0
 77
     1
 78
     8
140
2.5
141
2.5
143
0.0393700787
147
0.625
171
     3
172
     1
178
     0
271
     2
272
     2
274
     3
278
    44
283
     0
284
     8
340
11
  0
ENDTAB
  0
TABLE
  2
BLOCK_RECORD
  5
1
330
0
100
AcDbSymbolTable
 70
     1
  0
BLOCK_RECORD
  5
1F
330
1
100
AcDbSymbolTableRecord
100
AcDbBlockTableRecord
  2
*Model_Space
340
22
  0
BLOCK_RECORD
  5
1B
330
1
100
AcDbSymbolTableRecord
100
AcDbBlockTableRecord
  2
*Paper_Space
340
1E
  0
BLOCK_RECORD
  5
23
330
1
100
AcDbSymbolTableRecord
100
AcDbBlockTableRecord
  2
*Paper_Space0
340
26
  0
ENDTAB
  0
ENDSEC
  0
SECTION
  2
BLOCKS
  0
BLOCK
  5
20
330
1F
100
AcDbEntity
  8
0
100
AcDbBlockBegin
  2
*Model_Space
 70
     0
 10
0.0
 20
0.0
 30
0.0
  3
*Model_Space
  1

  0
ENDBLK
  5
21
330
1F
100
AcDbEntity
  8
0
100
AcDbBlockEnd
  0
BLOCK
  5
1C
330
1B
100
AcDbEntity
 67
     1
  8
0
100
AcDbBlockBegin
  2
*Paper_Space
 70
     0
 10
0.0
 20
0.0
 30
0.0
  3
*Paper_Space
  1

  0
ENDBLK
  5
1D
330
1B
100
AcDbEntity
 67
     1
  8
0
100
AcDbBlockEnd
  0
BLOCK
  5
24
330
23
100
AcDbEntity
  8
0
100
AcDbBlockBegin
  2
*Paper_Space0
 70
     0
 10
0.0
 20
0.0
 30
0.0
  3
*Paper_Space0
  1

  0
ENDBLK
  5
25
330
23
100
AcDbEntity
  8
0
100
AcDbBlockEnd
  0
ENDSEC
  0
SECTION
  2
ENTITIES
  0
CIRCLE
  5
63
330
1F
100
AcDbEntity
  8
0
  6
Continuous
 62
     7
370
    25
100
AcDbCircle
 10
-10.5
 20
6.0621778265
 30
0.0
 40
1.65
  0
CIRCLE
  5
64
330
1F
100
AcDbEntity
  8
0
  6
Continuous
 62
     7
370
    25
100
AcDbCircle
 10
10.5
 20
6.0621778265
 30
0.0
 40
1.65
  0
CIRCLE
  5
65
330
1F
100
AcDbEntity
  8
0
  6
Continuous
 62
     7
370
    25
100
AcDbCircle
 10
0.0
 20
-12.124355653
 30
0.0
 40
1.650000000000001
  0
ARC
  5
66
330
1F
100
AcDbEntity
  8
0
  6
Continuous
 62
     7
370
    25
100
AcDbCircle
 10
-273.1814473226
 20
-140.2108484087
 30
0.0
 40
2.0
100
AcDbArc
 50
119.7824538822
 51
239.7824538822
  0
LINE
  5
67
330
1F
100
AcDbEntity
  8
0
  6
Continuous
 62
     7
370
    25
100
AcDbLine
 10
-262.8296211712
 20
-131.9821446153
 30
0.0
 11
-274.1748637134
 21
-138.4750131992
 31
0.0
  0
ARC
  5
68
330
1F
100
AcDbEntity
  8
0
  6
Continuous
 62
     7
370
    25
100
AcDbCircle
 10
-261.8362047804
 20
-133.7179798248
 30
0.0
 40
2.00000000000005
100
AcDbArc
 50
329.7824538822
 51
119.7824538822
  0
LINE
  5
69
330
1F
100
AcDbEntity
  8
0
  6
Continuous
 62
     7
370
    25
100
AcDbLine
 10
-265.8054006829
 20
-144.5068345824
 30
0.0
 11
-260.1079633447
 21
-134.7245490176
 31
0.0
  0
ARC
  5
6A
330
1F
100
AcDbEntity
  8
0
  6
Continuous
 62
     7
370
    25
100
AcDbCircle
 10
-267.5336421185
 20
-143.5002653895
 30
0.0
 40
1.999999999999982
100
AcDbArc
 50
239.7824538822
 51
329.7824538822
  0
LINE
  5
6B
330
1F
100
AcDbEntity
  8
0
  6
Continuous
 62
     7
370
    25
100
AcDbLine
 10
-274.1880165155
 20
-141.9390898444
 30
0.0
 11
-268.5402113114
 21
-145.2285068252
 31
0.0
  0
ARC
  5
6C
330
1F
100
AcDbEntity
  8
0
  6
Continuous
 62
     7
370
    25
100
AcDbCircle
 10
-252.4968630611
 20
-151.4620278147
 30
0.0
 40
2.000000000000155
100
AcDbArc
 50
84.7824538822
 51
174.7824538822
  0
LINE
  5
6D
330
1F
100
AcDbEntity
  8
0
  6
Continuous
 62
     7
370
    25
100
AcDbLine
 10
-240.2296591836
 20
-150.5738974367
 30
0.0
 11
-252.3149879548
 21
-149.470314621
 31
0.0
  0
ARC
  5
6E
330
1F
100
AcDbEntity
  8
0
  6
Continuous
 62
     7
370
    25
100
AcDbCircle
 10
-240.4115342898
 20
-152.5656106303
 30
0.0
 40
2.000000000000025
100
AcDbArc
 50
299.7824538822
 51
84.7824538822
  0
LINE
  5
6F
330
1F
100
AcDbEntity
  8
0
  6
Continuous
 62
     7
370
    25
100
AcDbLine
 10
-252.2761836768
 20
-161.6601013315
 30
0.0
 11
-239.4181178991
 21
-154.3014458398
 31
0.0
  0
ARC
  5
70
330
1F
100
AcDbEntity
  8
0
  6
Continuous
 62
     7
370
    25
100
AcDbCircle
 10
-253.2696000676
 20
-159.924266122
 30
0.0
 40
2.000000000000042
100
AcDbArc
 50
174.7824538822
 51
299.7824538822
  0
LINE
  5
71
330
1F
100
AcDbEntity
  8
0
  6
Continuous
 62
     7
370
    25
100
AcDbLine
 10
-254.4885762547
 20
-151.2801527084
 30
0.0
 11
-255.2613132613
 21
-159.7423910158
 31
0.0
  0
ARC
  5
72
330
1F
100
AcDbEntity
  8
0
  6
Continuous
 62
     7
370
    25
100
AcDbCircle
 10
-185.0403516284
 20
-118.8414230193
 30
0.0
 40
2.000000000000083
100
AcDbArc
 50
89.7824538822
 51
114.7824538822
  0
LINE
  5
73
330
1F
100
AcDbEntity
  8
0
  6
Continuous
 62
     7
370
    25
100
AcDbLine
 10
-181.4087922913
 20
-116.8551973223
 30
0.0
 11
-185.0327578546
 21
-116.8414374358
 31
0.0
  0
ARC
  5
74
330
1F
100
AcDbEntity
  8
0
  6
Continuous
 62
     7
370
    25
100
AcDbCircle
 10
-181.4125891783
 20
-117.8551901141
 30
0.0
 40
0.9999999999999645
100
AcDbArc
 50
294.7824538821
 51
89.7824538822
  0
LINE
  5
75
330
1F
100
AcDbEntity
  8
0
  6
Continuous
 62
     7
370
    25
100
AcDbLine
 10
-191.8152955069
 20
-123.7594856953
 30
0.0
 11
-180.993415111
 21
-118.7630960021
 31
0.0
  0
ARC
  5
76
330
1F
100
AcDbEntity
  8
0
  6
Continuous
 62
     7
370
    25
100
AcDbCircle
 10
-192.2344695742
 20
-122.8515798073
 30
0.0
 40
0.9999999999995396
100
AcDbArc
 50
179.7824538821
 51
294.7824538822
  0
LINE
  5
77
330
1F
100
AcDbEntity
  8
0
  6
Continuous
 62
     7
370
    25
100
AcDbLine
 10
-193.2276535112
 20
-121.0545228516
 30
0.0
 11
-193.234462366
 21
-122.8477829204
 31
0.0
  0
ARC
  5
78
330
1F
100
AcDbEntity
  8
0
  6
Continuous
 62
     7
370
    25
100
AcDbCircle
 10
-192.2276607194
 20
-121.0583197385
 30
0.0
 40
1.000000000000105
100
AcDbArc
 50
114.7824538821
 51
179.7824538821
  0
LINE
  5
79
330
1F
100
AcDbEntity
  8
0
  6
Continuous
 62
     7
370
    25
100
AcDbLine
 10
-185.8786997629
 20
-117.0256112435
 30
0.0
 11
-192.6468347867
 21
-120.1504138506
 31
0.0
  0
ARC
  5
7A
330
1F
100
AcDbEntity
  8
0
  6
Continuous
 62
     7
370
    25
100
AcDbCircle
 10
-196.5168900165
 20
-99.7923643071
 30
0.0
 40
2.00000000000003
100
AcDbArc
 50
119.7824538822
 51
139.7824538822
  0
LINE
  5
7B
330
1F
100
AcDbEntity
  8
0
  6
Continuous
 62
     7
370
    25
100
AcDbLine
 10
-194.3690558651
 20
-96.2587952119
 30
0.0
 11
-197.5103064073
 21
-98.0565290976
 31
0.0
  0
ARC
  5
7C
330
1F
100
AcDbEntity
  8
0
  6
Continuous
 62
     7
370
    25
100
AcDbCircle
 10
-193.8723476697
 20
-97.1267128166
 30
0.0
 40
0.9999999999999803
100
AcDbArc
 50
319.7824538821
 51
119.7824538822
  0
LINE
  5
7D
330
1F
100
AcDbEntity
  8
0
  6
Continuous
 62
     7
370
    25
100
AcDbLine
 10
-200.044217491
 20
-105.9743264994
 30
0.0
 11
-193.1087493402
 21
-97.7724043771
 31
0.0
  0
ARC
  5
7E
330
1F
100
AcDbEntity
  8
0
  6
Continuous
 62
     7
370
    25
100
AcDbCircle
 10
-200.8078158205
 20
-105.3286349389
 30
0.0
 40
1.00000000000007
100
AcDbArc
 50
239.7824538822
 51
319.7824538821
  0
LINE
  5
7F
330
1F
100
AcDbEntity
  8
0
  6
Continuous
 62
     7
370
    25
100
AcDbLine
 10
-202.4501894957
 20
-105.5293229031
 30
0.0
 11
-201.3111004169
 21
-106.1927556568
 31
0.0
  0
ARC
  5
80
330
1F
100
AcDbEntity
  8
0
  6
Continuous
 62
     7
370
    25
100
AcDbCircle
 10
-201.9469048993
 20
-104.6652021852
 30
0.0
 40
1.000000000000106
100
AcDbArc
 50
139.7824538822
 51
239.7824538822
  0
LINE
  5
81
330
1F
100
AcDbEntity
  8
0
  6
Continuous
 62
     7
370
    25
100
AcDbLine
 10
-198.0440866754
 20
-98.5009811862
 30
0.0
 11
-202.7105032288
 21
-104.0195106248
 31
0.0
  0
ARC
  5
82
330
1F
100
AcDbEntity
  8
0
  6
Continuous
 62
     7
370
    25
100
AcDbCircle
 10
-149.4054462456
 20
-95.188978433
 30
0.0
 40
1.999999999999985
100
AcDbArc
 50
84.7824538822
 51
179.7824538822
  0
LINE
  5
83
330
1F
100
AcDbEntity
  8
0
  6
Continuous
 62
     7
370
    25
100
AcDbLine
 10
-145.0325519943
 20
-93.5799719738
 30
0.0
 11
-149.2235711393
 21
-93.1972652393
 31
0.0
  0
ARC
  5
84
330
1F
100
AcDbEntity
  8
0
  6
Continuous
 62
     7
370
    25
100
AcDbCircle
 10
-145.1234895474
 20
-94.5758285706
 30
0.0
 40
1.0
100
AcDbArc
 50
299.7824538822
 51
84.7824538822
  0
LINE
  5
85
330
1F
100
AcDbEntity
  8
0
  6
Continuous
 62
     7
370
    25
100
AcDbLine
 10
-149.917914652
 20
-98.4718553628
 30
0.0
 11
-144.626781352
 21
-95.4437461753
 31
0.0
  0
ARC
  5
86
330
1F
100
AcDbEntity
  8
0
  6
Continuous
 62
     7
370
    25
100
AcDbCircle
 10
-150.4146228473
 20
-97.6039377581
 30
0.0
 40
1.00000000000005
100
AcDbArc
 50
179.7824538822
 51
299.7824538822
  0
LINE
  5
87
330
1F
100
AcDbEntity
  8
0
  6
Continuous
 62
     7
370
    25
100
AcDbLine
 10
-151.4054318291
 20
-95.1813846592
 30
0.0
 11
-151.4146156391
 21
-97.6001408712
 31
0.0
  0
ARC
  5
88
330
1F
100
AcDbEntity
  8
0
  6
Continuous
 62
     7
370
    25
100
AcDbCircle
 10
-156.7394214404
 20
-82.3740375007
 30
0.0
 40
1.999999999999998
100
AcDbArc
 50
239.7824538822
 51
334.7824538822
  0
LINE
  5
89
330
1F
100
AcDbEntity
  8
0
  6
Continuous
 62
     7
370
    25
100
AcDbLine
 10
-160.8792065837
 20
-82.2774189456
 30
0.0
 11
-157.7459906332
 21
-84.1022789364
 31
0.0
  0
ARC
  5
8A
330
1F
100
AcDbEntity
  8
0
  6
Continuous
 62
     7
370
    25
100
AcDbCircle
 10
-160.3759219873
 20
-81.4132982278
 30
0.0
 40
0.9999999999999891
100
AcDbArc
 50
119.7824538822
 51
239.7824538822
  0
LINE
  5
8B
330
1F
100
AcDbEntity
  8
0
  6
Continuous
 62
     7
370
    25
100
AcDbLine
 10
-153.7618613041
 20
-76.4758961949
 30
0.0
 11
-160.8726301827
 21
-80.545380623
 31
0.0
  0
ARC
  5
8C
330
1F
100
AcDbEntity
  8
0
  6
Continuous
 62
     7
370
    25
100
AcDbCircle
 10
-153.2651531088
 20
-77.3438137997
 30
0.0
 40
0.9999999999999651
100
AcDbArc
 50
334.7824538821
 51
119.7824538822
  0
LINE
  5
8D
330
1F
100
AcDbEntity
  8
0
  6
Continuous
 62
     7
370
    25
100
AcDbLine
 10
-154.9300281995
 20
-83.2261502279
 30
0.0
 11
-152.3604564883
 21
-77.7698701633
 31
0.0
  0
ARC
  5
8E
330
1F
100
AcDbEntity
  8
0
  6
Continuous
 62
     7
370
    25
100
AcDbCircle
 10
110.1284060504
 20
-8.5067752685
 30
0.0
 40
2.000000000000101
100
AcDbArc
 50
40.0
 51
135.0
  0
LINE
  5
8F
330
1F
100
AcDbEntity
  8
0
  6
Continuous
 62
     7
370
    25
100
AcDbLine
 10
119.0454534201
 20
-16.0222508529
 30
0.0
 11
111.6604949366
 21
-7.2212000491
 31
0.0
  0
ARC
  5
90
330
1F
100
AcDbEntity
  8
0
  6
Continuous
 62
     7
370
    25
100
AcDbCircle
 10
117.5133645339
 20
-17.3078260723
 30
0.0
 40
2.000000000000036
100
AcDbArc
 50
265.0
 51
40.0
  0
LINE
  5
91
330
1F
100
AcDbEntity
  8
0
  6
Continuous
 62
     7
370
    25
100
AcDbLine
 10
113.1162260027
 20
-18.930765974
 30
0.0
 11
117.3390530484
 21
-19.3002154685
 31
0.0
  0
ARC
  5
92
330
1F
100
AcDbEntity
  8
0
  6
Continuous
 62
     7
370
    25
100
AcDbCircle
 10
113.2905374882
 20
-16.9383765778
 30
0.0
 40
1.999999999999995
100
AcDbArc
 50
215.0
 51
265.0
  0
LINE
  5
93
330
1F
100
AcDbEntity
  8
0
  6
Continuous
 62
     7
370
    25
100
AcDbLine
 10
106.8775109713
 20
-11.2665191317
 30
0.0
 11
111.6522333996
 21
-18.0855294505
 31
0.0
  0
ARC
  5
94
330
1F
100
AcDbEntity
  8
0
  6
Continuous
 62
     7
370
    25
100
AcDbCircle
 10
108.5158150599
 20
-10.119366259
 30
0.0
 40
1.99999999999996
100
AcDbArc
 50
135.0
 51
215.0
  0
LINE
  5
95
330
1F
100
AcDbEntity
  8
0
  6
Continuous
 62
     7
370
    25
100
AcDbLine
 10
108.714192488
 20
-7.0925617061
 30
0.0
 11
107.1016014975
 21
-8.7051526966
 31
0.0
  0
ARC
  5
96
330
1F
100
AcDbEntity
  8
0
  6
Continuous
 62
     7
370
    25
100
AcDbCircle
 10
144.912756058
 20
-21.9076730794
 30
0.0
 40
2.000000000000035
100
AcDbArc
 50
30.0
 51
110.0
  0
LINE
  5
97
330
1F
100
AcDbEntity
  8
0
  6
Continuous
 62
     7
370
    25
100
AcDbLine
 10
147.7469655742
 20
-22.8166679608
 30
0.0
 11
146.6448068655
 21
-20.9076730794
 31
0.0
  0
ARC
  5
98
330
1F
100
AcDbEntity
  8
0
  6
Continuous
 62
     7
370
    25
100
AcDbCircle
 10
146.0149147666
 20
-23.8166679608
 30
0.0
 40
1.999999999999972
100
AcDbArc
 50
265.0
 51
30.0
  0
LINE
  5
99
330
1F
100
AcDbEntity
  8
0
  6
Continuous
 62
     7
370
    25
100
AcDbLine
 10
136.2299870315
 20
-24.9682373856
 30
0.0
 11
145.8406032811
 21
-25.8090573569
 31
0.0
  0
ARC
  5
9A
330
1F
100
AcDbEntity
  8
0
  6
Continuous
 62
     7
370
    25
100
AcDbCircle
 10
136.3171427742
 20
-23.9720426875
 30
0.0
 40
0.9999999999999973
100
AcDbArc
 50
110.0
 51
265.0
  0
LINE
  5
9B
330
1F
100
AcDbEntity
  8
0
  6
Continuous
 62
     7
370
    25
100
AcDbLine
 10
144.2287157713
 20
-20.0282878379
 30
0.0
 11
135.9751226309
 21
-23.0323500667
 31
0.0
  0
ARC
  5
9C
330
1F
100
AcDbEntity
  8
0
  6
Continuous
 62
     7
370
    25
100
AcDbCircle
 10
204.1595497764
 20
-27.4793423664
 30
0.0
 40
2.000000000000012
100
AcDbArc
 50
37.5
 51
117.5
  0
LINE
  5
9D
330
1F
100
AcDbEntity
  8
0
  6
Continuous
 62
     7
370
    25
100
AcDbLine
 10
209.61657846
 20
-31.3057213438
 30
0.0
 11
205.746256457
 21
-26.2618195084
 31
0.0
  0
ARC
  5
9E
330
1F
100
AcDbEntity
  8
0
  6
Continuous
 62
     7
370
    25
100
AcDbCircle
 10
208.0298717794
 20
-32.5232442018
 30
0.0
 40
1.999999999999996
100
AcDbArc
 50
277.5
 51
37.5
  0
LINE
  5
9F
330
1F
100
AcDbEntity
  8
0
  6
Continuous
 62
     7
370
    25
100
AcDbLine
 10
201.0690003957
 20
-35.456918226
 30
0.0
 11
208.2909241639
 21
-34.5061339246
 31
0.0
  0
ARC
  5
A0
330
1F
100
AcDbEntity
  8
0
  6
Continuous
 62
     7
370
    25
100
AcDbCircle
 10
200.677421819
 20
-32.4825836419
 30
0.0
 40
3.000000000000005
100
AcDbArc
 50
246.7121827638
 51
277.5
  0
ARC
  5
A1
330
1F
100
AcDbEntity
  8
0
  6
Continuous
 62
     7
370
    25
100
AcDbCircle
 10
186.049464235
 20
-66.4682108528
 30
0.0
 40
34.00000000000002
100
AcDbArc
 50
66.7121827638
 51
76.0757785952
  0
ARC
  5
A2
330
1F
100
AcDbEntity
  8
0
  6
Continuous
 62
     7
370
    25
100
AcDbCircle
 10
194.4718077048
 20
-32.4966914509
 30
0.0
 40
1.0
100
AcDbArc
 50
180.0
 51
256.0757785952
  0
LINE
  5
A3
330
1F
100
AcDbEntity
  8
0
  6
Continuous
 62
     7
370
    25
100
AcDbLine
 10
193.4718077048
 20
-31.3950797363
 30
0.0
 11
193.4718077048
 21
-32.4966914509
 31
0.0
  0
ARC
  5
A4
330
1F
100
AcDbEntity
  8
0
  6
Continuous
 62
     7
370
    25
100
AcDbCircle
 10
194.4718077048
 20
-31.3950797363
 30
0.0
 40
1.000000000000007
100
AcDbArc
 50
117.5
 51
180.0
  0
LINE
  5
A5
330
1F
100
AcDbEntity
  8
0
  6
Continuous
 62
     7
370
    25
100
AcDbLine
 10
203.2360525499
 20
-25.7053207
 30
0.0
 11
194.0100590915
 21
-30.5080689031
 31
0.0
  0
ARC
  5
A6
330
1F
100
AcDbEntity
  8
0
  6
Continuous
 62
     7
370
    25
100
AcDbCircle
 10
244.1233957422
 20
-72.4806824799
 30
0.0
 40
2.000000000000015
100
AcDbArc
 50
300.5833769951
 51
347.5
  0
ARC
  5
A7
330
1F
100
AcDbEntity
  8
0
  6
Continuous
 62
     7
370
    25
100
AcDbCircle
 10
256.08
 20
-92.7115898897
 30
0.0
 40
21.50000000000001
100
AcDbArc
 50
120.5833769951
 51
151.0862391881
  0
ARC
  5
A8
330
1F
100
AcDbEntity
  8
0
  6
Continuous
 62
     7
370
    25
100
AcDbCircle
 10
235.5093118689
 20
-81.349513063
 30
0.0
 40
2.000000000000025
100
AcDbArc
 50
207.5
 51
331.0862391881
  0
LINE
  5
A9
330
1F
100
AcDbEntity
  8
0
  6
Continuous
 62
     7
370
    25
100
AcDbLine
 10
221.1009023747
 20
-58.0025770869
 30
0.0
 11
233.7352902026
 21
-82.2730102895
 31
0.0
  0
ARC
  5
AA
330
1F
100
AcDbEntity
  8
0
  6
Continuous
 62
     7
370
    25
100
AcDbCircle
 10
222.8749240411
 20
-57.0790798605
 30
0.0
 40
1.999999999999996
100
AcDbArc
 50
87.5
 51
207.5
  0
LINE
  5
AB
330
1F
100
AcDbEntity
  8
0
  6
Continuous
 62
     7
370
    25
100
AcDbLine
 10
247.3886538848
 20
-56.1474670493
 30
0.0
 11
222.9621628158
 21
-55.0809834173
 31
0.0
  0
ARC
  5
AC
330
1F
100
AcDbEntity
  8
0
  6
Continuous
 62
     7
370
    25
100
AcDbCircle
 10
247.30141511
 20
-58.1455634925
 30
0.0
 40
2.000000000000002
100
AcDbArc
 50
347.5
 51
87.5
  0
LINE
  5
AD
330
1F
100
AcDbEntity
  8
0
  6
Continuous
 62
     7
370
    25
100
AcDbLine
 10
246.0759877564
 20
-72.9135617078
 30
0.0
 11
249.2540071243
 21
-58.5784427204
 31
0.0
  0
ARC
  5
AE
330
1F
100
AcDbEntity
  8
0
  6
Continuous
 62
     7
370
    25
100
AcDbCircle
 10
258.5715935316
 20
-69.3440491189
 30
0.0
 40
1.999999999999998
100
AcDbArc
 50
263.9137608119
 51
27.5
  0
ARC
  5
AF
330
1F
100
AcDbEntity
  8
0
  6
Continuous
 62
     7
370
    25
100
AcDbCircle
 10
256.08
 20
-92.7115898897
 30
0.0
 40
21.50000000000001
100
AcDbArc
 50
83.9137608119
 51
92.4235508694
  0
ARC
  5
B0
330
1F
100
AcDbEntity
  8
0
  6
Continuous
 62
     7
370
    25
100
AcDbCircle
 10
255.0862712487
 20
-69.2326098614
 30
0.0
 40
1.99999999999999
100
AcDbArc
 50
167.5
 51
272.4235508694
  0
LINE
  5
B1
330
1F
100
AcDbEntity
  8
0
  6
Continuous
 62
     7
370
    25
100
AcDbLine
 10
254.7519925659
 20
-61.4999909279
 30
0.0
 11
253.1336792345
 21
-68.7997306335
 31
0.0
  0
ARC
  5
B2
330
1F
100
AcDbEntity
  8
0
  6
Continuous
 62
     7
370
    25
100
AcDbCircle
 10
255.728288573
 20
-61.7164305418
 30
0.0
 40
0.9999999999999994
100
AcDbArc
 50
27.5
 51
167.5
  0
LINE
  5
B3
330
1F
100
AcDbEntity
  8
0
  6
Continuous
 62
     7
370
    25
100
AcDbLine
 10
260.3456151979
 20
-68.4205518924
 30
0.0
 11
256.6152994062
 21
-61.2546819286
 31
0.0
  0
ARC
  5
B4
330
1F
100
AcDbEntity
  8
0
  6
Continuous
 62
     7
370
    25
100
AcDbCircle
 10
101.7644270229
 20
-16.9337924151
 30
0.0
 40
1.000000000000004
100
AcDbArc
 50
120.0
 51
265.0
  0
LINE
  5
B5
330
1F
100
AcDbEntity
  8
0
  6
Continuous
 62
     7
370
    25
100
AcDbLine
 10
103.3847379728
 20
-14.8436049136
 30
0.0
 11
101.2644270229
 21
-16.0677670113
 31
0.0
  0
ARC
  5
B6
330
1F
100
AcDbEntity
  8
0
  6
Continuous
 62
     7
370
    25
100
AcDbCircle
 10
103.8847379728
 20
-15.7096303174
 30
0.0
 40
1.000000000000092
100
AcDbArc
 50
35.0
 51
120.0
  0
LINE
  5
B7
330
1F
100
AcDbEntity
  8
0
  6
Continuous
 62
     7
370
    25
100
AcDbLine
 10
105.7553616501
 20
-16.6377109979
 30
0.0
 11
104.7038900171
 21
-15.136053881
 31
0.0
  0
ARC
  5
B8
330
1F
100
AcDbEntity
  8
0
  6
Continuous
 62
     7
370
    25
100
AcDbCircle
 10
104.9362096058
 20
-17.2112874342
 30
0.0
 40
1.00000000000005
100
AcDbArc
 50
265.0
 51
35.0
  0
LINE
  5
B9
330
1F
100
AcDbEntity
  8
0
  6
Continuous
 62
     7
370
    25
100
AcDbLine
 10
101.6772712801
 20
-17.9299871132
 30
0.0
 11
104.8490538631
 21
-18.2074821323
 31
0.0
  0
ARC
  5
BA
330
1F
100
AcDbEntity
  8
0
  6
Continuous
 62
     7
370
    25
100
AcDbCircle
 10
192.2068475417
 20
-12.9754874223
 30
0.0
 40
1.999999999999992
100
AcDbArc
 50
42.5
 51
130.0
  0
LINE
  5
BB
330
1F
100
AcDbEntity
  8
0
  6
Continuous
 62
     7
370
    25
100
AcDbLine
 10
199.5455140038
 20
-18.0238620531
 30
0.0
 11
193.6814022153
 21
-11.6243070071
 31
0.0
  0
ARC
  5
BC
330
1F
100
AcDbEntity
  8
0
  6
Continuous
 62
     7
370
    25
100
AcDbCircle
 10
198.0709593302
 20
-19.3750424683
 30
0.0
 40
2.0
100
AcDbArc
 50
297.5
 51
42.5
  0
LINE
  5
BD
330
1F
100
AcDbEntity
  8
0
  6
Continuous
 62
     7
370
    25
100
AcDbLine
 10
182.8075314181
 20
-29.5754440116
 30
0.0
 11
198.9944565566
 21
-21.1490641347
 31
0.0
  0
ARC
  5
BE
330
1F
100
AcDbEntity
  8
0
  6
Continuous
 62
     7
370
    25
100
AcDbCircle
 10
181.4222855784
 20
-26.914411512
 30
0.0
 40
3.00000000000001
100
AcDbArc
 50
265.0
 51
297.5
  0
LINE
  5
BF
330
1F
100
AcDbEntity
  8
0
  6
Continuous
 62
     7
370
    25
100
AcDbLine
 10
172.4826015496
 20
-29.1437500167
 30
0.0
 11
181.1608183501
 21
-29.9029956063
 31
0.0
  0
ARC
  5
C0
330
1F
100
AcDbEntity
  8
0
  6
Continuous
 62
     7
370
    25
100
AcDbCircle
 10
172.5697572924
 20
-28.1475553186
 30
0.0
 40
1.0
100
AcDbArc
 50
130.0
 51
265.0
  0
LINE
  5
C1
330
1F
100
AcDbEntity
  8
0
  6
Continuous
 62
     7
370
    25
100
AcDbLine
 10
190.9212723223
 20
-11.4433985361
 30
0.0
 11
171.9269696827
 21
-27.3815108754
 31
0.0
  0
ARC
  5
C2
330
1F
100
AcDbEntity
  8
0
  6
Continuous
 62
     7
370
    25
100
AcDbCircle
 10
157.7800018132
 20
-6.194396481
 30
0.0
 40
2.000000000000009
100
AcDbArc
 50
145.0
 51
210.0
  0
LINE
  5
C3
330
1F
100
AcDbEntity
  8
0
  6
Continuous
 62
     7
370
    25
100
AcDbLine
 10
158.1884593404
 20
-2.1241650866
 30
0.0
 11
156.1416977247
 21
-5.0472436083
 31
0.0
  0
ARC
  5
C4
330
1F
100
AcDbEntity
  8
0
  6
Continuous
 62
     7
370
    25
100
AcDbCircle
 10
159.8267634289
 20
-3.2713179593
 30
0.0
 40
2.000000000000059
100
AcDbArc
 50
70.0
 51
145.0
  0
LINE
  5
C5
330
1F
100
AcDbEntity
  8
0
  6
Continuous
 62
     7
370
    25
100
AcDbLine
 10
177.5976708821
 20
-7.6110437632
 30
0.0
 11
160.5108037156
 21
-1.3919327177
 31
0.0
  0
ARC
  5
C6
330
1F
100
AcDbEntity
  8
0
  6
Continuous
 62
     7
370
    25
100
AcDbCircle
 10
176.9136305954
 20
-9.4904290047
 30
0.0
 40
1.999999999999994
100
AcDbArc
 50
310.0
 51
70.0
  0
LINE
  5
C7
330
1F
100
AcDbEntity
  8
0
  6
Continuous
 62
     7
370
    25
100
AcDbLine
 10
166.5918007363
 20
-20.7622872113
 30
0.0
 11
178.1992058148
 21
-11.022517891
 31
0.0
  0
ARC
  5
C8
330
1F
100
AcDbEntity
  8
0
  6
Continuous
 62
     7
370
    25
100
AcDbCircle
 10
165.306225517
 20
-19.230198325
 30
0.0
 40
2.000000000000043
100
AcDbArc
 50
210.0
 51
310.0
  0
LINE
  5
C9
330
1F
100
AcDbEntity
  8
0
  6
Continuous
 62
     7
370
    25
100
AcDbLine
 10
156.0479510057
 20
-7.194396481
 30
0.0
 11
163.5741747094
 21
-20.230198325
 31
0.0
  0
ARC
  5
CA
330
1F
100
AcDbEntity
  8
0
  6
Continuous
 62
     7
370
    25
100
AcDbCircle
 10
232.489961657
 20
-20.9898621669
 30
0.0
 40
1.999999999999997
100
AcDbArc
 50
297.5
 51
44.4002856763
  0
LINE
  5
CB
330
1F
100
AcDbEntity
  8
0
  6
Continuous
 62
     7
370
    25
100
AcDbLine
 10
218.6181372656
 20
-30.4658407699
 30
0.0
 11
233.4134588835
 21
-22.7638838333
 31
0.0
  0
ARC
  5
CC
330
1F
100
AcDbEntity
  8
0
  6
Continuous
 62
     7
370
    25
100
AcDbCircle
 10
217.6946400392
 20
-28.6918191035
 30
0.0
 40
2.000000000000012
100
AcDbArc
 50
217.5
 51
297.5
  0
LINE
  5
CD
330
1F
100
AcDbEntity
  8
0
  6
Continuous
 62
     7
370
    25
100
AcDbLine
 10
211.6717994826
 20
-24.1280597369
 30
0.0
 11
216.1079333586
 21
-29.9093419615
 31
0.0
  0
ARC
  5
CE
330
1F
100
AcDbEntity
  8
0
  6
Continuous
 62
     7
370
    25
100
AcDbCircle
 10
213.2585061631
 20
-22.9105368789
 30
0.0
 40
2.000000000000006
100
AcDbArc
 50
142.5
 51
217.5
  0
LINE
  5
CF
330
1F
100
AcDbEntity
  8
0
  6
Continuous
 62
     7
370
    25
100
AcDbLine
 10
220.0071678149
 20
-10.8301505183
 30
0.0
 11
211.6717994826
 21
-21.6930140209
 31
0.0
  0
ARC
  5
D0
330
1F
100
AcDbEntity
  8
0
  6
Continuous
 62
     7
370
    25
100
AcDbCircle
 10
221.5938744955
 20
-12.0476733763
 30
0.0
 40
2.000000000000001
100
AcDbArc
 50
56.8497070707
 51
142.5
  0
ARC
  5
D1
330
1F
100
AcDbEntity
  8
0
  6
Continuous
 62
     7
370
    25
100
AcDbCircle
 10
186.049464235
 20
-66.4682108528
 30
0.0
 40
66.9999999999999
100
AcDbArc
 50
44.4002856763
 51
56.8497070707
  0
ARC
  5
D2
330
1F
100
AcDbEntity
  8
0
  6
Continuous
 62
     7
370
    25
100
AcDbCircle
 10
208.3709770252
 20
-12.853292545
 30
0.0
 40
2.000000000000009
100
AcDbArc
 50
222.5
 51
322.5
  0
LINE
  5
D3
330
1F
100
AcDbEntity
  8
0
  6
Continuous
 62
     7
370
    25
100
AcDbLine
 10
197.6886819043
 20
-4.1559875345
 30
0.0
 11
206.8964223515
 21
-14.2044729602
 31
0.0
  0
ARC
  5
D4
330
1F
100
AcDbEntity
  8
0
  6
Continuous
 62
     7
370
    25
100
AcDbCircle
 10
199.1632365779
 20
-2.8048071193
 30
0.0
 40
2.000000000000004
100
AcDbArc
 50
78.3606669377
 51
222.5
  0
ARC
  5
D5
330
1F
100
AcDbEntity
  8
0
  6
Continuous
 62
     7
370
    25
100
AcDbCircle
 10
186.049464235
 20
-66.4682108528
 30
0.0
 40
66.99999999999994
100
AcDbArc
 50
65.7788192282
 51
78.3606669377
  0
ARC
  5
D6
330
1F
100
AcDbEntity
  8
0
  6
Continuous
 62
     7
370
    25
100
AcDbCircle
 10
212.7163767867
 20
-7.1902573207
 30
0.0
 40
2.000000000000027
100
AcDbArc
 50
322.5
 51
65.7788192282
  0
LINE
  5
D7
330
1F
100
AcDbEntity
  8
0
  6
Continuous
 62
     7
370
    25
100
AcDbLine
 10
209.9576837057
 20
-14.070815403
 30
0.0
 11
214.3030834673
 21
-8.4077801787
 31
0.0
  0
ARC
  5
D8
330
1F
100
AcDbEntity
  8
0
  6
Continuous
 62
     7
370
    25
100
AcDbCircle
 10
-223.4948857714
 20
-130.1893773577
 30
0.0
 40
3.000000000000041
100
AcDbArc
 50
147.7824538822
 51
269.7824538822
  0
LINE
  5
D9
330
1F
100
AcDbEntity
  8
0
  6
Continuous
 62
     7
370
    25
100
AcDbLine
 10
-215.7001250937
 20
-112.1928212538
 30
0.0
 11
-226.0329755906
 21
-128.5899711962
 31
0.0
  0
ARC
  5
DA
330
1F
100
AcDbEntity
  8
0
  6
Continuous
 62
     7
370
    25
100
AcDbCircle
 10
-214.0080652143
 20
-113.2590920282
 30
0.0
 40
2.000000000000003
100
AcDbArc
 50
119.7824538822
 51
147.7824538822
  0
LINE
  5
DB
330
1F
100
AcDbEntity
  8
0
  6
Continuous
 62
     7
370
    25
100
AcDbLine
 10
-209.4931180185
 20
-108.370827001
 30
0.0
 11
-215.001481605
 21
-111.5232568187
 31
0.0
  0
ARC
  5
DC
330
1F
100
AcDbEntity
  8
0
  6
Continuous
 62
     7
370
    25
100
AcDbCircle
 10
-208.4997016278
 20
-110.1066622105
 30
0.0
 40
1.999999999999966
100
AcDbArc
 50
59.7824538822
 51
119.7824538822
  0
LINE
  5
DD
330
1F
100
AcDbEntity
  8
0
  6
Continuous
 62
     7
370
    25
100
AcDbLine
 10
-206.5465710972
 20
-108.9297207621
 30
0.0
 11
-207.4931324349
 21
-108.3784207748
 31
0.0
  0
ARC
  5
DE
330
1F
100
AcDbEntity
  8
0
  6
Continuous
 62
     7
370
    25
100
AcDbCircle
 10
-207.5531402901
 20
-110.6579621978
 30
0.0
 40
2.000000000000205
100
AcDbArc
 50
327.7824538822
 51
59.7824538821
  0
LINE
  5
DF
330
1F
100
AcDbEntity
  8
0
  6
Continuous
 62
     7
370
    25
100
AcDbLine
 10
-207.377561718
 20
-114.1307297457
 30
0.0
 11
-205.8610804106
 21
-111.7242329722
 31
0.0
  0
ARC
  5
E0
330
1F
100
AcDbEntity
  8
0
  6
Continuous
 62
     7
370
    25
100
AcDbCircle
 10
-203.9934419591
 20
-116.2632712945
 30
0.0
 40
3.999999999999555
100
AcDbArc
 50
147.7824538821
 51
269.7824538822
  0
LINE
  5
E1
330
1F
100
AcDbEntity
  8
0
  6
Continuous
 62
     7
370
    25
100
AcDbLine
 10
-200.2247540956
 20
-120.2776095122
 30
0.0
 11
-204.0086295067
 21
-120.2632424617
 31
0.0
  0
ARC
  5
E2
330
1F
100
AcDbEntity
  8
0
  6
Continuous
 62
     7
370
    25
100
AcDbCircle
 10
-200.2323478694
 20
-122.2775950958
 30
0.0
 40
2.000000000000667
100
AcDbArc
 50
359.7824538822
 51
89.7824538821
  0
LINE
  5
E3
330
1F
100
AcDbEntity
  8
0
  6
Continuous
 62
     7
370
    25
100
AcDbLine
 10
-198.2469626446
 20
-126.130511071
 30
0.0
 11
-198.2323622858
 21
-122.2851888697
 31
0.0
  0
ARC
  5
E4
330
1F
100
AcDbEntity
  8
0
  6
Continuous
 62
     7
370
    25
100
AcDbCircle
 10
-200.2469482282
 20
-126.1229172972
 30
0.0
 40
2.000000000000838
100
AcDbArc
 50
299.7824538822
 51
359.7824538822
  0
LINE
  5
E5
330
1F
100
AcDbEntity
  8
0
  6
Continuous
 62
     7
370
    25
100
AcDbLine
 10
-208.2012425264
 20
-132.979516511
 30
0.0
 11
-199.2535318374
 21
-127.8587525067
 31
0.0
  0
ARC
  5
E6
330
1F
100
AcDbEntity
  8
0
  6
Continuous
 62
     7
370
    25
100
AcDbCircle
 10
-209.1946589172
 20
-131.2436813015
 30
0.0
 40
1.999999999999994
100
AcDbArc
 50
269.7824538822
 51
299.7824538822
  0
LINE
  5
E7
330
1F
100
AcDbEntity
  8
0
  6
Continuous
 62
     7
370
    25
100
AcDbLine
 10
-223.5062764321
 20
-133.1893557331
 30
0.0
 11
-209.202252691
 21
-133.2436668851
 31
0.0
  0
ARC
  5
E8
330
1F
100
AcDbEntity
  8
0
  6
Continuous
 62
     7
370
    25
100
AcDbCircle
 10
-253.5372554575
 20
-141.3254170104
 30
0.0
 40
3.000000000000004
100
AcDbArc
 50
149.7824538822
 51
264.7824538822
  0
LINE
  5
E9
330
1F
100
AcDbEntity
  8
0
  6
Continuous
 62
     7
370
    25
100
AcDbLine
 10
-249.9491427607
 20
-129.2039204204
 30
0.0
 11
-256.1296176111
 21
-139.8155632212
 31
0.0
  0
ARC
  5
EA
330
1F
100
AcDbEntity
  8
0
  6
Continuous
 62
     7
370
    25
100
AcDbCircle
 10
-247.3567806072
 20
-130.7137742097
 30
0.0
 40
2.999999999999994
100
AcDbArc
 50
59.7824538822
 51
149.7824538821
  0
LINE
  5
EB
330
1F
100
AcDbEntity
  8
0
  6
Continuous
 62
     7
370
    25
100
AcDbLine
 10
-240.0286012188
 20
-131.510144198
 30
0.0
 11
-245.8469268179
 21
-128.1214120562
 31
0.0
  0
ARC
  5
EC
330
1F
100
AcDbEntity
  8
0
  6
Continuous
 62
     7
370
    25
100
AcDbCircle
 10
-241.538455008
 20
-134.1025063516
 30
0.0
 40
3.000000000000103
100
AcDbArc
 50
359.7824538822
 51
59.7824538822
  0
LINE
  5
ED
330
1F
100
AcDbEntity
  8
0
  6
Continuous
 62
     7
370
    25
100
AcDbLine
 10
-238.5700506663
 20
-142.4296058625
 30
0.0
 11
-238.5384766326
 21
-134.1138970123
 31
0.0
  0
ARC
  5
EE
330
1F
100
AcDbEntity
  8
0
  6
Continuous
 62
     7
370
    25
100
AcDbCircle
 10
-241.5700290417
 20
-142.4182152018
 30
0.0
 40
3.000000000000066
100
AcDbArc
 50
264.7824538822
 51
359.7824538822
  0
LINE
  5
EF
330
1F
100
AcDbEntity
  8
0
  6
Continuous
 62
     7
370
    25
100
AcDbLine
 10
-253.8100681169
 20
-144.3129868009
 30
0.0
 11
-241.842841701
 21
-145.4057849923
 31
0.0
  0
LINE
  5
F0
330
1F
100
AcDbEntity
  8
0
  6
Continuous
 62
     7
370
    25
100
AcDbLine
 10
-156.3883735228
 20
-90.6792162347
 30
0.0
 11
-167.3868321983
 21
-84.2734505571
 31
0.0
  0
LINE
  5
F1
330
1F
100
AcDbEntity
  8
0
  6
Continuous
 62
     7
370
    25
100
AcDbLine
 10
-156.4321166676
 20
-102.1999252969
 30
0.0
 11
-156.3883735228
 21
-90.6792162347
 31
0.0
  0
LINE
  5
F2
330
1F
100
AcDbEntity
  8
0
  6
Continuous
 62
     7
370
    25
100
AcDbLine
 10
-168.1490043317
 20
-108.9054859345
 30
0.0
 11
-156.4321166676
 21
-102.1999252969
 31
0.0
  0
LINE
  5
F3
330
1F
100
AcDbEntity
  8
0
  6
Continuous
 62
     7
370
    25
100
AcDbLine
 10
-183.9527379917
 20
-108.8454805126
 30
0.0
 11
-168.1490043317
 21
-108.9054859345
 31
0.0
  0
ARC
  5
F4
330
1F
100
AcDbEntity
  8
0
  6
Continuous
 62
     7
370
    25
100
AcDbCircle
 10
-183.941347331
 20
-105.8455021372
 30
0.0
 40
2.999999999999994
100
AcDbArc
 50
149.7824538822
 51
269.7824538822
  0
LINE
  5
F5
330
1F
100
AcDbEntity
  8
0
  6
Continuous
 62
     7
370
    25
100
AcDbLine
 10
-178.5798764348
 20
-90.6792162347
 30
0.0
 11
-186.5337094845
 21
-104.3356483479
 31
0.0
  0
LINE
  5
F6
330
1F
100
AcDbEntity
  8
0
  6
Continuous
 62
     7
370
    25
100
AcDbLine
 10
-167.3868321983
 20
-84.2734505571
 30
0.0
 11
-178.5798764348
 21
-90.6792162347
 31
0.0
  0
ARC
  5
F7
330
1F
100
AcDbEntity
  8
0
  6
Continuous
 62
     7
370
    25
100
AcDbCircle
 10
-327.8860820281
 20
-178.9668513146
 30
0.0
 40
2.000000000000015
100
AcDbArc
 50
228.0809558249
 51
334.7824538821
  0
ARC
  5
F8
330
1F
100
AcDbEntity
  8
0
  6
Continuous
 62
     7
370
    25
100
AcDbCircle
 10
-343.92
 20
-196.825
 30
0.0
 40
22.0
100
AcDbArc
 50
48.0809558249
 51
57.3114573476
  0
ARC
  5
F9
330
1F
100
AcDbEntity
  8
0
  6
Continuous
 62
     7
370
    25
100
AcDbCircle
 10
-330.9582711821
 20
-176.6261488928
 30
0.0
 40
2.000000000000009
100
AcDbArc
 50
201.5955315981
 51
237.3114573476
  0
ARC
  5
FA
330
1F
100
AcDbEntity
  8
0
  6
Continuous
 62
     7
370
    25
100
AcDbCircle
 10
-339.3265179144
 20
-179.9386172515
 30
0.0
 40
7.000000000000012
100
AcDbArc
 50
21.5955315981
 51
40.1886612442
  0
ARC
  5
FB
330
1F
100
AcDbEntity
  8
0
  6
Continuous
 62
     7
370
    25
100
AcDbCircle
 10
-332.4512041746
 20
-174.1308585634
 30
0.0
 40
1.999999999999997
100
AcDbArc
 50
119.7824538822
 51
220.1886612442
  0
LINE
  5
FC
330
1F
100
AcDbEntity
  8
0
  6
Continuous
 62
     7
370
    25
100
AcDbLine
 10
-321.3247365471
 20
-165.4588283902
 30
0.0
 11
-333.4446205654
 21
-172.3950233538
 31
0.0
  0
ARC
  5
FD
330
1F
100
AcDbEntity
  8
0
  6
Continuous
 62
     7
370
    25
100
AcDbCircle
 10
-320.8280283517
 20
-166.3267459949
 30
0.0
 40
0.999999999999988
100
AcDbArc
 50
334.7824538822
 51
119.7824538822
  0
LINE
  5
FE
330
1F
100
AcDbEntity
  8
0
  6
Continuous
 62
     7
370
    25
100
AcDbLine
 10
-326.0766887872
 20
-179.8189640418
 30
0.0
 11
-319.9233317312
 21
-166.7528023585
 31
0.0
  0
ARC
  5
FF
330
1F
100
AcDbEntity
  8
0
  6
Continuous
 62
     7
370
    25
100
AcDbCircle
 10
-120.1396026644
 20
-69.0087212959
 30
0.0
 40
2.999999999999996
100
AcDbArc
 50
134.7824538821
 51
279.7824538822
  0
LINE
  5
100
330
1F
100
AcDbEntity
  8
0
  6
Continuous
 62
     7
370
    25
100
AcDbLine
 10
-110.6811165073
 20
-55.3951664317
 30
0.0
 11
-122.2528533036
 21
-66.8793618298
 31
0.0
  0
ARC
  5
101
330
1F
100
AcDbEntity
  8
0
  6
Continuous
 62
     7
370
    25
100
AcDbCircle
 10
-108.5678658681
 20
-57.5245258978
 30
0.0
 40
3.000000000000004
100
AcDbArc
 50
119.7824538822
 51
134.7824538822
  0
LINE
  5
102
330
1F
100
AcDbEntity
  8
0
  6
Continuous
 62
     7
370
    25
100
AcDbLine
 10
-96.7246914633
 20
-47.2901421987
 30
0.0
 11
-110.0579904543
 21
-54.9207730835
 31
0.0
  0
ARC
  5
103
330
1F
100
AcDbEntity
  8
0
  6
Continuous
 62
     7
370
    25
100
AcDbCircle
 10
-95.2345668772
 20
-49.893895013
 30
0.0
 40
3.000000000000003
100
AcDbArc
 50
74.7824538822
 51
119.7824538822
  0
LINE
  5
104
330
1F
100
AcDbEntity
  8
0
  6
Continuous
 62
     7
370
    25
100
AcDbLine
 10
-92.2866086257
 20
-47.5867930621
 30
0.0
 11
-94.4471128053
 21
-46.9990865418
 31
0.0
  0
ARC
  5
105
330
1F
100
AcDbEntity
  8
0
  6
Continuous
 62
     7
370
    25
100
AcDbCircle
 10
-92.8115780069
 20
-49.5166653762
 30
0.0
 40
2.000000000000006
100
AcDbArc
 50
354.7824538822
 51
74.7824538822
  0
LINE
  5
106
330
1F
100
AcDbEntity
  8
0
  6
Continuous
 62
     7
370
    25
100
AcDbLine
 10
-91.8964213508
 20
-61.4879046443
 30
0.0
 11
-90.8198648133
 21
-49.6985404824
 31
0.0
  0
ARC
  5
107
330
1F
100
AcDbEntity
  8
0
  6
Continuous
 62
     7
370
    25
100
AcDbCircle
 10
-94.8839911413
 20
-61.215091985
 30
0.0
 40
3.000000000000003
100
AcDbArc
 50
299.7824538822
 51
354.7824538822
  0
LINE
  5
108
330
1F
100
AcDbEntity
  8
0
  6
Continuous
 62
     7
370
    25
100
AcDbLine
 10
-101.994338017
 20
-68.7408842139
 30
0.0
 11
-93.3938665551
 21
-63.8188447992
 31
0.0
  0
ARC
  5
109
330
1F
100
AcDbEntity
  8
0
  6
Continuous
 62
     7
370
    25
100
AcDbCircle
 10
-103.4844626032
 20
-66.1371313996
 30
0.0
 40
2.999999999999998
100
AcDbArc
 50
279.7824538822
 51
299.7824538822
  0
LINE
  5
10A
330
1F
100
AcDbEntity
  8
0
  6
Continuous
 62
     7
370
    25
100
AcDbLine
 10
-119.6298794974
 20
-71.9651012263
 30
0.0
 11
-102.9747394362
 21
-69.0935113301
 31
0.0
  0
ARC
  5
10B
330
1F
100
AcDbEntity
  8
0
  6
Continuous
 62
     7
370
    25
100
AcDbCircle
 10
-59.8994226142
 20
-34.2282537199
 30
0.0
 40
3.000000000000003
100
AcDbArc
 50
129.7824538821
 51
284.7824538822
  0
LINE
  5
10C
330
1F
100
AcDbEntity
  8
0
  6
Continuous
 62
     7
370
    25
100
AcDbLine
 10
-44.3172230419
 20
-17.3499241633
 30
0.0
 11
-61.8190457909
 21
-31.9228151803
 31
0.0
  0
ARC
  5
10D
330
1F
100
AcDbEntity
  8
0
  6
Continuous
 62
     7
370
    25
100
AcDbCircle
 10
-42.3975998652
 20
-19.6553627028
 30
0.0
 40
2.999999999999997
100
AcDbArc
 50
119.7824538822
 51
129.7824538822
  0
LINE
  5
10E
330
1F
100
AcDbEntity
  8
0
  6
Continuous
 62
     7
370
    25
100
AcDbLine
 10
-36.2745978807
 20
-12.6946267608
 30
0.0
 11
-43.8877244514
 21
-17.0516098885
 31
0.0
  0
ARC
  5
10F
330
1F
100
AcDbEntity
  8
0
  6
Continuous
 62
     7
370
    25
100
AcDbCircle
 10
-34.7844732945
 20
-15.2983795751
 30
0.0
 40
3.000000000000006
100
AcDbArc
 50
23.7401254631
 51
119.7824538822
  0
ARC
  5
110
330
1F
100
AcDbEntity
  8
0
  6
Continuous
 62
     7
370
    25
100
AcDbCircle
 10
0.0
 20
0.0
 30
0.0
 40
35.0
100
AcDbArc
 50
203.7401254631
 51
218.8671741695
  0
ARC
  5
111
330
1F
100
AcDbEntity
  8
0
  6
Continuous
 62
     7
370
    25
100
AcDbCircle
 10
-29.5869061202
 20
-23.8456492097
 30
0.0
 40
3.000000000000002
100
AcDbArc
 50
299.7824538822
 51
38.8671741695
  0
LINE
  5
112
330
1F
100
AcDbEntity
  8
0
  6
Continuous
 62
     7
370
    25
100
AcDbLine
 10
-35.825401618
 20
-30.8724819496
 30
0.0
 11
-28.0967815341
 21
-26.449402024
 31
0.0
  0
ARC
  5
113
330
1F
100
AcDbEntity
  8
0
  6
Continuous
 62
     7
370
    25
100
AcDbCircle
 10
-37.3155262042
 20
-28.2687291354
 30
0.0
 40
3.000000000000003
100
AcDbArc
 50
284.7824538822
 51
299.7824538822
  0
LINE
  5
114
330
1F
100
AcDbEntity
  8
0
  6
Continuous
 62
     7
370
    25
100
AcDbLine
 10
-59.1339736092
 20
-37.1289584309
 30
0.0
 11
-36.5500771991
 21
-31.1694338464
 31
0.0
  0
ARC
  5
115
330
1F
100
AcDbEntity
  8
0
  6
Continuous
 62
     7
370
    25
100
AcDbCircle
 10
0.0
 20
80.0
 30
0.0
 40
4.047639383456466
100
AcDbArc
 50
10.0
 51
170.0
  0
LINE
  5
116
330
1F
100
AcDbEntity
  8
0
  6
Continuous
 62
     7
370
    25
100
AcDbLine
 10
11.5996653433
 20
37.5244550327
 30
0.0
 11
3.9861466462
 21
80.7028652028
 31
0.0
  0
ARC
  5
117
330
1F
100
AcDbEntity
  8
0
  6
Continuous
 62
     7
370
    25
100
AcDbCircle
 10
8.6452420843
 20
37.0035104997
 30
0.0
 40
3.000000000000008
100
AcDbArc
 50
256.8496943189
 51
10.0
  0
ARC
  5
118
330
1F
100
AcDbEntity
  8
0
  6
Continuous
 62
     7
370
    25
100
AcDbCircle
 10
0.0
 20
0.0
 30
0.0
 40
35.00000000000001
100
AcDbArc
 50
76.8496943189
 51
103.1503056811
  0
ARC
  5
119
330
1F
100
AcDbEntity
  8
0
  6
Continuous
 62
     7
370
    25
100
AcDbCircle
 10
-8.6452420843
 20
37.0035104997
 30
0.0
 40
3.000000000000002
100
AcDbArc
 50
170.0
 51
283.1503056811
  0
LINE
  5
11A
330
1F
100
AcDbEntity
  8
0
  6
Continuous
 62
     7
370
    25
100
AcDbLine
 10
-3.9861466462
 20
80.7028652028
 30
0.0
 11
-11.5996653433
 21
37.5244550327
 31
0.0
  0
ARC
  5
11B
330
1F
100
AcDbEntity
  8
0
  6
Continuous
 62
     7
370
    25
100
AcDbCircle
 10
64.7489830371
 20
-5.6491009435
 30
0.0
 40
3.178142383044546
100
AcDbArc
 50
283.4012432806
 51
64.8886433701
  0
ARC
  5
11C
330
1F
100
AcDbEntity
  8
0
  6
Continuous
 62
     7
370
    25
100
AcDbCircle
 10
37.6732965132
 20
107.9917966961
 30
0.0
 40
120.0
100
AcDbArc
 50
269.629841387
 51
283.4012432806
  0
ARC
  5
11D
330
1F
100
AcDbEntity
  8
0
  6
Continuous
 62
     7
370
    25
100
AcDbCircle
 10
36.9174248448
 20
-9.005761646
 30
0.0
 40
3.000000000000011
100
AcDbArc
 50
166.2908246171
 51
269.629841387
  0
ARC
  5
11E
330
1F
100
AcDbEntity
  8
0
  6
Continuous
 62
     7
370
    25
100
AcDbCircle
 10
0.0
 20
0.0
 30
0.0
 40
35.0
100
AcDbArc
 50
346.2908246171
 51
5.0595998978
  0
ARC
  5
11F
330
1F
100
AcDbEntity
  8
0
  6
Continuous
 62
     7
370
    25
100
AcDbCircle
 10
37.8519329423
 20
3.3512941581
 30
0.0
 40
3.000000000000012
100
AcDbArc
 50
78.8228316224
 51
185.0595998978
  0
ARC
  5
120
330
1F
100
AcDbEntity
  8
0
  6
Continuous
 62
     7
370
    25
100
AcDbCircle
 10
15.1722507024
 20
-111.4295056889
 30
0.0
 40
120.0
100
AcDbArc
 50
64.8886433701
 51
78.8228316224
  0
ARC
  5
121
330
1F
100
AcDbEntity
  8
0
  6
Continuous
 62
     7
370
    25
100
AcDbCircle
 10
-318.2446374122
 20
-179.6179802814
 30
0.0
 40
2.000000000000148
100
AcDbArc
 50
154.7824538822
 51
264.7824538822
  0
LINE
  5
122
330
1F
100
AcDbEntity
  8
0
  6
Continuous
 62
     7
370
    25
100
AcDbLine
 10
-314.5879304374
 20
-167.1590408178
 30
0.0
 11
-320.0540306531
 21
-178.7658675542
 31
0.0
  0
ARC
  5
123
330
1F
100
AcDbEntity
  8
0
  6
Continuous
 62
     7
370
    25
100
AcDbCircle
 10
-312.7785371965
 20
-168.011153545
 30
0.0
 40
2.000000000000006
100
AcDbArc
 50
64.7824538822
 51
154.7824538822
  0
LINE
  5
124
330
1F
100
AcDbEntity
  8
0
  6
Continuous
 62
     7
370
    25
100
AcDbLine
 10
-297.6038383783
 20
-172.9468158391
 30
0.0
 11
-311.9264244693
 21
-166.2017603041
 31
0.0
  0
ARC
  5
125
330
1F
100
AcDbEntity
  8
0
  6
Continuous
 62
     7
370
    25
100
AcDbCircle
 10
-298.4559511055
 20
-174.75620908
 30
0.0
 40
1.999999999999965
100
AcDbArc
 50
344.7824538822
 51
64.7824538822
  0
LINE
  5
126
330
1F
100
AcDbEntity
  8
0
  6
Continuous
 62
     7
370
    25
100
AcDbLine
 10
-298.2961737686
 20
-181.7883337585
 30
0.0
 11
-296.5260787914
 21
-175.2811784612
 31
0.0
  0
ARC
  5
127
330
1F
100
AcDbEntity
  8
0
  6
Continuous
 62
     7
370
    25
100
AcDbCircle
 10
-300.2260460827
 20
-181.2633643773
 30
0.0
 40
1.99999999999999
100
AcDbArc
 50
264.7824538822
 51
344.7824538822
  0
LINE
  5
128
330
1F
100
AcDbEntity
  8
0
  6
Continuous
 62
     7
370
    25
100
AcDbLine
 10
-318.4265125185
 20
-181.6096934751
 30
0.0
 11
-300.407921189
 21
-183.2550775709
 31
0.0
  0
ARC
  5
129
330
1F
100
AcDbEntity
  8
0
  6
Continuous
 62
     7
370
    25
100
AcDbCircle
 10
-290.8383947866
 20
-181.4248418971
 30
0.0
 40
2.000000000000002
100
AcDbArc
 50
260.8400126132
 51
299.7824538822
  0
ARC
  5
12A
330
1F
100
AcDbEntity
  8
0
  6
Continuous
 62
     7
370
    25
100
AcDbCircle
 10
-292.2711208096
 20
-190.3100709962
 30
0.0
 40
7.00000000000002
100
AcDbArc
 50
80.8400126132
 51
81.4861740959
  0
ARC
  5
12B
330
1F
100
AcDbEntity
  8
0
  6
Continuous
 62
     7
370
    25
100
AcDbCircle
 10
-290.9386882352
 20
-181.4092494928
 30
0.0
 40
1.999999999999974
100
AcDbArc
 50
164.7824538822
 51
261.4861740959
  0
LINE
  5
12C
330
1F
100
AcDbEntity
  8
0
  6
Continuous
 62
     7
370
    25
100
AcDbLine
 10
-290.7471637019
 20
-173.0856823464
 30
0.0
 11
-292.8685605493
 21
-180.8842801116
 31
0.0
  0
ARC
  5
12D
330
1F
100
AcDbEntity
  8
0
  6
Continuous
 62
     7
370
    25
100
AcDbCircle
 10
-288.8172913878
 20
-173.6106517277
 30
0.0
 40
2.000000000000004
100
AcDbArc
 50
74.7824538822
 51
164.7824538822
  0
LINE
  5
12E
330
1F
100
AcDbEntity
  8
0
  6
Continuous
 62
     7
370
    25
100
AcDbLine
 10
-280.4072758792
 20
-173.8256921915
 30
0.0
 11
-288.2923220066
 21
-171.6807794135
 31
0.0
  0
ARC
  5
12F
330
1F
100
AcDbEntity
  8
0
  6
Continuous
 62
     7
370
    25
100
AcDbCircle
 10
-280.9322452604
 20
-175.7555645056
 30
0.0
 40
2.000000000000004
100
AcDbArc
 50
299.7824538822
 51
74.7824538822
  0
LINE
  5
130
330
1F
100
AcDbEntity
  8
0
  6
Continuous
 62
     7
370
    25
100
AcDbLine
 10
-289.8449783958
 20
-183.1606771066
 30
0.0
 11
-279.9388288697
 21
-177.4913997151
 31
0.0
  0
ARC
  5
131
330
1F
100
AcDbEntity
  8
0
  6
Continuous
 62
     7
370
    25
100
AcDbCircle
 10
-308.1687055461
 20
-160.23401397
 30
0.0
 40
2.000000000000016
100
AcDbArc
 50
119.7824538822
 51
244.7824538822
  0
LINE
  5
132
330
1F
100
AcDbEntity
  8
0
  6
Continuous
 62
     7
370
    25
100
AcDbLine
 10
-296.7252023452
 20
-151.3805447216
 30
0.0
 11
-309.1621219368
 21
-158.4981787605
 31
0.0
  0
ARC
  5
133
330
1F
100
AcDbEntity
  8
0
  6
Continuous
 62
     7
370
    25
100
AcDbCircle
 10
-295.7317859544
 20
-153.1163799311
 30
0.0
 40
1.999999999999997
100
AcDbArc
 50
344.7824538822
 51
119.7824538822
  0
LINE
  5
134
330
1F
100
AcDbEntity
  8
0
  6
Continuous
 62
     7
370
    25
100
AcDbLine
 10
-296.9305231973
 20
-165.142623828
 30
0.0
 11
-293.8019136403
 21
-153.6413493124
 31
0.0
  0
ARC
  5
135
330
1F
100
AcDbEntity
  8
0
  6
Continuous
 62
     7
370
    25
100
AcDbCircle
 10
-298.8603955114
 20
-164.6176544468
 30
0.0
 40
1.999999999999992
100
AcDbArc
 50
244.7824538822
 51
344.7824538822
  0
LINE
  5
136
330
1F
100
AcDbEntity
  8
0
  6
Continuous
 62
     7
370
    25
100
AcDbLine
 10
-309.0208182733
 20
-162.0434072108
 30
0.0
 11
-299.7125082386
 21
-166.4270476877
 31
0.0
  0
ARC
  5
137
330
1F
100
AcDbEntity
  8
0
  6
Continuous
 62
     7
370
    25
100
AcDbCircle
 10
-290.2242345221
 20
-163.9008891027
 30
0.0
 40
2.000000000000042
100
AcDbArc
 50
153.7824538822
 51
254.7824538822
  0
LINE
  5
138
330
1F
100
AcDbEntity
  8
0
  6
Continuous
 62
     7
370
    25
100
AcDbLine
 10
-283.1398465149
 20
-144.9875004942
 30
0.0
 11
-292.018480766
 21
-163.0173278901
 31
0.0
  0
ARC
  5
139
330
1F
100
AcDbEntity
  8
0
  6
Continuous
 62
     7
370
    25
100
AcDbCircle
 10
-281.345600271
 20
-145.8710617067
 30
0.0
 40
2.000000000000318
100
AcDbArc
 50
59.7824538821
 51
153.7824538821
  0
LINE
  5
13A
330
1F
100
AcDbEntity
  8
0
  6
Continuous
 62
     7
370
    25
100
AcDbLine
 10
-271.0566342935
 20
-149.5491104145
 30
0.0
 11
-280.3390310782
 21
-144.1428202711
 31
0.0
  0
ARC
  5
13B
330
1F
100
AcDbEntity
  8
0
  6
Continuous
 62
     7
370
    25
100
AcDbCircle
 10
-272.0632034863
 20
-151.2773518502
 30
0.0
 40
2.000000000000187
100
AcDbArc
 50
329.7824538822
 51
59.7824538821
  0
LINE
  5
13C
330
1F
100
AcDbEntity
  8
0
  6
Continuous
 62
     7
370
    25
100
AcDbLine
 10
-279.1654714424
 20
-167.4455734537
 30
0.0
 11
-270.3349620506
 21
-152.283921043
 31
0.0
  0
ARC
  5
13D
330
1F
100
AcDbEntity
  8
0
  6
Continuous
 62
     7
370
    25
100
AcDbCircle
 10
-280.8937128781
 20
-166.4390042609
 30
0.0
 40
2.000000000000032
100
AcDbArc
 50
254.7824538822
 51
329.7824538822
  0
LINE
  5
13E
330
1F
100
AcDbEntity
  8
0
  6
Continuous
 62
     7
370
    25
100
AcDbLine
 10
-290.7492039033
 20
-165.8307614168
 30
0.0
 11
-281.4186822593
 21
-168.368876575
 31
0.0
  0
ARC
  5
13F
330
1F
100
AcDbEntity
  8
0
  6
Continuous
 62
     7
370
    25
100
AcDbCircle
 10
-318.9304985436
 20
-197.5019188975
 30
0.0
 40
2.000000000000012
100
AcDbArc
 50
205.7963464015
 51
299.7824538822
  0
ARC
  5
140
330
1F
100
AcDbEntity
  8
0
  6
Continuous
 62
     7
370
    25
100
AcDbCircle
 10
-327.0336172515
 20
-201.4184820856
 30
0.0
 40
7.000000000000028
100
AcDbArc
 50
25.7963464015
 51
37.9693761662
  0
ARC
  5
141
330
1F
100
AcDbEntity
  8
0
  6
Continuous
 62
     7
370
    25
100
AcDbCircle
 10
-319.9385599162
 20
-195.8813202306
 30
0.0
 40
2.000000000000029
100
AcDbArc
 50
182.2534504167
 51
217.9693761662
  0
ARC
  5
142
330
1F
100
AcDbEntity
  8
0
  6
Continuous
 62
     7
370
    25
100
AcDbCircle
 10
-343.92
 20
-196.825
 30
0.0
 40
22.00000000000005
100
AcDbArc
 50
2.2534504167
 51
7.2384710755
  0
ARC
  5
143
330
1F
100
AcDbEntity
  8
0
  6
Continuous
 62
     7
370
    25
100
AcDbCircle
 10
-320.1112722465
 20
-193.8010154167
 30
0.0
 40
1.999999999999955
100
AcDbArc
 50
154.7824538822
 51
187.2384710755
  0
LINE
  5
144
330
1F
100
AcDbEntity
  8
0
  6
Continuous
 62
     7
370
    25
100
AcDbLine
 10
-319.5203600188
 20
-187.8520459564
 30
0.0
 11
-321.9206654874
 21
-192.9489026895
 31
0.0
  0
ARC
  5
145
330
1F
100
AcDbEntity
  8
0
  6
Continuous
 62
     7
370
    25
100
AcDbCircle
 10
-317.7109667779
 20
-188.7041586836
 30
0.0
 40
1.999999999999942
100
AcDbArc
 50
84.7824538822
 51
154.7824538822
  0
LINE
  5
146
330
1F
100
AcDbEntity
  8
0
  6
Continuous
 62
     7
370
    25
100
AcDbLine
 10
-302.1650259337
 20
-188.1154291611
 30
0.0
 11
-317.5290916716
 21
-186.7124454899
 31
0.0
  0
ARC
  5
147
330
1F
100
AcDbEntity
  8
0
  6
Continuous
 62
     7
370
    25
100
AcDbCircle
 10
-302.2559634868
 20
-189.1112857579
 30
0.0
 40
0.9999999999999845
100
AcDbArc
 50
299.7824538822
 51
84.7824538822
  0
LINE
  5
148
330
1F
100
AcDbEntity
  8
0
  6
Continuous
 62
     7
370
    25
100
AcDbLine
 10
-317.9370821529
 20
-199.237754107
 30
0.0
 11
-301.7592552915
 21
-189.9792033627
 31
0.0
  0
ARC
  5
149
330
1F
100
AcDbEntity
  8
0
  6
Continuous
 62
     7
370
    25
100
AcDbCircle
 10
-239.4934467466
 20
-123.2356126358
 30
0.0
 40
2.000000000000005
100
AcDbArc
 50
119.7824538822
 51
147.0484983329
  0
LINE
  5
14A
330
1F
100
AcDbEntity
  8
0
  6
Continuous
 62
     7
370
    25
100
AcDbLine
 10
-227.198306143
 20
-113.8947523321
 30
0.0
 11
-240.4868631373
 21
-121.4997774263
 31
0.0
  0
ARC
  5
14B
330
1F
100
AcDbEntity
  8
0
  6
Continuous
 62
     7
370
    25
100
AcDbCircle
 10
-226.7015979477
 20
-114.7626699368
 30
0.0
 40
1.0
100
AcDbArc
 50
334.7824538822
 51
119.7824538822
  0
LINE
  5
14C
330
1F
100
AcDbEntity
  8
0
  6
Continuous
 62
     7
370
    25
100
AcDbLine
 10
-231.823804406
 20
-127.9863730744
 30
0.0
 11
-225.7969013272
 21
-115.1887263004
 31
0.0
  0
ARC
  5
14D
330
1F
100
AcDbEntity
  8
0
  6
Continuous
 62
     7
370
    25
100
AcDbCircle
 10
-233.6331976469
 20
-127.1342603472
 30
0.0
 40
2.000000000000003
100
AcDbArc
 50
239.7824538822
 51
334.7824538822
  0
LINE
  5
14E
330
1F
100
AcDbEntity
  8
0
  6
Continuous
 62
     7
370
    25
100
AcDbLine
 10
-241.7535642352
 20
-124.7192558483
 30
0.0
 11
-234.6397668397
 21
-128.8625017829
 31
0.0
  0
ARC
  5
14F
330
1F
100
AcDbEntity
  8
0
  6
Continuous
 62
     7
370
    25
100
AcDbCircle
 10
-241.2502796388
 20
-123.8551351305
 30
0.0
 40
1.000000000000002
100
AcDbArc
 50
136.420501905
 51
239.7824538822
  0
ARC
  5
150
330
1F
100
AcDbEntity
  8
0
  6
Continuous
 62
     7
370
    25
100
AcDbCircle
 10
-247.0456282683
 20
-118.3402521524
 30
0.0
 40
7.000000000000004
100
AcDbArc
 50
316.420501905
 51
327.0484983329
  0
ARC
  5
151
330
1F
100
AcDbEntity
  8
0
  6
Continuous
 62
     7
370
    25
100
AcDbCircle
 10
126.9878053723
 20
-14.5975105375
 30
0.0
 40
2.000000000000011
100
AcDbArc
 50
220.0
 51
290.0
  0
LINE
  5
152
330
1F
100
AcDbEntity
  8
0
  6
Continuous
 62
     7
370
    25
100
AcDbLine
 10
114.1985275756
 20
-2.4672904305
 30
0.0
 11
125.455716486
 21
-15.8830857569
 31
0.0
  0
ARC
  5
153
330
1F
100
AcDbEntity
  8
0
  6
Continuous
 62
     7
370
    25
100
AcDbCircle
 10
114.9645720188
 20
-1.8245028208
 30
0.0
 40
1.000000000000008
100
AcDbArc
 50
65.0
 51
220.0
  0
LINE
  5
154
330
1F
100
AcDbEntity
  8
0
  6
Continuous
 62
     7
370
    25
100
AcDbLine
 10
135.1355415343
 20
-10.1270024593
 30
0.0
 11
115.3871902805
 21
-0.9181950337
 31
0.0
  0
ARC
  5
155
330
1F
100
AcDbEntity
  8
0
  6
Continuous
 62
     7
370
    25
100
AcDbCircle
 10
134.2903050108
 20
-11.9396180334
 30
0.0
 40
2.000000000000002
100
AcDbArc
 50
290.0
 51
65.0
  0
LINE
  5
156
330
1F
100
AcDbEntity
  8
0
  6
Continuous
 62
     7
370
    25
100
AcDbLine
 10
127.6718456589
 20
-16.4768957791
 30
0.0
 11
134.9743452974
 21
-13.8190032749
 31
0.0
  0
ARC
  5
157
330
1F
100
AcDbEntity
  8
0
  6
Continuous
 62
     7
370
    25
100
AcDbCircle
 10
220.8589293475
 20
-46.9815327796
 30
0.0
 40
2.000000000000001
100
AcDbArc
 50
182.5
 51
267.5
  0
LINE
  5
158
330
1F
100
AcDbEntity
  8
0
  6
Continuous
 62
     7
370
    25
100
AcDbLine
 10
218.4909987192
 20
-38.5981760855
 30
0.0
 11
218.8608329044
 21
-47.0687715543
 31
0.0
  0
ARC
  5
159
330
1F
100
AcDbEntity
  8
0
  6
Continuous
 62
     7
370
    25
100
AcDbCircle
 10
220.4890951624
 20
-38.5109373108
 30
0.0
 40
2.0
100
AcDbArc
 50
117.5
 51
182.5
  0
LINE
  5
15A
330
1F
100
AcDbEntity
  8
0
  6
Continuous
 62
     7
370
    25
100
AcDbLine
 10
236.8999556868
 20
-27.7132201568
 30
0.0
 11
219.5655979359
 21
-36.7369156444
 31
0.0
  0
ARC
  5
15B
330
1F
100
AcDbEntity
  8
0
  6
Continuous
 62
     7
370
    25
100
AcDbCircle
 10
237.8234529133
 20
-29.4872418232
 30
0.0
 40
2.000000000000004
100
AcDbArc
 50
27.5
 51
117.5
  0
LINE
  5
15C
330
1F
100
AcDbEntity
  8
0
  6
Continuous
 62
     7
370
    25
100
AcDbLine
 10
249.310771487
 20
-47.2228143497
 30
0.0
 11
239.5974745796
 21
-28.5637445967
 31
0.0
  0
ARC
  5
15D
330
1F
100
AcDbEntity
  8
0
  6
Continuous
 62
     7
370
    25
100
AcDbCircle
 10
247.5367498206
 20
-48.1463115762
 30
0.0
 40
1.999999999999996
100
AcDbArc
 50
267.5
 51
27.5
  0
LINE
  5
15E
330
1F
100
AcDbEntity
  8
0
  6
Continuous
 62
     7
370
    25
100
AcDbLine
 10
220.7716905728
 20
-48.9796292228
 30
0.0
 11
247.4495110459
 21
-50.1444080194
 31
0.0
  0
ARC
  5
15F
330
1F
100
AcDbEntity
  8
0
  6
Continuous
 62
     7
370
    25
100
AcDbCircle
 10
139.8532155363
 20
-0.1897328666
 30
0.0
 40
1.000000000000006
100
AcDbArc
 50
85.0
 51
245.0
  0
LINE
  5
160
330
1F
100
AcDbEntity
  8
0
  6
Continuous
 62
     7
370
    25
100
AcDbLine
 10
145.3339030564
 20
0.3345889446
 30
0.0
 11
139.9403712791
 21
0.8064618315
 31
0.0
  0
ARC
  5
161
330
1F
100
AcDbEntity
  8
0
  6
Continuous
 62
     7
370
    25
100
AcDbCircle
 10
145.0724358282
 20
-2.6539951496
 30
0.0
 40
3.000000000000016
100
AcDbArc
 50
70.0
 51
85.0
  0
LINE
  5
162
330
1F
100
AcDbEntity
  8
0
  6
Continuous
 62
     7
370
    25
100
AcDbLine
 10
149.9487665778
 20
-1.2363010775
 30
0.0
 11
146.0984962582
 21
0.1650827127
 31
0.0
  0
ARC
  5
163
330
1F
100
AcDbEntity
  8
0
  6
Continuous
 62
     7
370
    25
100
AcDbCircle
 10
149.6067464344
 20
-2.1759936983
 30
0.0
 40
1.000000000000001
100
AcDbArc
 50
325.0
 51
70.0
  0
LINE
  5
164
330
1F
100
AcDbEntity
  8
0
  6
Continuous
 62
     7
370
    25
100
AcDbLine
 10
149.0735916565
 20
-4.6808644273
 30
0.0
 11
150.4258984787
 21
-2.7495701346
 31
0.0
  0
ARC
  5
165
330
1F
100
AcDbEntity
  8
0
  6
Continuous
 62
     7
370
    25
100
AcDbCircle
 10
148.2544396122
 20
-4.107287991
 30
0.0
 40
1.000000000000009
100
AcDbArc
 50
245.0
 51
325.0
  0
LINE
  5
166
330
1F
100
AcDbEntity
  8
0
  6
Continuous
 62
     7
370
    25
100
AcDbLine
 10
139.4305972746
 20
-1.0960406536
 30
0.0
 11
147.8318213504
 21
-5.013595778
 31
0.0
  0
ARC
  5
167
330
1F
100
AcDbEntity
  8
0
  6
Continuous
 62
     7
370
    25
100
AcDbCircle
 10
-231.5893153375
 20
-147.5166653951
 30
0.0
 40
2.000000000000299
100
AcDbArc
 50
179.7824538822
 51
299.7824538821
  0
LINE
  5
168
330
1F
100
AcDbEntity
  8
0
  6
Continuous
 62
     7
370
    25
100
AcDbLine
 10
-233.5719164584
 20
-142.9304950635
 30
0.0
 11
-233.5893009211
 21
-147.5090716213
 31
0.0
  0
ARC
  5
169
330
1F
100
AcDbEntity
  8
0
  6
Continuous
 62
     7
370
    25
100
AcDbCircle
 10
-231.5719308748
 20
-142.9380888373
 30
0.0
 40
1.999999999999958
100
AcDbArc
 50
118.241082313
 51
179.7824538822
  0
ARC
  5
16A
330
1F
100
AcDbEntity
  8
0
  6
Continuous
 62
     7
370
    25
100
AcDbCircle
 10
-220.6887320643
 20
-163.2002699551
 30
0.0
 40
24.99999999999997
100
AcDbArc
 50
78.4685165714
 51
118.241082313
  0
ARC
  5
16B
330
1F
100
AcDbEntity
  8
0
  6
Continuous
 62
     7
370
    25
100
AcDbCircle
 10
-215.8909793615
 20
-139.6847098087
 30
0.0
 40
0.999999999999995
100
AcDbArc
 50
299.7824538821
 51
78.4685165714
  0
LINE
  5
16C
330
1F
100
AcDbEntity
  8
0
  6
Continuous
 62
     7
370
    25
100
AcDbLine
 10
-230.5958989467
 20
-149.2525006046
 30
0.0
 11
-215.3942711662
 21
-140.5526274134
 31
0.0
  0
CIRCLE
  5
16D
330
1F
100
AcDbEntity
  8
0
  6
Continuous
 62
     7
370
    25
100
AcDbCircle
 10
-357.3649411661
 20
-227.5631856498
 30
0.0
 40
1.649999999999977
  0
CIRCLE
  5
16E
330
1F
100
AcDbEntity
  8
0
  6
Continuous
 62
     7
370
    25
100
AcDbCircle
 10
266.893987465
 20
-70.1714551273
 30
0.0
 40
1.649999999999977
  0
CIRCLE
  5
16F
330
1F
100
AcDbEntity
  8
0
  6
Continuous
 62
     7
370
    25
100
AcDbCircle
 10
-43.0849911513
 20
-1.6138262378
 30
0.0
 40
1.650000000000063
  0
CIRCLE
  5
170
330
1F
100
AcDbEntity
  8
0
  6
Continuous
 62
     7
370
    25
100
AcDbCircle
 10
-23.216663336
 20
-36.3305304279
 30
0.0
 40
1.649999999999988
  0
CIRCLE
  5
171
330
1F
100
AcDbEntity
  8
0
  6
Continuous
 62
     7
370
    25
100
AcDbCircle
 10
-70.9521315975
 20
-63.6494811739
 30
0.0
 40
1.649999999999991
  0
CIRCLE
  5
172
330
1F
100
AcDbEntity
  8
0
  6
Continuous
 62
     7
370
    25
100
AcDbCircle
 10
39.7935912557
 20
16.594908635
 30
0.0
 40
1.650000000000794
  0
CIRCLE
  5
173
330
1F
100
AcDbEntity
  8
0
  6
Continuous
 62
     7
370
    25
100
AcDbCircle
 10
-90.8204594127
 20
-28.9327769838
 30
0.0
 40
1.649999999999935
  0
CIRCLE
  5
174
330
1F
100
AcDbEntity
  8
0
  6
Continuous
 62
     7
370
    25
100
AcDbCircle
 10
202.7165712255
 20
-41.5241224837
 30
0.0
 40
1.650000000000006
  0
CIRCLE
  5
175
330
1F
100
AcDbEntity
  8
0
  6
Continuous
 62
     7
370
    25
100
AcDbCircle
 10
224.9393805463
 20
-8.2653379916
 30
0.0
 40
1.650000000000006
  0
CIRCLE
  5
176
330
1F
100
AcDbEntity
  8
0
  6
Continuous
 62
     7
370
    25
100
AcDbCircle
 10
231.4135541379
 20
-88.6413996567
 30
0.0
 40
1.650000000000006
  0
CIRCLE
  5
177
330
1F
100
AcDbEntity
  8
0
  6
Continuous
 62
     7
370
    25
100
AcDbCircle
 10
-118.6875998589
 20
-90.9684319199
 30
0.0
 40
1.649999999999977
  0
CIRCLE
  5
178
330
1F
100
AcDbEntity
  8
0
  6
Continuous
 62
     7
370
    25
100
AcDbCircle
 10
-329.4978007199
 20
-165.5275307137
 30
0.0
 40
1.650000000000091
  0
CIRCLE
  5
179
330
1F
100
AcDbEntity
  8
0
  6
Continuous
 62
     7
370
    25
100
AcDbCircle
 10
-377.2332689814
 20
-192.8464814596
 30
0.0
 40
1.649999999999977
  0
CIRCLE
  5
17A
330
1F
100
AcDbEntity
  8
0
  6
Continuous
 62
     7
370
    25
100
AcDbCircle
 10
-281.7623324585
 20
-138.2085799677
 30
0.0
 40
1.650000000000034
  0
CIRCLE
  5
17B
330
1F
100
AcDbEntity
  8
0
  6
Continuous
 62
     7
370
    25
100
AcDbCircle
 10
-166.4230681203
 20
-118.2873826659
 30
0.0
 40
1.649999999999977
  0
CIRCLE
  5
17C
330
1F
100
AcDbEntity
  8
0
  6
Continuous
 62
     7
370
    25
100
AcDbCircle
 10
-214.1585363818
 20
-145.6063334118
 30
0.0
 40
1.650000000000006
  0
CIRCLE
  5
17D
330
1F
100
AcDbEntity
  8
0
  6
Continuous
 62
     7
370
    25
100
AcDbCircle
 10
-261.8940046432
 20
-172.9252841578
 30
0.0
 40
1.649999999999977
  0
CIRCLE
  5
17E
330
1F
100
AcDbEntity
  8
0
  6
Continuous
 62
     7
370
    25
100
AcDbCircle
 10
-309.6294729047
 20
-200.2442349038
 30
0.0
 40
1.650000000000034
  0
CIRCLE
  5
17F
330
1F
100
AcDbEntity
  8
0
  6
Continuous
 62
     7
370
    25
100
AcDbCircle
 10
-234.026864197
 20
-110.8896292217
 30
0.0
 40
1.650000000000006
  0
CIRCLE
  5
180
330
1F
100
AcDbEntity
  8
0
  6
Continuous
 62
     7
370
    25
100
AcDbCircle
 10
-186.2913959356
 20
-83.5706784757
 30
0.0
 40
1.650000000000034
  0
CIRCLE
  5
181
330
1F
100
AcDbEntity
  8
0
  6
Continuous
 62
     7
370
    25
100
AcDbCircle
 10
-138.5559276742
 20
-56.2517277297
 30
0.0
 40
1.650000000000063
  0
CIRCLE
  5
182
330
1F
100
AcDbEntity
  8
0
  6
Continuous
 62
     7
370
    25
100
AcDbCircle
 10
36.3073615458
 20
-23.2528792887
 30
0.0
 40
1.650000000000794
  0
CIRCLE
  5
183
330
1F
100
AcDbEntity
  8
0
  6
Continuous
 62
     7
370
    25
100
AcDbCircle
 10
91.0980699409
 20
-28.0464451398
 30
0.0
 40
1.650000000000801
  0
CIRCLE
  5
184
330
1F
100
AcDbEntity
  8
0
  6
Continuous
 62
     7
370
    25
100
AcDbCircle
 10
145.8887783359
 20
-32.8400109909
 30
0.0
 40
1.650000000000745
  0
CIRCLE
  5
185
330
1F
100
AcDbEntity
  8
0
  6
Continuous
 62
     7
370
    25
100
AcDbCircle
 10
149.3750080458
 20
7.0077769328
 30
0.0
 40
1.650000000000716
  0
CIRCLE
  5
186
330
1F
100
AcDbEntity
  8
0
  6
Continuous
 62
     7
370
    25
100
AcDbCircle
 10
94.5842996508
 20
11.8013427839
 30
0.0
 40
1.650000000000801
  0
CIRCLE
  5
187
330
1F
100
AcDbEntity
  8
0
  6
Continuous
 62
     7
370
    25
100
AcDbCircle
 10
-327.0336172515
 20
-201.4184820856
 30
0.0
 40
1.649999999999977
  0
CIRCLE
  5
188
330
1F
100
AcDbEntity
  8
0
  6
Continuous
 62
     7
370
    25
100
AcDbCircle
 10
256.08
 20
-92.7115898897
 30
0.0
 40
9.58850000000001
  0
CIRCLE
  5
189
330
1F
100
AcDbEntity
  8
0
  6
Continuous
 62
     7
370
    25
100
AcDbCircle
 10
-6.5
 20
88.9125
 30
0.0
 40
1.649999999999999
  0
CIRCLE
  5
18A
330
1F
100
AcDbEntity
  8
0
  6
Continuous
 62
     7
370
    25
100
AcDbCircle
 10
-343.92
 20
-196.825
 30
0.0
 40
14.19999999999999
  0
ARC
  5
18B
330
1F
100
AcDbEntity
  8
0
  6
Continuous
 62
     7
370
    25
100
AcDbCircle
 10
37.0941202503
 20
36.9074784964
 30
0.0
 40
15.00000000000001
100
AcDbArc
 50
190.0
 51
265.0
  0
LINE
  5
18C
330
1F
100
AcDbEntity
  8
0
  6
Continuous
 62
     7
370
    25
100
AcDbLine
 10
22.3220039551
 20
34.3027558314
 30
0.0
 11
12.3100969127
 21
91.0831022208
 31
0.0
  0
ARC
  5
18D
330
1F
100
AcDbEntity
  8
0
  6
Continuous
 62
     7
370
    25
100
AcDbCircle
 10
0.0
 20
88.9125
 30
0.0
 40
12.5
100
AcDbArc
 50
10.0
 51
170.0
  0
LINE
  5
18E
330
1F
100
AcDbEntity
  8
0
  6
Continuous
 62
     7
370
    25
100
AcDbLine
 10
-12.3100969127
 20
91.0831022208
 30
0.0
 11
-24.6850387822
 21
20.9013193774
 31
0.0
  0
ARC
  5
18F
330
1F
100
AcDbEntity
  8
0
  6
Continuous
 62
     7
370
    25
100
AcDbCircle
 10
-39.4571550774
 20
23.5060420424
 30
0.0
 40
15.0
100
AcDbArc
 50
299.7824538822
 51
350.0
  0
LINE
  5
190
330
1F
100
AcDbEntity
  8
0
  6
Continuous
 62
     7
370
    25
100
AcDbLine
 10
-32.0065321466
 20
10.4872779711
 30
0.0
 11
-379.7168099583
 21
-188.5068934359
 31
0.0
  0
ARC
  5
191
330
1F
100
AcDbEntity
  8
0
  6
Continuous
 62
     7
370
    25
100
AcDbCircle
 10
-377.2332689814
 20
-192.8464814596
 30
0.0
 40
5.000000000000036
100
AcDbArc
 50
119.7824538822
 51
209.7824538822
  0
LINE
  5
192
330
1F
100
AcDbEntity
  8
0
  6
Continuous
 62
     7
370
    25
100
AcDbLine
 10
-381.5728570051
 20
-195.3300224365
 30
0.0
 11
-361.7045291899
 21
-230.0467266267
 31
0.0
  0
ARC
  5
193
330
1F
100
AcDbEntity
  8
0
  6
Continuous
 62
     7
370
    25
100
AcDbCircle
 10
-357.3649411661
 20
-227.5631856498
 30
0.0
 40
4.999999999999958
100
AcDbArc
 50
209.7824538822
 51
299.7824538822
  0
LINE
  5
194
330
1F
100
AcDbEntity
  8
0
  6
Continuous
 62
     7
370
    25
100
AcDbLine
 10
-354.8814001892
 20
-231.9027736735
 30
0.0
 11
-21.5626640764
 21
-41.1448641731
 31
0.0
  0
ARC
  5
195
330
1F
100
AcDbEntity
  8
0
  6
Continuous
 62
     7
370
    25
100
AcDbCircle
 10
28.1081554617
 20
-127.9366246484
 30
0.0
 40
100.0
100
AcDbArc
 50
85.0
 51
119.7824538822
  0
LINE
  5
196
330
1F
100
AcDbEntity
  8
0
  6
Continuous
 62
     7
370
    25
100
AcDbLine
 10
36.8237297365
 20
-28.3171548393
 30
0.0
 11
188.2283578036
 21
-41.5633434005
 31
0.0
  0
ARC
  5
197
330
1F
100
AcDbEntity
  8
0
  6
Continuous
 62
     7
370
    25
100
AcDbCircle
 10
186.049464235
 20
-66.4682108528
 30
0.0
 40
25.00000000000001
100
AcDbArc
 50
27.5
 51
85.0
  0
LINE
  5
198
330
1F
100
AcDbEntity
  8
0
  6
Continuous
 62
     7
370
    25
100
AcDbLine
 10
208.2247350644
 20
-54.9244955219
 30
0.0
 11
233.9047291705
 21
-104.2553052205
 31
0.0
  0
ARC
  5
199
330
1F
100
AcDbEntity
  8
0
  6
Continuous
 62
     7
370
    25
100
AcDbCircle
 10
256.08
 20
-92.7115898897
 30
0.0
 40
25.00000000000006
100
AcDbArc
 50
207.5
 51
27.5
  0
LINE
  5
19A
330
1F
100
AcDbEntity
  8
0
  6
Continuous
 62
     7
370
    25
100
AcDbLine
 10
278.2552708295
 20
-81.1678745588
 30
0.0
 11
252.5752767233
 21
-31.8370648602
 31
0.0
  0
ARC
  5
19B
330
1F
100
AcDbEntity
  8
0
  6
Continuous
 62
     7
370
    25
100
AcDbCircle
 10
186.049464235
 20
-66.4682108528
 30
0.0
 40
74.99999999999997
100
AcDbArc
 50
27.5
 51
85.0
  0
LINE
  5
19C
330
1F
100
AcDbEntity
  8
0
  6
Continuous
 62
     7
370
    25
100
AcDbLine
 10
192.586144941
 20
8.2463915041
 30
0.0
 11
35.7867841091
 21
21.964558025
 31
0.0
  0
CIRCLE
  5
19D
330
1F
100
AcDbEntity
  8
0
  6
Continuous
 62
     7
370
    25
100
AcDbCircle
 10
0.0
 20
0.0
 30
0.0
 40
7.937500000000002
  0
CIRCLE
  5
19E
330
1F
100
AcDbEntity
  8
0
  6
Continuous
 62
     7
370
    25
100
AcDbCircle
 10
-360.8063827485
 20
-192.2315179144
 30
0.0
 40
1.649999999999977
  0
CIRCLE
  5
19F
330
1F
100
AcDbEntity
  8
0
  6
Continuous
 62
     7
370
    25
100
AcDbCircle
 10
6.5
 20
88.9125
 30
0.0
 40
1.649999999999999
  0
CIRCLE
  5
1A0
330
1F
100
AcDbEntity
  8
0
  6
Continuous
 62
     7
370
    25
100
AcDbCircle
 10
-339.3265179144
 20
-179.9386172515
 30
0.0
 40
1.64999999999992
  0
CIRCLE
  5
1A1
330
1F
100
AcDbEntity
  8
0
  6
Continuous
 62
     7
370
    25
100
AcDbCircle
 10
-348.5134820856
 20
-213.7113827485
 30
0.0
 40
1.649999999999977
  0
MTEXT
  5
1A3
330
1F
100
AcDbEntity
  8
0
  6
Continuous
 62
     7
100
AcDbMText
 10
-382.2332689814
 20
-233.5827520415
 30
0.0
 40
4.83362
 41
0.0
 71
     1
 72
     1
  1
SOLIDWORKS Educational Product.
  7
SLDTEXTSTYLE0
 73
     1
 44
1.0
  0
MTEXT
  5
1A4
330
1F
100
AcDbEntity
  8
0
  6
Continuous
 62
     7
100
AcDbMText
 10
-382.2332689814
 20
-240.8331820415
 30
0.0
 40
4.83362
 41
0.0
 71
     1
 72
     1
  1
For Instructional Use Only.
  7
SLDTEXTSTYLE0
 73
     1
 44
1.0
  0
ENDSEC
  0
SECTION
  2
OBJECTS
  0
DICTIONARY
  5
C
330
0
100
AcDbDictionary
281
     1
  3
ACAD_GROUP
350
D
  3
ACAD_LAYOUT
350
1A
  3
ACAD_MLINESTYLE
350
17
  3
ACAD_PLOTSETTINGS
350
19
  3
ACAD_PLOTSTYLENAME
350
E
  3
ACAD_SCALELIST
350
47
  3
DWGPROPS
350
1A5
  0
DICTIONARY
  5
D
102
{ACAD_REACTORS
330
C
102
}
330
C
100
AcDbDictionary
281
     1
  0
DICTIONARY
  5
1A
102
{ACAD_REACTORS
330
C
102
}
330
C
100
AcDbDictionary
281
     1
  3
Layout1
350
1E
  3
Layout2
350
26
  3
Model
350
22
  0
DICTIONARY
  5
17
102
{ACAD_REACTORS
330
C
102
}
330
C
100
AcDbDictionary
281
     1
  3
Standard
350
18
  0
DICTIONARY
  5
19
102
{ACAD_REACTORS
330
C
102
}
330
C
100
AcDbDictionary
281
     1
  0
ACDBDICTIONARYWDFLT
  5
E
102
{ACAD_REACTORS
330
C
102
}
330
C
100
AcDbDictionary
281
     1
  3
Normal
350
F
100
AcDbDictionaryWithDefault
340
F
  0
DICTIONARY
  5
47
102
{ACAD_REACTORS
330
C
102
}
330
C
100
AcDbDictionary
281
     1
  3
A0
350
48
  3
A1
350
49
  3
A2
350
4A
  3
A3
350
4B
  3
A4
350
4C
  3
A5
350
4D
  3
A6
350
4E
  3
A7
350
4F
  3
A8
350
50
  3
A9
350
51
  3
B0
350
52
  3
B1
350
53
  3
B2
350
54
  3
B3
350
55
  3
B4
350
56
  3
B5
350
57
  3
B6
350
58
  0
XRECORD
  5
1A5
102
{ACAD_REACTORS
330
C
102
}
330
C
100
AcDbXrecord
280
     1
  1
DWGPROPS COOKIE
  2

  3

  4

  6

  7

  8
andre
  9

300
=
301
=
302
=
303
=
304
=
305
=
306
=
307
=
308
=
309
=
 40
0.0
 41
2461076.204650058
 42
2461076.20467485
  1

 90
        0
  0
LAYOUT
  5
1E
102
{ACAD_REACTORS
330
1A
102
}
330
1A
100
AcDbPlotSettings
  1

  2
none_device
  4

  6

 40
0.0
 41
0.0
 42
0.0
 43
0.0
 44
0.0
 45
0.0
 46
0.0
 47
0.0
 48
0.0
 49
0.0
140
0.0
141
0.0
142
1.0
143
1.0
 70
   688
 72
     1
 73
     0
 74
     5
  7

 75
    16
147
1.0
148
0.0
149
0.0
100
AcDbLayout
  1
Layout1
 70
     1
 71
     1
 10
0.0
 20
0.0
 11
420.0
 21
297.0
 12
0.0
 22
0.0
 32
0.0
 14
1.0000000000E+20
 24
1.0000000000E+20
 34
1.0000000000E+20
 15
-1.0000000000E+20
 25
-1.0000000000E+20
 35
-1.0000000000E+20
146
0.0
 13
0.0
 23
0.0
 33
0.0
 16
1.0
 26
0.0
 36
0.0
 17
0.0
 27
1.0
 37
0.0
 76
     0
330
1B
  0
LAYOUT
  5
26
102
{ACAD_REACTORS
330
1A
102
}
330
1A
100
AcDbPlotSettings
  1

  2
none_device
  4

  6

 40
0.0
 41
0.0
 42
0.0
 43
0.0
 44
0.0
 45
0.0
 46
0.0
 47
0.0
 48
0.0
 49
0.0
140
0.0
141
0.0
142
1.0
143
1.0
 70
   688
 72
     1
 73
     0
 74
     5
  7

 75
    16
147
1.0
148
0.0
149
0.0
100
AcDbLayout
  1
Layout2
 70
     1
 71
     2
 10
0.0
 20
0.0
 11
0.0
 21
0.0
 12
0.0
 22
0.0
 32
0.0
 14
0.0
 24
0.0
 34
0.0
 15
0.0
 25
0.0
 35
0.0
146
0.0
 13
0.0
 23
0.0
 33
0.0
 16
1.0
 26
0.0
 36
0.0
 17
0.0
 27
1.0
 37
0.0
 76
     0
330
23
  0
LAYOUT
  5
22
102
{ACAD_REACTORS
330
1A
102
}
330
1A
100
AcDbPlotSettings
  1

  2
none_device
  4
ANSI_A_(11.00_x_8.50_Inches)
  6

 40
6.35
 41
19.05
 42
6.35000508
 43
19.05000254
 44
279.4
 45
215.9
 46
154.4407870072
 47
116.2453483945
 48
0.0
 49
0.0
140
0.0
141
0.0
142
0.016417582
143
1.0
 70
  1696
 72
     0
 73
     0
 74
     0
  7

 75
     0
147
0.0179189148
148
-1300.4909072572
149
0.0
100
AcDbLayout
  1
Model
 70
     1
 71
     0
 10
0.0
 20
0.0
 11
420.0
 21
297.0
 12
0.0
 22
0.0
 32
0.0
 14
-382.2332689814
 24
-232.5631856498
 34
0.0
 15
281.08
 25
101.4125
 35
0.0
146
0.0
 13
0.0
 23
0.0
 33
0.0
 16
1.0
 26
0.0
 36
0.0
 17
0.0
 27
1.0
 37
0.0
 76
     0
330
1F
331
29
  0
MLINESTYLE
  5
18
102
{ACAD_REACTORS
330
17
102
}
330
17
100
AcDbMlineStyle
  2
Standard
 70
     0
  3

 62
   256
 51
90.0
 52
90.0
 71
     2
 49
0.5
 62
   256
  6
BYLAYER
 49
-0.5
 62
   256
  6
BYLAYER
  0
ACDBPLACEHOLDER
  5
F
102
{ACAD_REACTORS
330
E
102
}
330
E
  0
SCALE
  5
48
102
{ACAD_REACTORS
330
47
102
}
330
47
100
AcDbScale
 70
     0
300
1:1
140
1.0
141
1.0
290
     1
  0
SCALE
  5
49
102
{ACAD_REACTORS
330
47
102
}
330
47
100
AcDbScale
 70
     0
300
1:2
140
1.0
141
2.0
290
     0
  0
SCALE
  5
4A
102
{ACAD_REACTORS
330
47
102
}
330
47
100
AcDbScale
 70
     0
300
1:4
140
1.0
141
4.0
290
     0
  0
SCALE
  5
4B
102
{ACAD_REACTORS
330
47
102
}
330
47
100
AcDbScale
 70
     0
300
1:5
140
1.0
141
5.0
290
     0
  0
SCALE
  5
4C
102
{ACAD_REACTORS
330
47
102
}
330
47
100
AcDbScale
 70
     0
300
1:8
140
1.0
141
8.0
290
     0
  0
SCALE
  5
4D
102
{ACAD_REACTORS
330
47
102
}
330
47
100
AcDbScale
 70
     0
300
1:10
140
1.0
141
10.0
290
     0
  0
SCALE
  5
4E
102
{ACAD_REACTORS
330
47
102
}
330
47
100
AcDbScale
 70
     0
300
1:16
140
1.0
141
16.0
290
     0
  0
SCALE
  5
4F
102
{ACAD_REACTORS
330
47
102
}
330
47
100
AcDbScale
 70
     0
300
1:20
140
1.0
141
20.0
290
     0
  0
SCALE
  5
50
102
{ACAD_REACTORS
330
47
102
}
330
47
100
AcDbScale
 70
     0
300
1:30
140
1.0
141
30.0
290
     0
  0
SCALE
  5
51
102
{ACAD_REACTORS
330
47
102
}
330
47
100
AcDbScale
 70
     0
300
1:40
140
1.0
141
40.0
290
     0
  0
SCALE
  5
52
102
{ACAD_REACTORS
330
47
102
}
330
47
100
AcDbScale
 70
     0
300
1:50
140
1.0
141
50.0
290
     0
  0
SCALE
  5
53
102
{ACAD_REACTORS
330
47
102
}
330
47
100
AcDbScale
 70
     0
300
1:100
140
1.0
141
100.0
290
     0
  0
SCALE
  5
54
102
{ACAD_REACTORS
330
47
102
}
330
47
100
AcDbScale
 70
     0
300
2:1
140
2.0
141
1.0
290
     0
  0
SCALE
  5
55
102
{ACAD_REACTORS
330
47
102
}
330
47
100
AcDbScale
 70
     0
300
4:1
140
4.0
141
1.0
290
     0
  0
SCALE
  5
56
102
{ACAD_REACTORS
330
47
102
}
330
47
100
AcDbScale
 70
     0
300
8:1
140
8.0
141
1.0
290
     0
  0
SCALE
  5
57
102
{ACAD_REACTORS
330
47
102
}
330
47
100
AcDbScale
 70
     0
300
10:1
140
10.0
141
1.0
290
     0
  0
SCALE
  5
58
102
{ACAD_REACTORS
330
47
102
}
330
47
100
AcDbScale
 70
     0
300
100:1
140
100.0
141
1.0
290
     0
  0
ENDSEC
  0
EOF
