  0
SECTION
  2
HEADER
  9
$ACADVER
  1
AC1015
  9
$ACADMAINTVER
 70
     6
  9
$DWGCODEPAGE
  3
ANSI_1252
  9
$INSBASE
 10
0.0
 20
0.0
 30
0.0
  9
$EXTMIN
 10
-30.0
 20
-390.0
 30
0.0
  9
$EXTMAX
 10
30.0
 20
390.0
 30
0.0
  9
$LIMMIN
 10
0.0
 20
0.0
  9
$LIMMAX
 10
420.0
 20
297.0
  9
$ORTHOMODE
 70
     0
  9
$REGENMODE
 70
     1
  9
$FILLMODE
 70
     1
  9
$QTEXTMODE
 70
     0
  9
$MIRRTEXT
 70
     1
  9
$LTSCALE
 40
1.0
  9
$ATTMODE
 70
     1
  9
$TEXTSIZE
 40
3.175
  9
$TRACEWID
 40
1.0
  9
$TEXTSTYLE
  7
Standard
  9
$CLAYER
  8
0
  9
$CELTYPE
  6
ByLayer
  9
$CECOLOR
 62
   256
  9
$CELTSCALE
 40
1.0
  9
$DISPSILH
 70
     0
  9
$DIMSCALE
 40
1.0
  9
$DIMASZ
 40
3.302
  9
$DIMEXO
 40
0.0
  9
$DIMDLI
 40
3.75
  9
$DIMRND
 40
0.0
  9
$DIMDLE
 40
0.0
  9
$DIMEXE
 40
3.175
  9
$DIMTP
 40
0.0
  9
$DIMTM
 40
0.0
  9
$DIMTXT
 40
3.175
  9
$DIMCEN
 40
2.5
  9
$DIMTSZ
 40
0.0
  9
$DIMTOL
 70
     0
  9
$DIMLIM
 70
     0
  9
$DIMTIH
 70
     1
  9
$DIMTOH
 70
     1
  9
$DIMSE1
 70
     0
  9
$DIMSE2
 70
     0
  9
$DIMTAD
 70
     0
  9
$DIMZIN
 70
     1
  9
$DIMBLK
  1

  9
$DIMASO
 70
     1
  9
$DIMSHO
 70
     1
  9
$DIMPOST
  1

  9
$DIMAPOST
  1

  9
$DIMALT
 70
     0
  9
$DIMALTD
 70
     3
  9
$DIMALTF
 40
0.0393700787
  9
$DIMLFAC
 40
1.0
  9
$DIMTOFL
 70
     1
  9
$DIMTVP
 40
0.0
  9
$DIMTIX
 70
     0
  9
$DIMSOXD
 70
     0
  9
$DIMSAH
 70
     0
  9
$DIMBLK1
  1

  9
$DIMBLK2
  1

  9
$DIMSTYLE
  2
ISO-25
  9
$DIMCLRD
 70
     0
  9
$DIMCLRE
 70
     0
  9
$DIMCLRT
 70
     0
  9
$DIMTFAC
 40
1.0
  9
$DIMGAP
 40
1.524
  9
$DIMJUST
 70
     0
  9
$DIMSD1
 70
     0
  9
$DIMSD2
 70
     0
  9
$DIMTOLJ
 70
     0
  9
$DIMTZIN
 70
     1
  9
$DIMALTZ
 70
     0
  9
$DIMALTTZ
 70
     0
  9
$DIMUPT
 70
     0
  9
$DIMDEC
 70
     2
  9
$DIMTDEC
 70
     2
  9
$DIMALTU
 70
     2
  9
$DIMALTTD
 70
     3
  9
$DIMTXSTY
  7
Standard
  9
$DIMAUNIT
 70
     0
  9
$DIMADEC
 70
     2
  9
$DIMALTRND
 40
0.0
  9
$DIMAZIN
 70
     0
  9
$DIMDSEP
 70
    44
  9
$DIMATFIT
 70
     3
  9
$DIMFRAC
 70
     0
  9
$DIMLDRBLK
  1

  9
$DIMLUNIT
 70
     2
  9
$DIMLWD
 70
    -2
  9
$DIMLWE
 70
    -2
  9
$DIMTMOVE
 70
     0
  9
$LUNITS
 70
     2
  9
$LUPREC
 70
     2
  9
$SKETCHINC
 40
1.0
  9
$FILLETRAD
 40
0.0
  9
$AUNITS
 70
     0
  9
$AUPREC
 70
     2
  9
$MENU
  1
.
  9
$ELEVATION
 40
0.0
  9
$PELEVATION
 40
0.0
  9
$THICKNESS
 40
0.0
  9
$LIMCHECK
 70
     0
  9
$CHAMFERA
 40
0.0
  9
$CHAMFERB
 40
0.0
  9
$CHAMFERC
 40
0.0
  9
$CHAMFERD
 40
0.0
  9
$SKPOLY
 70
     0
  9
$TDCREATE
 40
2460714.776540973
  9
$TDUCREATE
 40
2460715.109874306
  9
$TDUPDATE
 40
2460714.776932928
  9
$TDUUPDATE
 40
2460715.110266262
  9
$TDINDWG
 40
0.0000000116
  9
$TDUSRTIMER
 40
0.0000000116
  9
$USRTIMER
 70
     1
  9
$ANGBASE
 50
0.0
  9
$ANGDIR
 70
     0
  9
$PDMODE
 70
     0
  9
$PDSIZE
 40
-1.0
  9
$PLINEWID
 40
0.0
  9
$SPLFRAME
 70
     0
  9
$SPLINETYPE
 70
     6
  9
$SPLINESEGS
 70
     8
  9
$HANDSEED
  5
2A2
  9
$SURFTAB1
 70
     6
  9
$SURFTAB2
 70
     6
  9
$SURFTYPE
 70
     6
  9
$SURFU
 70
     6
  9
$SURFV
 70
     6
  9
$UCSBASE
  2

  9
$UCSNAME
  2

  9
$UCSORG
 10
0.0
 20
0.0
 30
0.0
  9
$UCSXDIR
 10
1.0
 20
0.0
 30
0.0
  9
$UCSYDIR
 10
0.0
 20
1.0
 30
0.0
  9
$UCSORTHOREF
  2

  9
$UCSORTHOVIEW
 70
     0
  9
$UCSORGTOP
 10
0.0
 20
0.0
 30
0.0
  9
$UCSORGBOTTOM
 10
0.0
 20
0.0
 30
0.0
  9
$UCSORGLEFT
 10
0.0
 20
0.0
 30
0.0
  9
$UCSORGRIGHT
 10
0.0
 20
0.0
 30
0.0
  9
$UCSORGFRONT
 10
0.0
 20
0.0
 30
0.0
  9
$UCSORGBACK
 10
0.0
 20
0.0
 30
0.0
  9
$PUCSBASE
  2

  9
$PUCSNAME
  2

  9
$PUCSORG
 10
0.0
 20
0.0
 30
0.0
  9
$PUCSXDIR
 10
1.0
 20
0.0
 30
0.0
  9
$PUCSYDIR
 10
0.0
 20
1.0
 30
0.0
  9
$PUCSORTHOREF
  2

  9
$PUCSORTHOVIEW
 70
     0
  9
$PUCSORGTOP
 10
0.0
 20
0.0
 30
0.0
  9
$PUCSORGBOTTOM
 10
0.0
 20
0.0
 30
0.0
  9
$PUCSORGLEFT
 10
0.0
 20
0.0
 30
0.0
  9
$PUCSORGRIGHT
 10
0.0
 20
0.0
 30
0.0
  9
$PUCSORGFRONT
 10
0.0
 20
0.0
 30
0.0
  9
$PUCSORGBACK
 10
0.0
 20
0.0
 30
0.0
  9
$USERI1
 70
     0
  9
$USERI2
 70
     0
  9
$USERI3
 70
     0
  9
$USERI4
 70
     0
  9
$USERI5
 70
     0
  9
$USERR1
 40
0.0
  9
$USERR2
 40
0.0
  9
$USERR3
 40
0.0
  9
$USERR4
 40
0.0
  9
$USERR5
 40
0.0
  9
$WORLDVIEW
 70
     1
  9
$SHADEDGE
 70
     3
  9
$SHADEDIF
 70
    70
  9
$TILEMODE
 70
     1
  9
$MAXACTVP
 70
    64
  9
$PINSBASE
 10
0.0
 20
0.0
 30
0.0
  9
$PLIMCHECK
 70
     0
  9
$PEXTMIN
 10
1.0000000000E+20
 20
1.0000000000E+20
 30
1.0000000000E+20
  9
$PEXTMAX
 10
-1.0000000000E+20
 20
-1.0000000000E+20
 30
-1.0000000000E+20
  9
$PLIMMIN
 10
0.0
 20
0.0
  9
$PLIMMAX
 10
420.0
 20
297.0
  9
$UNITMODE
 70
     0
  9
$VISRETAIN
 70
     1
  9
$PLINEGEN
 70
     0
  9
$PSLTSCALE
 70
     1
  9
$TREEDEPTH
 70
  3020
  9
$CMLSTYLE
  2
Standard
  9
$CMLJUST
 70
     0
  9
$CMLSCALE
 40
20.0
  9
$PROXYGRAPHICS
 70
     1
  9
$MEASUREMENT
 70
     1
  9
$CELWEIGHT
370
    -1
  9
$ENDCAPS
280
     0
  9
$JOINSTYLE
280
     0
  9
$LWDISPLAY
290
     1
  9
$INSUNITS
 70
     4
  9
$HYPERLINKBASE
  1

  9
$STYLESHEET
  1

  9
$XEDIT
290
     1
  9
$CEPSNTYPE
380
     0
  9
$PSTYLEMODE
290
     1
  9
$FINGERPRINTGUID
  2
{aa80c07d-ba41-44fb-a8e1-8c6219e8bc84}
  9
$VERSIONGUID
  2
{FAEB1C32-E019-11D5-929B-00C0DF256EC4}
  9
$EXTNAMES
290
     1
  9
$PSVPSCALE
 40
0.0
  9
$OLESTARTUP
290
     0
  0
ENDSEC
  0
SECTION
  2
CLASSES
  0
CLASS
  1
ACDBDICTIONARYWDFLT
  2
AcDbDictionaryWithDefault
  3
ObjectDBX Classes
 90
        0
280
     0
281
     0
  0
CLASS
  1
VISUALSTYLE
  2
AcDbVisualStyle
  3
ObjectDBX Classes
 90
     4095
280
     0
281
     0
  0
CLASS
  1
MATERIAL
  2
AcDbMaterial
  3
ObjectDBX Classes
 90
     1153
280
     0
281
     0
  0
CLASS
  1
SCALE
  2
AcDbScale
  3
ObjectDBX Classes
 90
     1153
280
     0
281
     0
  0
CLASS
  1
TABLESTYLE
  2
AcDbTableStyle
  3
ObjectDBX Classes
 90
     4095
280
     0
281
     0
  0
CLASS
  1
MLEADERSTYLE
  2
AcDbMLeaderStyle
  3
ACDB_MLEADERSTYLE_CLASS
 90
     4095
280
     0
281
     0
  0
CLASS
  1
SUN
  2
AcDbSun
  3
SCENEOE
 90
     1153
280
     0
281
     0
  0
CLASS
  1
ACDBPLACEHOLDER
  2
AcDbPlaceHolder
  3
ObjectDBX Classes
 90
        0
280
     0
281
     0
  0
CLASS
  1
LAYOUT
  2
AcDbLayout
  3
ObjectDBX Classes
 90
        0
280
     0
281
     0
  0
ENDSEC
  0
SECTION
  2
TABLES
  0
TABLE
  2
VPORT
  5
8
330
0
100
AcDbSymbolTable
 70
     1
  0
VPORT
  5
29
330
8
100
AcDbSymbolTableRecord
100
AcDbViewportTableRecord
  2
*Active
 70
     0
 10
0.0
 20
0.0
 11
1.0
 21
1.0
 12
0.0
 22
0.0
 13
0.0
 23
0.0
 14
10.0
 24
10.0
 15
10.0
 25
10.0
 16
0.0
 26
0.0
 36
1.0
 17
0.0
 27
0.0
 37
0.0
 40
795.6
 41
0.0769230769
 42
50.0
 43
0.0
 44
0.0
 50
0.0
 51
0.0
 71
     0
 72
   100
 73
     1
 74
     3
 75
     0
 76
     0
 77
     0
 78
     0
281
     0
 65
     1
110
0.0
120
0.0
130
0.0
111
1.0
121
0.0
131
0.0
112
0.0
122
1.0
132
0.0
 79
     0
146
0.0
  0
ENDTAB
  0
TABLE
  2
LTYPE
  5
5
330
0
100
AcDbSymbolTable
 70
     6
  0
LTYPE
  5
14
330
5
100
AcDbSymbolTableRecord
100
AcDbLinetypeTableRecord
  2
ByBlock
 70
     0
  3

 72
    65
 73
     0
 40
0.0
  0
LTYPE
  5
15
330
5
100
AcDbSymbolTableRecord
100
AcDbLinetypeTableRecord
  2
ByLayer
 70
     0
  3

 72
    65
 73
     0
 40
0.0
  0
LTYPE
  5
16
330
5
100
AcDbSymbolTableRecord
100
AcDbLinetypeTableRecord
  2
Continuous
 70
     0
  3
Solid line
 72
    65
 73
     0
 40
0.0
  0
LTYPE
  5
5E
330
5
100
AcDbSymbolTableRecord
100
AcDbLinetypeTableRecord
  2
HIDDEN
 70
     0
  3
Hidden __ __ __ __ __ __ __ __ __ __ __ __ __ __
 72
    65
 73
     2
 40
1.905
 49
1.27
 74
     0
 49
-0.635
 74
     0
  0
LTYPE
  5
5F
330
5
100
AcDbSymbolTableRecord
100
AcDbLinetypeTableRecord
  2
PHANTOM
 70
     0
  3
Phantom ______  __  __  ______  __  __  ______
 72
    65
 73
     6
 40
12.7
 49
6.35
 74
     0
 49
-1.27
 74
     0
 49
1.27
 74
     0
 49
-1.27
 74
     0
 49
1.27
 74
     0
 49
-1.27
 74
     0
  0
LTYPE
  5
60
330
5
100
AcDbSymbolTableRecord
100
AcDbLinetypeTableRecord
  2
CENTER
 70
     0
  3
Center ____ _ ____ _ ____ _ ____ _ ____ _ ____
 72
    65
 73
     4
 40
10.16
 49
6.35
 74
     0
 49
-1.27
 74
     0
 49
1.27
 74
     0
 49
-1.27
 74
     0
  0
LTYPE
  5
61
330
5
100
AcDbSymbolTableRecord
100
AcDbLinetypeTableRecord
  2
CENTERX2
 70
     0
  3
Center (2x) ________  __  ________  __  _____
 72
    65
 73
     4
 40
20.32
 49
12.7
 74
     0
 49
-2.54
 74
     0
 49
2.54
 74
     0
 49
-2.54
 74
     0
  0
LTYPE
  5
62
330
5
100
AcDbSymbolTableRecord
100
AcDbLinetypeTableRecord
  2
DOT2
 70
     0
  3
Dot (.5x) ........................................
 72
    65
 73
     2
 40
0.635
 49
0.0
 74
     0
 49
-0.635
 74
     0
  0
ENDTAB
  0
TABLE
  2
LAYER
  5
2
330
0
100
AcDbSymbolTable
 70
     1
  0
LAYER
  5
10
330
2
100
AcDbSymbolTableRecord
100
AcDbLayerTableRecord
  2
0
 70
     0
 62
     7
  6
Continuous
370
    -3
390
F
  0
ENDTAB
  0
TABLE
  2
STYLE
  5
3
330
0
100
AcDbSymbolTable
 70
     2
  0
STYLE
  5
11
330
3
100
AcDbSymbolTableRecord
100
AcDbTextStyleTableRecord
  2
Standard
 70
     0
 40
0.0
 41
1.0
 50
0.0
 71
     0
 42
3.175
  3
txt
  4

  0
STYLE
  5
29E
330
3
100
AcDbSymbolTableRecord
100
AcDbTextStyleTableRecord
  2
SLDTEXTSTYLE0
 70
     0
 40
0.0
 41
0.7
 50
0.0
 71
     0
 42
3.175
  3
TXT
  4

  0
ENDTAB
  0
TABLE
  2
VIEW
  5
6
330
0
100
AcDbSymbolTable
 70
     0
  0
ENDTAB
  0
TABLE
  2
UCS
  5
7
330
0
100
AcDbSymbolTable
 70
     0
  0
ENDTAB
  0
TABLE
  2
APPID
  5
9
330
0
100
AcDbSymbolTable
 70
     1
  0
APPID
  5
12
330
9
100
AcDbSymbolTableRecord
100
AcDbRegAppTableRecord
  2
ACAD
 70
     0
  0
ENDTAB
  0
TABLE
  2
DIMSTYLE
  5
A
330
0
100
AcDbSymbolTable
 70
     1
100
AcDbDimStyleTable
  0
DIMSTYLE
105
27
330
A
100
AcDbSymbolTableRecord
100
AcDbDimStyleTableRecord
  2
ISO-25
 70
     0
 41
2.5
 42
0.625
 43
3.75
 44
1.25
 73
     0
 74
     0
 77
     1
 78
     8
140
2.5
141
2.5
143
0.0393700787
147
0.625
171
     3
172
     1
178
     0
271
     2
272
     2
274
     3
278
    44
283
     0
284
     8
340
11
  0
ENDTAB
  0
TABLE
  2
BLOCK_RECORD
  5
1
330
0
100
AcDbSymbolTable
 70
     1
  0
BLOCK_RECORD
  5
1F
330
1
100
AcDbSymbolTableRecord
100
AcDbBlockTableRecord
  2
*Model_Space
340
22
  0
BLOCK_RECORD
  5
1B
330
1
100
AcDbSymbolTableRecord
100
AcDbBlockTableRecord
  2
*Paper_Space
340
1E
  0
BLOCK_RECORD
  5
23
330
1
100
AcDbSymbolTableRecord
100
AcDbBlockTableRecord
  2
*Paper_Space0
340
26
  0
ENDTAB
  0
ENDSEC
  0
SECTION
  2
BLOCKS
  0
BLOCK
  5
20
330
1F
100
AcDbEntity
  8
0
100
AcDbBlockBegin
  2
*Model_Space
 70
     0
 10
0.0
 20
0.0
 30
0.0
  3
*Model_Space
  1

  0
ENDBLK
  5
21
330
1F
100
AcDbEntity
  8
0
100
AcDbBlockEnd
  0
BLOCK
  5
1C
330
1B
100
AcDbEntity
 67
     1
  8
0
100
AcDbBlockBegin
  2
*Paper_Space
 70
     0
 10
0.0
 20
0.0
 30
0.0
  3
*Paper_Space
  1

  0
ENDBLK
  5
1D
330
1B
100
AcDbEntity
 67
     1
  8
0
100
AcDbBlockEnd
  0
BLOCK
  5
24
330
23
100
AcDbEntity
  8
0
100
AcDbBlockBegin
  2
*Paper_Space0
 70
     0
 10
0.0
 20
0.0
 30
0.0
  3
*Paper_Space0
  1

  0
ENDBLK
  5
25
330
23
100
AcDbEntity
  8
0
100
AcDbBlockEnd
  0
ENDSEC
  0
SECTION
  2
ENTITIES
  0
CIRCLE
  5
6C
330
1F
100
AcDbEntity
  8
0
  6
Continuous
 62
     7
370
    25
100
AcDbCircle
 10
0.0
 20
0.0
 30
0.0
 40
6.35
  0
CIRCLE
  5
6D
330
1F
100
AcDbEntity
  8
0
  6
Continuous
 62
     7
370
    25
100
AcDbCircle
 10
-13.0
 20
300.0
 30
0.0
 40
1.650000000000057
  0
CIRCLE
  5
6E
330
1F
100
AcDbEntity
  8
0
  6
Continuous
 62
     7
370
    25
100
AcDbCircle
 10
13.0
 20
300.0
 30
0.0
 40
1.650000000000055
  0
CIRCLE
  5
6F
330
1F
100
AcDbEntity
  8
0
  6
Continuous
 62
     7
370
    25
100
AcDbCircle
 10
13.0
 20
-300.0
 30
0.0
 40
1.650000000000054
  0
CIRCLE
  5
70
330
1F
100
AcDbEntity
  8
0
  6
Continuous
 62
     7
370
    25
100
AcDbCircle
 10
-13.0
 20
-300.0
 30
0.0
 40
1.650000000000057
  0
CIRCLE
  5
71
330
1F
100
AcDbEntity
  8
0
  6
Continuous
 62
     7
370
    25
100
AcDbCircle
 10
-19.4206877453
 20
19.4206877453
 30
0.0
 40
1.650000000000016
  0
CIRCLE
  5
72
330
1F
100
AcDbEntity
  8
0
  6
Continuous
 62
     7
370
    25
100
AcDbCircle
 10
19.4206877453
 20
19.4206877453
 30
0.0
 40
1.650000000000016
  0
CIRCLE
  5
73
330
1F
100
AcDbEntity
  8
0
  6
Continuous
 62
     7
370
    25
100
AcDbCircle
 10
16.125
 20
-206.25
 30
0.0
 40
1.650000000000045
  0
CIRCLE
  5
74
330
1F
100
AcDbEntity
  8
0
  6
Continuous
 62
     7
370
    25
100
AcDbCircle
 10
19.25
 20
112.5
 30
0.0
 40
1.650000000000023
  0
CIRCLE
  5
75
330
1F
100
AcDbEntity
  8
0
  6
Continuous
 62
     7
370
    25
100
AcDbCircle
 10
-19.25
 20
112.5
 30
0.0
 40
1.650000000000034
  0
CIRCLE
  5
76
330
1F
100
AcDbEntity
  8
0
  6
Continuous
 62
     7
370
    25
100
AcDbCircle
 10
16.125
 20
206.25
 30
0.0
 40
1.650000000000052
  0
CIRCLE
  5
77
330
1F
100
AcDbEntity
  8
0
  6
Continuous
 62
     7
370
    25
100
AcDbCircle
 10
0.0
 20
-375.0
 30
0.0
 40
3.174999999999903
  0
CIRCLE
  5
78
330
1F
100
AcDbEntity
  8
0
  6
Continuous
 62
     7
370
    25
100
AcDbCircle
 10
-19.25
 20
-112.5
 30
0.0
 40
1.650000000000034
  0
CIRCLE
  5
79
330
1F
100
AcDbEntity
  8
0
  6
Continuous
 62
     7
370
    25
100
AcDbCircle
 10
-16.125
 20
-206.25
 30
0.0
 40
1.650000000000043
  0
CIRCLE
  5
7A
330
1F
100
AcDbEntity
  8
0
  6
Continuous
 62
     7
370
    25
100
AcDbCircle
 10
19.25
 20
-112.5
 30
0.0
 40
1.650000000000023
  0
CIRCLE
  5
7B
330
1F
100
AcDbEntity
  8
0
  6
Continuous
 62
     7
370
    25
100
AcDbCircle
 10
19.4206877453
 20
-19.4206877453
 30
0.0
 40
1.65000000000002
  0
CIRCLE
  5
7C
330
1F
100
AcDbEntity
  8
0
  6
Continuous
 62
     7
370
    25
100
AcDbCircle
 10
-19.4206877453
 20
-19.4206877453
 30
0.0
 40
1.650000000000016
  0
CIRCLE
  5
7D
330
1F
100
AcDbEntity
  8
0
  6
Continuous
 62
     7
370
    25
100
AcDbCircle
 10
-7.0
 20
384.0
 30
0.0
 40
1.650000000000055
  0
CIRCLE
  5
7E
330
1F
100
AcDbEntity
  8
0
  6
Continuous
 62
     7
370
    25
100
AcDbCircle
 10
7.0
 20
384.0
 30
0.0
 40
1.650000000000056
  0
CIRCLE
  5
7F
330
1F
100
AcDbEntity
  8
0
  6
Continuous
 62
     7
370
    25
100
AcDbCircle
 10
7.0
 20
-384.0
 30
0.0
 40
1.650000000000056
  0
CIRCLE
  5
80
330
1F
100
AcDbEntity
  8
0
  6
Continuous
 62
     7
370
    25
100
AcDbCircle
 10
-7.0
 20
-384.0
 30
0.0
 40
1.650000000000056
  0
CIRCLE
  5
81
330
1F
100
AcDbEntity
  8
0
  6
Continuous
 62
     7
370
    25
100
AcDbCircle
 10
-16.125
 20
206.25
 30
0.0
 40
1.650000000000041
  0
CIRCLE
  5
82
330
1F
100
AcDbEntity
  8
0
  6
Continuous
 62
     7
370
    25
100
AcDbCircle
 10
0.0
 20
375.0
 30
0.0
 40
3.174999999999902
  0
LINE
  5
18C
330
1F
100
AcDbEntity
  8
0
  6
Continuous
 62
     7
370
    25
100
AcDbLine
 10
2.4916689802
 20
390.0
 30
0.0
 11
-2.4916689802
 21
390.0
 31
0.0
  0
LINE
  5
18D
330
1F
100
AcDbEntity
  8
0
  6
Continuous
 62
     7
370
    25
100
AcDbLine
 10
30.0
 20
0.0
 30
0.0
 11
17.4833425849
 21
375.4997224535
 31
0.0
  0
LINE
  5
18E
330
1F
100
AcDbEntity
  8
0
  6
Continuous
 62
     7
370
    25
100
AcDbLine
 10
17.4833425849
 20
-375.4997224535
 30
0.0
 11
30.0
 21
0.0
 31
0.0
  0
LINE
  5
18F
330
1F
100
AcDbEntity
  8
0
  6
Continuous
 62
     7
370
    25
100
AcDbLine
 10
-2.4916689802
 20
-390.0
 30
0.0
 11
2.4916689802
 21
-390.0
 31
0.0
  0
LINE
  5
190
330
1F
100
AcDbEntity
  8
0
  6
Continuous
 62
     7
370
    25
100
AcDbLine
 10
-17.4833425849
 20
375.4997224535
 30
0.0
 11
-30.0
 21
0.0
 31
0.0
  0
LINE
  5
191
330
1F
100
AcDbEntity
  8
0
  6
Continuous
 62
     7
370
    25
100
AcDbLine
 10
5.8567057367
 20
-245.1843180414
 30
0.0
 11
1.4790978427
 21
-241.8288927013
 31
0.0
  0
LINE
  5
192
330
1F
100
AcDbEntity
  8
0
  6
Continuous
 62
     7
370
    25
100
AcDbLine
 10
1.3267887151
 20
-241.6843765781
 30
0.0
 11
-5.6907901784
 21
-233.4614352555
 31
0.0
  0
LINE
  5
193
330
1F
100
AcDbEntity
  8
0
  6
Continuous
 62
     7
370
    25
100
AcDbLine
 10
-6.8425029509
 20
-233.1902237377
 30
0.0
 11
-8.9786203824
 21
-234.0978435963
 31
0.0
  0
LINE
  5
194
330
1F
100
AcDbEntity
  8
0
  6
Continuous
 62
     7
370
    25
100
AcDbLine
 10
-9.582900663
 20
-235.1146691316
 30
0.0
 11
-8.5818916111
 21
-245.4438445526
 31
0.0
  0
LINE
  5
195
330
1F
100
AcDbEntity
  8
0
  6
Continuous
 62
     7
370
    25
100
AcDbLine
 10
-8.5313743592
 20
-245.6749763799
 30
0.0
 11
-4.7187512549
 21
-256.6711393574
 31
0.0
  0
LINE
  5
196
330
1F
100
AcDbEntity
  8
0
  6
Continuous
 62
     7
370
    25
100
AcDbLine
 10
-3.0196417635
 20
-257.0000902336
 30
0.0
 11
6.0026485546
 21
-246.6345308856
 31
0.0
  0
LINE
  5
197
330
1F
100
AcDbEntity
  8
0
  6
Continuous
 62
     7
370
    25
100
AcDbLine
 10
11.3005717963
 20
-137.915408287
 30
0.0
 11
11.6535470634
 21
-125.953468681
 31
0.0
  0
LINE
  5
198
330
1F
100
AcDbEntity
  8
0
  6
Continuous
 62
     7
370
    25
100
AcDbLine
 10
9.9207369894
 20
-125.244008956
 30
0.0
 11
4.6653274575
 21
-130.911222966
 31
0.0
  0
LINE
  5
199
330
1F
100
AcDbEntity
  8
0
  6
Continuous
 62
     7
370
    25
100
AcDbLine
 10
4.6096175918
 20
-132.2056382849
 30
0.0
 11
9.5120518566
 21
-138.5003638809
 31
0.0
  0
LINE
  5
19A
330
1F
100
AcDbEntity
  8
0
  6
Continuous
 62
     7
370
    25
100
AcDbLine
 10
-5.7029751695
 20
-138.979079647
 30
0.0
 11
-6.1305124333
 21
-135.5199145128
 31
0.0
  0
LINE
  5
19B
330
1F
100
AcDbEntity
  8
0
  6
Continuous
 62
     7
370
    25
100
AcDbLine
 10
-6.3602579082
 20
-134.9958277991
 30
0.0
 11
-7.8300874097
 21
-133.2624759419
 31
0.0
  0
LINE
  5
19C
330
1F
100
AcDbEntity
  8
0
  6
Continuous
 62
     7
370
    25
100
AcDbLine
 10
-9.5925556665
 20
-133.9308915669
 30
0.0
 11
-9.4666651432
 21
-139.7398399987
 31
0.0
  0
LINE
  5
19D
330
1F
100
AcDbEntity
  8
0
  6
Continuous
 62
     7
370
    25
100
AcDbLine
 10
-8.1382528612
 20
-140.6626260786
 30
0.0
 11
-6.3667766192
 21
-140.0461946381
 31
0.0
  0
LINE
  5
19E
330
1F
100
AcDbEntity
  8
0
  6
Continuous
 62
     7
370
    25
100
AcDbLine
 10
5.1984082388
 20
-168.9781597474
 30
0.0
 11
11.8863513359
 21
-153.825057905
 31
0.0
  0
LINE
  5
19F
330
1F
100
AcDbEntity
  8
0
  6
Continuous
 62
     7
370
    25
100
AcDbLine
 10
11.6761993153
 20
-152.7117776718
 30
0.0
 11
0.7321369001
 21
-141.8417023372
 31
0.0
  0
LINE
  5
1A0
330
1F
100
AcDbEntity
  8
0
  6
Continuous
 62
     7
370
    25
100
AcDbLine
 10
-0.7038431811
 20
-141.8691212828
 30
0.0
 11
-8.5612917611
 21
-150.2932702636
 31
0.0
  0
LINE
  5
1A1
330
1F
100
AcDbEntity
  8
0
  6
Continuous
 62
     7
370
    25
100
AcDbLine
 10
-8.8220995842
 20
-151.100932501
 30
0.0
 11
-7.8903375033
 21
-158.4618529403
 31
0.0
  0
LINE
  5
1A2
330
1F
100
AcDbEntity
  8
0
  6
Continuous
 62
     7
370
    25
100
AcDbLine
 10
-7.6962867485
 20
-158.9388868768
 30
0.0
 11
-0.9781591692
 21
-167.8356010548
 31
0.0
  0
LINE
  5
1A3
330
1F
100
AcDbEntity
  8
0
  6
Continuous
 62
     7
370
    25
100
AcDbLine
 10
-0.4679250822
 20
-168.1906778778
 30
0.0
 11
3.9957531557
 21
-169.5320714568
 31
0.0
  0
LINE
  5
1A4
330
1F
100
AcDbEntity
  8
0
  6
Continuous
 62
     7
370
    25
100
AcDbLine
 10
-6.1292090351
 20
-180.4874367581
 30
0.0
 11
-7.4076397984
 21
-178.3441090399
 31
0.0
  0
LINE
  5
1A5
330
1F
100
AcDbEntity
  8
0
  6
Continuous
 62
     7
370
    25
100
AcDbLine
 10
-9.2658071532
 20
-178.8200437898
 30
0.0
 11
-9.3720600741
 21
-181.7427634055
 31
0.0
  0
LINE
  5
1A6
330
1F
100
AcDbEntity
  8
0
  6
Continuous
 62
     7
370
    25
100
AcDbLine
 10
-7.8822164707
 20
-182.6505326081
 30
0.0
 11
-6.4975327865
 21
-181.8711407106
 31
0.0
  0
LINE
  5
1A7
330
1F
100
AcDbEntity
  8
0
  6
Continuous
 62
     7
370
    25
100
AcDbLine
 10
9.1745880092
 20
-185.4398284236
 30
0.0
 11
9.4734236613
 21
-181.4108395935
 31
0.0
  0
LINE
  5
1A8
330
1F
100
AcDbEntity
  8
0
  6
Continuous
 62
     7
370
    25
100
AcDbLine
 10
7.8232967372
 20
-180.5793982566
 30
0.0
 11
5.2990679809
 21
-182.7550317546
 31
0.0
  0
LINE
  5
1A9
330
1F
100
AcDbEntity
  8
0
  6
Continuous
 62
     7
370
    25
100
AcDbLine
 10
5.3119820229
 20
-184.2809195513
 30
0.0
 11
7.5373751271
 21
-186.1342748833
 31
0.0
  0
LINE
  5
1AA
330
1F
100
AcDbEntity
  8
0
  6
Continuous
 62
     7
370
    25
100
AcDbLine
 10
-4.9067149302
 20
-208.6030492355
 30
0.0
 11
-1.0469055362
 21
-213.9283704291
 31
0.0
  0
LINE
  5
1AB
330
1F
100
AcDbEntity
  8
0
  6
Continuous
 62
     7
370
    25
100
AcDbLine
 10
0.4450290259
 20
-214.0726278381
 30
0.0
 11
6.1416540916
 21
-208.7567965284
 31
0.0
  0
LINE
  5
1AC
330
1F
100
AcDbEntity
  8
0
  6
Continuous
 62
     7
370
    25
100
AcDbLine
 10
6.4489757287
 20
-208.1697288208
 30
0.0
 11
8.4075937566
 21
-194.7150096587
 31
0.0
  0
LINE
  5
1AD
330
1F
100
AcDbEntity
  8
0
  6
Continuous
 62
     7
370
    25
100
AcDbLine
 10
8.041405278
 20
-193.7890390661
 30
0.0
 11
0.5945648614
 21
-187.8520688861
 31
0.0
  0
LINE
  5
1AE
330
1F
100
AcDbEntity
  8
0
  6
Continuous
 62
     7
370
    25
100
AcDbLine
 10
-0.6156797418
 20
-187.8243005092
 30
0.0
 11
-8.3562094059
 21
-193.4346605281
 31
0.0
  0
LINE
  5
1AF
330
1F
100
AcDbEntity
  8
0
  6
Continuous
 62
     7
370
    25
100
AcDbLine
 10
-8.7693463305
 20
-194.2443467209
 30
0.0
 11
-8.7693463305
 21
-199.70292112
 31
0.0
  0
LINE
  5
1B0
330
1F
100
AcDbEntity
  8
0
  6
Continuous
 62
     7
370
    25
100
AcDbLine
 10
-8.6840730199
 20
-200.1069942366
 30
0.0
 11
-5.0117554269
 21
-208.4202592768
 31
0.0
  0
LINE
  5
1B1
330
1F
100
AcDbEntity
  8
0
  6
Continuous
 62
     7
370
    25
100
AcDbLine
 10
13.254199403
 20
37.8750407501
 30
0.0
 11
13.254199403
 21
46.9557493457
 31
0.0
  0
LINE
  5
1B2
330
1F
100
AcDbEntity
  8
0
  6
Continuous
 62
     7
370
    25
100
AcDbLine
 10
11.620376792
 20
47.7292277862
 30
0.0
 11
6.5330358884
 21
43.5604345457
 31
0.0
  0
LINE
  5
1B3
330
1F
100
AcDbEntity
  8
0
  6
Continuous
 62
     7
370
    25
100
AcDbLine
 10
6.4722639857
 20
42.0675546447
 30
0.0
 11
11.5596048893
 21
37.1556392895
 31
0.0
  0
LINE
  5
1B4
330
1F
100
AcDbEntity
  8
0
  6
Continuous
 62
     7
370
    25
100
AcDbLine
 10
-16.2630440913
 20
63.9425889731
 30
0.0
 11
-15.58111852
 21
49.1165167973
 31
0.0
  0
LINE
  5
1B5
330
1F
100
AcDbEntity
  8
0
  6
Continuous
 62
     7
370
    25
100
AcDbLine
 10
-15.5719798668
 20
49.0200358455
 30
0.0
 11
-13.386275322
 21
33.8303897607
 31
0.0
  0
LINE
  5
1B6
330
1F
100
AcDbEntity
  8
0
  6
Continuous
 62
     7
370
    25
100
AcDbLine
 10
-12.968368286
 20
33.152492574
 30
0.0
 11
-11.9591463679
 21
32.4489025301
 31
0.0
  0
LINE
  5
1B7
330
1F
100
AcDbEntity
  8
0
  6
Continuous
 62
     7
370
    25
100
AcDbLine
 10
-10.4522796022
 20
32.9144965039
 30
0.0
 11
-5.0128109866
 21
47.2513816408
 31
0.0
  0
LINE
  5
1B8
330
1F
100
AcDbEntity
  8
0
  6
Continuous
 62
     7
370
    25
100
AcDbLine
 10
-4.8981670252
 20
47.4685492406
 30
0.0
 11
3.5153568375
 21
59.5368165006
 31
0.0
  0
LINE
  5
1B9
330
1F
100
AcDbEntity
  8
0
  6
Continuous
 62
     7
370
    25
100
AcDbLine
 10
2.8746853867
 20
61.0924447346
 30
0.0
 11
-4.9409267268
 21
62.5197664762
 31
0.0
  0
LINE
  5
1BA
330
1F
100
AcDbEntity
  8
0
  6
Continuous
 62
     7
370
    25
100
AcDbLine
 10
-4.9965835027
 20
62.5315761051
 30
0.0
 11
-15.028790273
 21
64.9604558136
 31
0.0
  0
LINE
  5
1BB
330
1F
100
AcDbEntity
  8
0
  6
Continuous
 62
     7
370
    25
100
AcDbLine
 10
-10.127315226
 20
-277.4887892133
 30
0.0
 11
-9.8026255911
 21
-280.7239329444
 31
0.0
  0
LINE
  5
1BC
330
1F
100
AcDbEntity
  8
0
  6
Continuous
 62
     7
370
    25
100
AcDbLine
 10
-8.3371861764
 20
-281.506504356
 30
0.0
 11
-6.6905418013
 21
-280.6286539064
 31
0.0
  0
LINE
  5
1BD
330
1F
100
AcDbEntity
  8
0
  6
Continuous
 62
     7
370
    25
100
AcDbLine
 10
-6.3938677179
 20
-279.1047078944
 30
0.0
 11
-8.365201728
 21
-276.7474146129
 31
0.0
  0
LINE
  5
1BE
330
1F
100
AcDbEntity
  8
0
  6
Continuous
 62
     7
370
    25
100
AcDbLine
 10
8.214053722
 20
-273.9985404116
 30
0.0
 11
5.7242655589
 21
-277.5355356133
 31
0.0
  0
LINE
  5
1BF
330
1F
100
AcDbEntity
  8
0
  6
Continuous
 62
     7
370
    25
100
AcDbLine
 10
5.8348790619
 20
-278.8182581837
 30
0.0
 11
8.1536946473
 21
-281.1370737691
 31
0.0
  0
LINE
  5
1C0
330
1F
100
AcDbEntity
  8
0
  6
Continuous
 62
     7
370
    25
100
AcDbLine
 10
9.8603754661
 20
-280.4591516313
 30
0.0
 11
10.0313480438
 21
-274.6033408443
 31
0.0
  0
LINE
  5
1C1
330
1F
100
AcDbEntity
  8
0
  6
Continuous
 62
     7
370
    25
100
AcDbLine
 10
5.7617094423
 20
-300.6722162276
 30
0.0
 11
8.26130378
 21
-293.6679398672
 31
0.0
  0
LINE
  5
1C2
330
1F
100
AcDbEntity
  8
0
  6
Continuous
 62
     7
370
    25
100
AcDbLine
 10
7.9769429743
 20
-292.5783475096
 30
0.0
 11
-0.5794531797
 21
-285.1123644041
 31
0.0
  0
LINE
  5
1C3
330
1F
100
AcDbEntity
  8
0
  6
Continuous
 62
     7
370
    25
100
AcDbLine
 10
-1.818907335
 20
-285.0526554807
 30
0.0
 11
-7.6186975337
 21
-289.2034712046
 31
0.0
  0
LINE
  5
1C4
330
1F
100
AcDbEntity
  8
0
  6
Continuous
 62
     7
370
    25
100
AcDbLine
 10
-8.0251579747
 20
-290.1682061634
 30
0.0
 11
-6.8636667001
 21
-297.744296977
 31
0.0
  0
LINE
  5
1C5
330
1F
100
AcDbEntity
  8
0
  6
Continuous
 62
     7
370
    25
100
AcDbLine
 10
-6.7077416313
 20
-298.1467432069
 30
0.0
 11
-2.0110659688
 21
-305.2048759064
 31
0.0
  0
LINE
  5
1C6
330
1F
100
AcDbEntity
  8
0
  6
Continuous
 62
     7
370
    25
100
AcDbLine
 10
-0.5945993871
 20
-305.4626866118
 30
0.0
 11
5.403825691
 21
-301.1479068407
 31
0.0
  0
LINE
  5
1C7
330
1F
100
AcDbEntity
  8
0
  6
Continuous
 62
     7
370
    25
100
AcDbLine
 10
7.4851750849
 20
-340.9196165416
 30
0.0
 11
2.4164738016
 21
-346.5069488808
 31
0.0
  0
LINE
  5
1C8
330
1F
100
AcDbEntity
  8
0
  6
Continuous
 62
     7
370
    25
100
AcDbLine
 10
2.4852224505
 20
-347.9194904282
 30
0.0
 11
7.3942036508
 21
-352.3728069305
 31
0.0
  0
LINE
  5
1C9
330
1F
100
AcDbEntity
  8
0
  6
Continuous
 62
     7
370
    25
100
AcDbLine
 10
9.0659736023
 20
-351.6480671669
 30
0.0
 11
9.2256936853
 21
-341.6074183254
 31
0.0
  0
LINE
  5
1CA
330
1F
100
AcDbEntity
  8
0
  6
Continuous
 62
     7
370
    25
100
AcDbLine
 10
-15.4254635902
 20
-77.9343437897
 30
0.0
 11
-8.4218448622
 21
-114.9794782595
 31
0.0
  0
LINE
  5
1CB
330
1F
100
AcDbEntity
  8
0
  6
Continuous
 62
     7
370
    25
100
AcDbLine
 10
-8.1969165451
 20
-115.4463553697
 30
0.0
 11
-1.546451805
 21
-123.167009838
 31
0.0
  0
LINE
  5
1CC
330
1F
100
AcDbEntity
  8
0
  6
Continuous
 62
     7
370
    25
100
AcDbLine
 10
-0.0246474347
 20
-123.1594191325
 30
0.0
 11
10.3558136903
 21
-110.8625651844
 31
0.0
  0
LINE
  5
1CD
330
1F
100
AcDbEntity
  8
0
  6
Continuous
 62
     7
370
    25
100
AcDbLine
 10
10.5882034243
 20
-110.3007672626
 30
0.0
 11
14.2157119896
 21
-66.8805300356
 31
0.0
  0
LINE
  5
1CE
330
1F
100
AcDbEntity
  8
0
  6
Continuous
 62
     7
370
    25
100
AcDbLine
 10
12.851084643
 20
-65.8674892791
 30
0.0
 11
-14.8109685154
 21
-76.8187915161
 31
0.0
  0
LINE
  5
1CF
330
1F
100
AcDbEntity
  8
0
  6
Continuous
 62
     7
370
    25
100
AcDbLine
 10
-11.9591463679
 20
-32.4489025301
 30
0.0
 11
-12.968368286
 21
-33.152492574
 31
0.0
  0
LINE
  5
1D0
330
1F
100
AcDbEntity
  8
0
  6
Continuous
 62
     7
370
    25
100
AcDbLine
 10
-13.386275322
 20
-33.8303897607
 30
0.0
 11
-15.5719798668
 21
-49.0200358455
 31
0.0
  0
LINE
  5
1D1
330
1F
100
AcDbEntity
  8
0
  6
Continuous
 62
     7
370
    25
100
AcDbLine
 10
-15.58111852
 20
-49.1165167973
 30
0.0
 11
-16.2630440913
 21
-63.9425889731
 31
0.0
  0
LINE
  5
1D2
330
1F
100
AcDbEntity
  8
0
  6
Continuous
 62
     7
370
    25
100
AcDbLine
 10
-15.028790273
 20
-64.9604558136
 30
0.0
 11
-4.9965835027
 21
-62.5315761051
 31
0.0
  0
LINE
  5
1D3
330
1F
100
AcDbEntity
  8
0
  6
Continuous
 62
     7
370
    25
100
AcDbLine
 10
-4.9409267268
 20
-62.5197664762
 30
0.0
 11
2.8746853867
 21
-61.0924447346
 31
0.0
  0
LINE
  5
1D4
330
1F
100
AcDbEntity
  8
0
  6
Continuous
 62
     7
370
    25
100
AcDbLine
 10
3.5153568375
 20
-59.5368165006
 30
0.0
 11
-4.8981670252
 21
-47.4685492406
 31
0.0
  0
LINE
  5
1D5
330
1F
100
AcDbEntity
  8
0
  6
Continuous
 62
     7
370
    25
100
AcDbLine
 10
-5.0128109866
 20
-47.2513816408
 30
0.0
 11
-10.4522796022
 21
-32.9144965039
 31
0.0
  0
LINE
  5
1D6
330
1F
100
AcDbEntity
  8
0
  6
Continuous
 62
     7
370
    25
100
AcDbLine
 10
11.5596048893
 20
-37.1556392895
 30
0.0
 11
6.4722639857
 21
-42.0675546447
 31
0.0
  0
LINE
  5
1D7
330
1F
100
AcDbEntity
  8
0
  6
Continuous
 62
     7
370
    25
100
AcDbLine
 10
6.5330358884
 20
-43.5604345457
 30
0.0
 11
11.620376792
 21
-47.7292277862
 31
0.0
  0
LINE
  5
1D8
330
1F
100
AcDbEntity
  8
0
  6
Continuous
 62
     7
370
    25
100
AcDbLine
 10
13.254199403
 20
-46.9557493457
 30
0.0
 11
13.254199403
 21
-37.8750407501
 31
0.0
  0
LINE
  5
1D9
330
1F
100
AcDbEntity
  8
0
  6
Continuous
 62
     7
370
    25
100
AcDbLine
 10
-5.5968416295
 20
-353.8724186963
 30
0.0
 11
-8.6924666215
 21
-356.7795274835
 31
0.0
  0
LINE
  5
1DA
330
1F
100
AcDbEntity
  8
0
  6
Continuous
 62
     7
370
    25
100
AcDbLine
 10
-8.8307278989
 20
-358.0767781398
 30
0.0
 11
-2.6417311626
 21
-367.0376879706
 31
0.0
  0
LINE
  5
1DB
330
1F
100
AcDbEntity
  8
0
  6
Continuous
 62
     7
370
    25
100
AcDbLine
 10
-1.1593200122
 20
-367.2210193806
 30
0.0
 11
4.4962635378
 21
-362.2579904634
 31
0.0
  0
LINE
  5
1DC
330
1F
100
AcDbEntity
  8
0
  6
Continuous
 62
     7
370
    25
100
AcDbLine
 10
4.4562055155
 20
-360.7213889892
 30
0.0
 11
-4.2927497788
 21
-353.8163992883
 31
0.0
  0
LINE
  5
1DD
330
1F
100
AcDbEntity
  8
0
  6
Continuous
 62
     7
370
    25
100
AcDbLine
 10
3.9957531557
 20
169.5320714568
 30
0.0
 11
-0.4679250822
 21
168.1906778778
 31
0.0
  0
LINE
  5
1DE
330
1F
100
AcDbEntity
  8
0
  6
Continuous
 62
     7
370
    25
100
AcDbLine
 10
-0.9781591692
 20
167.8356010548
 30
0.0
 11
-7.6962867485
 21
158.9388868768
 31
0.0
  0
LINE
  5
1DF
330
1F
100
AcDbEntity
  8
0
  6
Continuous
 62
     7
370
    25
100
AcDbLine
 10
-7.8903375033
 20
158.4618529403
 30
0.0
 11
-8.8220995842
 21
151.100932501
 31
0.0
  0
LINE
  5
1E0
330
1F
100
AcDbEntity
  8
0
  6
Continuous
 62
     7
370
    25
100
AcDbLine
 10
-8.5612917611
 20
150.2932702636
 30
0.0
 11
-0.7038431811
 21
141.8691212828
 31
0.0
  0
LINE
  5
1E1
330
1F
100
AcDbEntity
  8
0
  6
Continuous
 62
     7
370
    25
100
AcDbLine
 10
0.7321369001
 20
141.8417023372
 30
0.0
 11
11.6761993153
 21
152.7117776718
 31
0.0
  0
LINE
  5
1E2
330
1F
100
AcDbEntity
  8
0
  6
Continuous
 62
     7
370
    25
100
AcDbLine
 10
11.8863513359
 20
153.825057905
 30
0.0
 11
5.1984082388
 21
168.9781597474
 31
0.0
  0
LINE
  5
1E3
330
1F
100
AcDbEntity
  8
0
  6
Continuous
 62
     7
370
    25
100
AcDbLine
 10
4.6653274575
 20
130.911222966
 30
0.0
 11
9.9207369894
 21
125.244008956
 31
0.0
  0
LINE
  5
1E4
330
1F
100
AcDbEntity
  8
0
  6
Continuous
 62
     7
370
    25
100
AcDbLine
 10
11.6535470634
 20
125.953468681
 30
0.0
 11
11.3005717963
 21
137.915408287
 31
0.0
  0
LINE
  5
1E5
330
1F
100
AcDbEntity
  8
0
  6
Continuous
 62
     7
370
    25
100
AcDbLine
 10
9.5120518566
 20
138.5003638809
 30
0.0
 11
4.6096175918
 21
132.2056382849
 31
0.0
  0
LINE
  5
1E6
330
1F
100
AcDbEntity
  8
0
  6
Continuous
 62
     7
370
    25
100
AcDbLine
 10
-6.1305124333
 20
135.5199145128
 30
0.0
 11
-5.7029751695
 21
138.979079647
 31
0.0
  0
LINE
  5
1E7
330
1F
100
AcDbEntity
  8
0
  6
Continuous
 62
     7
370
    25
100
AcDbLine
 10
-6.3667766192
 20
140.0461946381
 30
0.0
 11
-8.1382528612
 21
140.6626260786
 31
0.0
  0
LINE
  5
1E8
330
1F
100
AcDbEntity
  8
0
  6
Continuous
 62
     7
370
    25
100
AcDbLine
 10
-9.4666651432
 20
139.7398399987
 30
0.0
 11
-9.5925556665
 21
133.9308915669
 31
0.0
  0
LINE
  5
1E9
330
1F
100
AcDbEntity
  8
0
  6
Continuous
 62
     7
370
    25
100
AcDbLine
 10
-7.8300874097
 20
133.2624759419
 30
0.0
 11
-6.3602579082
 21
134.9958277991
 31
0.0
  0
LINE
  5
1EA
330
1F
100
AcDbEntity
  8
0
  6
Continuous
 62
     7
370
    25
100
AcDbLine
 10
-1.546451805
 20
123.167009838
 30
0.0
 11
-8.1969165451
 21
115.4463553697
 31
0.0
  0
LINE
  5
1EB
330
1F
100
AcDbEntity
  8
0
  6
Continuous
 62
     7
370
    25
100
AcDbLine
 10
-8.4218448622
 20
114.9794782595
 30
0.0
 11
-15.4254635902
 21
77.9343437897
 31
0.0
  0
LINE
  5
1EC
330
1F
100
AcDbEntity
  8
0
  6
Continuous
 62
     7
370
    25
100
AcDbLine
 10
-14.8109685154
 20
76.8187915161
 30
0.0
 11
12.851084643
 21
65.8674892791
 31
0.0
  0
LINE
  5
1ED
330
1F
100
AcDbEntity
  8
0
  6
Continuous
 62
     7
370
    25
100
AcDbLine
 10
14.2157119896
 20
66.8805300356
 30
0.0
 11
10.5882034243
 21
110.3007672626
 31
0.0
  0
LINE
  5
1EE
330
1F
100
AcDbEntity
  8
0
  6
Continuous
 62
     7
370
    25
100
AcDbLine
 10
10.3558136903
 20
110.8625651844
 30
0.0
 11
-0.0246474347
 21
123.1594191325
 31
0.0
  0
LINE
  5
1EF
330
1F
100
AcDbEntity
  8
0
  6
Continuous
 62
     7
370
    25
100
AcDbLine
 10
-6.4975327865
 20
181.8711407106
 30
0.0
 11
-7.8822164707
 21
182.6505326081
 31
0.0
  0
LINE
  5
1F0
330
1F
100
AcDbEntity
  8
0
  6
Continuous
 62
     7
370
    25
100
AcDbLine
 10
-9.3720600741
 20
181.7427634055
 30
0.0
 11
-9.2658071532
 21
178.8200437898
 31
0.0
  0
LINE
  5
1F1
330
1F
100
AcDbEntity
  8
0
  6
Continuous
 62
     7
370
    25
100
AcDbLine
 10
-7.4076397984
 20
178.3441090399
 30
0.0
 11
-6.1292090351
 21
180.4874367581
 31
0.0
  0
LINE
  5
1F2
330
1F
100
AcDbEntity
  8
0
  6
Continuous
 62
     7
370
    25
100
AcDbLine
 10
9.4734236613
 20
181.4108395935
 30
0.0
 11
9.1745880092
 21
185.4398284236
 31
0.0
  0
LINE
  5
1F3
330
1F
100
AcDbEntity
  8
0
  6
Continuous
 62
     7
370
    25
100
AcDbLine
 10
7.5373751271
 20
186.1342748833
 30
0.0
 11
5.3119820229
 21
184.2809195513
 31
0.0
  0
LINE
  5
1F4
330
1F
100
AcDbEntity
  8
0
  6
Continuous
 62
     7
370
    25
100
AcDbLine
 10
5.2990679809
 20
182.7550317546
 30
0.0
 11
7.8232967372
 21
180.5793982566
 31
0.0
  0
LINE
  5
1F5
330
1F
100
AcDbEntity
  8
0
  6
Continuous
 62
     7
370
    25
100
AcDbLine
 10
-1.0469055362
 20
213.9283704291
 30
0.0
 11
-4.9067149302
 21
208.6030492355
 31
0.0
  0
LINE
  5
1F6
330
1F
100
AcDbEntity
  8
0
  6
Continuous
 62
     7
370
    25
100
AcDbLine
 10
-5.0117554269
 20
208.4202592768
 30
0.0
 11
-8.6840730199
 21
200.1069942366
 31
0.0
  0
LINE
  5
1F7
330
1F
100
AcDbEntity
  8
0
  6
Continuous
 62
     7
370
    25
100
AcDbLine
 10
-8.7693463305
 20
199.70292112
 30
0.0
 11
-8.7693463305
 21
194.2443467209
 31
0.0
  0
LINE
  5
1F8
330
1F
100
AcDbEntity
  8
0
  6
Continuous
 62
     7
370
    25
100
AcDbLine
 10
-8.3562094059
 20
193.4346605281
 30
0.0
 11
-0.6156797418
 21
187.8243005092
 31
0.0
  0
LINE
  5
1F9
330
1F
100
AcDbEntity
  8
0
  6
Continuous
 62
     7
370
    25
100
AcDbLine
 10
0.5945648614
 20
187.8520688861
 30
0.0
 11
8.041405278
 21
193.7890390661
 31
0.0
  0
LINE
  5
1FA
330
1F
100
AcDbEntity
  8
0
  6
Continuous
 62
     7
370
    25
100
AcDbLine
 10
8.4075937566
 20
194.7150096587
 30
0.0
 11
6.4489757287
 21
208.1697288208
 31
0.0
  0
LINE
  5
1FB
330
1F
100
AcDbEntity
  8
0
  6
Continuous
 62
     7
370
    25
100
AcDbLine
 10
6.1416540916
 20
208.7567965284
 30
0.0
 11
0.4450290259
 21
214.0726278381
 31
0.0
  0
LINE
  5
1FC
330
1F
100
AcDbEntity
  8
0
  6
Continuous
 62
     7
370
    25
100
AcDbLine
 10
1.4790978427
 20
241.8288927013
 30
0.0
 11
5.8567057367
 21
245.1843180414
 31
0.0
  0
LINE
  5
1FD
330
1F
100
AcDbEntity
  8
0
  6
Continuous
 62
     7
370
    25
100
AcDbLine
 10
6.0026485546
 20
246.6345308856
 30
0.0
 11
-3.0196417635
 21
257.0000902336
 31
0.0
  0
LINE
  5
1FE
330
1F
100
AcDbEntity
  8
0
  6
Continuous
 62
     7
370
    25
100
AcDbLine
 10
-4.7187512549
 20
256.6711393574
 30
0.0
 11
-8.5313743592
 21
245.6749763799
 31
0.0
  0
LINE
  5
1FF
330
1F
100
AcDbEntity
  8
0
  6
Continuous
 62
     7
370
    25
100
AcDbLine
 10
-8.5818916111
 20
245.4438445526
 30
0.0
 11
-9.582900663
 21
235.1146691316
 31
0.0
  0
LINE
  5
200
330
1F
100
AcDbEntity
  8
0
  6
Continuous
 62
     7
370
    25
100
AcDbLine
 10
-8.9786203824
 20
234.0978435963
 30
0.0
 11
-6.8425029509
 21
233.1902237377
 31
0.0
  0
LINE
  5
201
330
1F
100
AcDbEntity
  8
0
  6
Continuous
 62
     7
370
    25
100
AcDbLine
 10
-5.6907901784
 20
233.4614352555
 30
0.0
 11
1.3267887151
 21
241.6843765781
 31
0.0
  0
LINE
  5
202
330
1F
100
AcDbEntity
  8
0
  6
Continuous
 62
     7
370
    25
100
AcDbLine
 10
2.4164738016
 20
346.5069488808
 30
0.0
 11
7.4851750849
 21
340.9196165416
 31
0.0
  0
LINE
  5
203
330
1F
100
AcDbEntity
  8
0
  6
Continuous
 62
     7
370
    25
100
AcDbLine
 10
9.2256936853
 20
341.6074183254
 30
0.0
 11
9.0659736023
 21
351.6480671669
 31
0.0
  0
LINE
  5
204
330
1F
100
AcDbEntity
  8
0
  6
Continuous
 62
     7
370
    25
100
AcDbLine
 10
7.3942036508
 20
352.3728069305
 30
0.0
 11
2.4852224505
 21
347.9194904282
 31
0.0
  0
LINE
  5
205
330
1F
100
AcDbEntity
  8
0
  6
Continuous
 62
     7
370
    25
100
AcDbLine
 10
-8.6924666215
 20
356.7795274835
 30
0.0
 11
-5.5968416295
 21
353.8724186963
 31
0.0
  0
LINE
  5
206
330
1F
100
AcDbEntity
  8
0
  6
Continuous
 62
     7
370
    25
100
AcDbLine
 10
-4.2927497788
 20
353.8163992883
 30
0.0
 11
4.4562055155
 21
360.7213889892
 31
0.0
  0
LINE
  5
207
330
1F
100
AcDbEntity
  8
0
  6
Continuous
 62
     7
370
    25
100
AcDbLine
 10
4.4962635378
 20
362.2579904634
 30
0.0
 11
-1.1593200122
 21
367.2210193806
 31
0.0
  0
LINE
  5
208
330
1F
100
AcDbEntity
  8
0
  6
Continuous
 62
     7
370
    25
100
AcDbLine
 10
-2.6417311626
 20
367.0376879706
 30
0.0
 11
-8.8307278989
 21
358.0767781398
 31
0.0
  0
LINE
  5
209
330
1F
100
AcDbEntity
  8
0
  6
Continuous
 62
     7
370
    25
100
AcDbLine
 10
8.26130378
 20
293.6679398672
 30
0.0
 11
5.7617094423
 21
300.6722162276
 31
0.0
  0
LINE
  5
20A
330
1F
100
AcDbEntity
  8
0
  6
Continuous
 62
     7
370
    25
100
AcDbLine
 10
5.403825691
 20
301.1479068407
 30
0.0
 11
-0.5945993871
 21
305.4626866118
 31
0.0
  0
LINE
  5
20B
330
1F
100
AcDbEntity
  8
0
  6
Continuous
 62
     7
370
    25
100
AcDbLine
 10
-2.0110659688
 20
305.2048759064
 30
0.0
 11
-6.7077416313
 21
298.1467432069
 31
0.0
  0
LINE
  5
20C
330
1F
100
AcDbEntity
  8
0
  6
Continuous
 62
     7
370
    25
100
AcDbLine
 10
-6.8636667001
 20
297.744296977
 30
0.0
 11
-8.0251579747
 21
290.1682061634
 31
0.0
  0
LINE
  5
20D
330
1F
100
AcDbEntity
  8
0
  6
Continuous
 62
     7
370
    25
100
AcDbLine
 10
-7.6186975337
 20
289.2034712046
 30
0.0
 11
-1.818907335
 21
285.0526554807
 31
0.0
  0
LINE
  5
20E
330
1F
100
AcDbEntity
  8
0
  6
Continuous
 62
     7
370
    25
100
AcDbLine
 10
-0.5794531797
 20
285.1123644041
 30
0.0
 11
7.9769429743
 21
292.5783475096
 31
0.0
  0
LINE
  5
20F
330
1F
100
AcDbEntity
  8
0
  6
Continuous
 62
     7
370
    25
100
AcDbLine
 10
5.7242655589
 20
277.5355356133
 30
0.0
 11
8.214053722
 21
273.9985404116
 31
0.0
  0
LINE
  5
210
330
1F
100
AcDbEntity
  8
0
  6
Continuous
 62
     7
370
    25
100
AcDbLine
 10
10.0313480438
 20
274.6033408443
 30
0.0
 11
9.8603754661
 21
280.4591516313
 31
0.0
  0
LINE
  5
211
330
1F
100
AcDbEntity
  8
0
  6
Continuous
 62
     7
370
    25
100
AcDbLine
 10
8.1536946473
 20
281.1370737691
 30
0.0
 11
5.8348790619
 21
278.8182581837
 31
0.0
  0
LINE
  5
212
330
1F
100
AcDbEntity
  8
0
  6
Continuous
 62
     7
370
    25
100
AcDbLine
 10
-8.365201728
 20
276.7474146129
 30
0.0
 11
-6.3938677179
 21
279.1047078944
 31
0.0
  0
LINE
  5
213
330
1F
100
AcDbEntity
  8
0
  6
Continuous
 62
     7
370
    25
100
AcDbLine
 10
-6.6905418013
 20
280.6286539064
 30
0.0
 11
-8.3371861764
 21
281.506504356
 31
0.0
  0
LINE
  5
214
330
1F
100
AcDbEntity
  8
0
  6
Continuous
 62
     7
370
    25
100
AcDbLine
 10
-9.8026255911
 20
280.7239329444
 30
0.0
 11
-10.127315226
 21
277.4887892133
 31
0.0
  0
LINE
  5
215
330
1F
100
AcDbEntity
  8
0
  6
Continuous
 62
     7
370
    25
100
AcDbLine
 10
-30.0
 20
0.0
 30
0.0
 11
-17.4833425849
 21
-375.4997224535
 31
0.0
  0
ARC
  5
216
330
1F
100
AcDbEntity
  8
0
  6
Continuous
 62
     7
370
    25
100
AcDbCircle
 10
-2.4916689802
 20
375.0
 30
0.0
 40
15.00000000000017
100
AcDbArc
 50
90.0
 51
178.090847567
  0
ARC
  5
217
330
1F
100
AcDbEntity
  8
0
  6
Continuous
 62
     7
370
    25
100
AcDbCircle
 10
2.4916689802
 20
375.0
 30
0.0
 40
14.99999999999989
100
AcDbArc
 50
1.909152433
 51
90.0
  0
ARC
  5
218
330
1F
100
AcDbEntity
  8
0
  6
Continuous
 62
     7
370
    25
100
AcDbCircle
 10
2.4916689802
 20
-375.0
 30
0.0
 40
14.99999999999994
100
AcDbArc
 50
270.0
 51
358.090847567
  0
ARC
  5
219
330
1F
100
AcDbEntity
  8
0
  6
Continuous
 62
     7
370
    25
100
AcDbCircle
 10
-2.4916689802
 20
-375.0
 30
0.0
 40
15.00000000000006
100
AcDbArc
 50
181.909152433
 51
270.0
  0
ARC
  5
21A
330
1F
100
AcDbEntity
  8
0
  6
Continuous
 62
     7
370
    25
100
AcDbCircle
 10
2.0874448037
 20
-241.0352215004
 30
0.0
 40
0.9999999999987155
100
AcDbArc
 50
220.4779286012
 51
232.5299267777
  0
ARC
  5
21B
330
1F
100
AcDbEntity
  8
0
  6
Continuous
 62
     7
370
    25
100
AcDbCircle
 10
-6.451446267
 20
-234.1105903332
 30
0.0
 40
1.000000000000093
100
AcDbArc
 50
40.4779286012
 51
113.0202653486
  0
ARC
  5
21C
330
1F
100
AcDbEntity
  8
0
  6
Continuous
 62
     7
370
    25
100
AcDbCircle
 10
-8.5875636985
 20
-235.0182101917
 30
0.0
 40
0.9999999999999919
100
AcDbArc
 50
113.0202653486
 51
185.5352965916
  0
ARC
  5
21D
330
1F
100
AcDbEntity
  8
0
  6
Continuous
 62
     7
370
    25
100
AcDbCircle
 10
-7.5865546466
 20
-245.3473856127
 30
0.0
 40
0.9999999999995577
100
AcDbArc
 50
185.5352965916
 51
199.1226099344
  0
ARC
  5
21E
330
1F
100
AcDbEntity
  8
0
  6
Continuous
 62
     7
370
    25
100
AcDbCircle
 10
-3.7739315423
 20
-256.3435485902
 30
0.0
 40
1.00000000000003
100
AcDbArc
 50
199.1226099344
 51
318.9633508569
  0
ARC
  5
21F
330
1F
100
AcDbEntity
  8
0
  6
Continuous
 62
     7
370
    25
100
AcDbCircle
 10
5.2483587757
 20
-245.9779892422
 30
0.0
 40
1.000000000000071
100
AcDbArc
 50
318.963350857
 51
52.5299267777
  0
ARC
  5
220
330
1F
100
AcDbEntity
  8
0
  6
Continuous
 62
     7
370
    25
100
AcDbCircle
 10
10.6539821461
 20
-125.9239733228
 30
0.0
 40
1.000000000000002
100
AcDbArc
 50
358.3097953257
 51
137.1591413974
  0
ARC
  5
221
330
1F
100
AcDbEntity
  8
0
  6
Continuous
 62
     7
370
    25
100
AcDbCircle
 10
5.3985726143
 20
-131.5911873328
 30
0.0
 40
0.9999999999999961
100
AcDbArc
 50
137.1591413974
 51
217.9120363165
  0
ARC
  5
222
330
1F
100
AcDbEntity
  8
0
  6
Continuous
 62
     7
370
    25
100
AcDbCircle
 10
10.301006879
 20
-137.8859129288
 30
0.0
 40
1.000000000000011
100
AcDbArc
 50
217.9120363165
 51
358.3097953257
  0
ARC
  5
223
330
1F
100
AcDbEntity
  8
0
  6
Continuous
 62
     7
370
    25
100
AcDbCircle
 10
-7.1229609164
 20
-135.6425766849
 30
0.0
 40
1.000000000000037
100
AcDbArc
 50
7.0457691249
 51
40.2969279129
  0
ARC
  5
224
330
1F
100
AcDbEntity
  8
0
  6
Continuous
 62
     7
370
    25
100
AcDbCircle
 10
-8.5927904179
 20
-133.9092248277
 30
0.0
 40
1.000000000000003
100
AcDbArc
 50
40.2969279129
 51
181.2415098585
  0
ARC
  5
225
330
1F
100
AcDbEntity
  8
0
  6
Continuous
 62
     7
370
    25
100
AcDbCircle
 10
-8.4668998946
 20
-139.7181732595
 30
0.0
 40
1.00000000000001
100
AcDbArc
 50
181.2415098585
 51
289.1866764913
  0
ARC
  5
226
330
1F
100
AcDbEntity
  8
0
  6
Continuous
 62
     7
370
    25
100
AcDbCircle
 10
-6.6954236526
 20
-139.1017418191
 30
0.0
 40
0.9999999999999312
100
AcDbArc
 50
289.1866764913
 51
7.0457691249
  0
ARC
  5
227
330
1F
100
AcDbEntity
  8
0
  6
Continuous
 62
     7
370
    25
100
AcDbCircle
 10
10.9714948837
 20
-153.4212786684
 30
0.0
 40
0.9999999999999719
100
AcDbArc
 50
336.185349578
 51
45.194329533
  0
ARC
  5
228
330
1F
100
AcDbEntity
  8
0
  6
Continuous
 62
     7
370
    25
100
AcDbCircle
 10
0.0274324685
 20
-142.5512033338
 30
0.0
 40
1.000000000000002
100
AcDbArc
 50
45.194329533
 51
136.9934431275
  0
ARC
  5
229
330
1F
100
AcDbEntity
  8
0
  6
Continuous
 62
     7
370
    25
100
AcDbCircle
 10
-7.8300161115
 20
-150.9753523146
 30
0.0
 40
1.000000000000081
100
AcDbArc
 50
136.9934431275
 51
187.2142620392
  0
ARC
  5
22A
330
1F
100
AcDbEntity
  8
0
  6
Continuous
 62
     7
370
    25
100
AcDbCircle
 10
-6.8982540306
 20
-158.3362727539
 30
0.0
 40
0.999999999999818
100
AcDbArc
 50
187.2142620392
 51
217.0573507263
  0
ARC
  5
22B
330
1F
100
AcDbEntity
  8
0
  6
Continuous
 62
     7
370
    25
100
AcDbCircle
 10
-0.1801264513
 20
-167.2329869318
 30
0.0
 40
1.000000000000286
100
AcDbArc
 50
217.0573507263
 51
253.2737909297
  0
ARC
  5
22C
330
1F
100
AcDbEntity
  8
0
  6
Continuous
 62
     7
370
    25
100
AcDbCircle
 10
4.2835517866
 20
-168.5743805108
 30
0.0
 40
0.9999999999998909
100
AcDbArc
 50
253.2737909297
 51
336.185349578
  0
ARC
  5
22D
330
1F
100
AcDbEntity
  8
0
  6
Continuous
 62
     7
370
    25
100
AcDbCircle
 10
-8.2664673102
 20
-178.8563739177
 30
0.0
 40
0.9999999999999951
100
AcDbArc
 50
30.8148102147
 51
177.9179788315
  0
ARC
  5
22E
330
1F
100
AcDbEntity
  8
0
  6
Continuous
 62
     7
370
    25
100
AcDbCircle
 10
-8.3727202311
 20
-181.7790935333
 30
0.0
 40
1.000000000000009
100
AcDbArc
 50
177.9179788315
 51
299.3736976608
  0
ARC
  5
22F
330
1F
100
AcDbEntity
  8
0
  6
Continuous
 62
     7
370
    25
100
AcDbCircle
 10
-6.9880365469
 20
-180.9997016358
 30
0.0
 40
0.9999999999999667
100
AcDbArc
 50
299.3736976608
 51
30.8148102147
  0
ARC
  5
230
330
1F
100
AcDbEntity
  8
0
  6
Continuous
 62
     7
370
    25
100
AcDbCircle
 10
8.4761630602
 20
-181.3368714008
 30
0.0
 40
1.000000000000011
100
AcDbArc
 50
355.7580605802
 51
130.7580605802
  0
ARC
  5
231
330
1F
100
AcDbEntity
  8
0
  6
Continuous
 62
     7
370
    25
100
AcDbCircle
 10
5.951934304
 20
-183.5125048989
 30
0.0
 40
0.9999999999999731
100
AcDbArc
 50
130.7580605802
 51
230.2117386914
  0
ARC
  5
232
330
1F
100
AcDbEntity
  8
0
  6
Continuous
 62
     7
370
    25
100
AcDbCircle
 10
8.1773274081
 20
-185.3658602309
 30
0.0
 40
1.000000000000006
100
AcDbArc
 50
230.2117386914
 51
355.7580605802
  0
ARC
  5
233
330
1F
100
AcDbEntity
  8
0
  6
Continuous
 62
     7
370
    25
100
AcDbCircle
 10
-0.2372193434
 20
-213.3415073537
 30
0.0
 40
0.9999999999999942
100
AcDbArc
 50
215.9347170751
 51
313.0195893704
  0
ARC
  5
234
330
1F
100
AcDbEntity
  8
0
  6
Continuous
 62
     7
370
    25
100
AcDbCircle
 10
5.4594057223
 20
-208.0256760441
 30
0.0
 40
1.000000000000007
100
AcDbArc
 50
313.0195893704
 51
351.7175685627
  0
ARC
  5
235
330
1F
100
AcDbEntity
  8
0
  6
Continuous
 62
     7
370
    25
100
AcDbCircle
 10
7.4180237502
 20
-194.570956882
 30
0.0
 40
1.000000000000047
100
AcDbArc
 50
351.7175685627
 51
51.4365057524
  0
ARC
  5
236
330
1F
100
AcDbEntity
  8
0
  6
Continuous
 62
     7
370
    25
100
AcDbCircle
 10
-0.0288166664
 20
-188.6339867019
 30
0.0
 40
1.000000000000132
100
AcDbArc
 50
51.4365057524
 51
125.9347170751
  0
ARC
  5
237
330
1F
100
AcDbEntity
  8
0
  6
Continuous
 62
     7
370
    25
100
AcDbCircle
 10
-7.7693463305
 20
-194.2443467209
 30
0.0
 40
1.000000000000046
100
AcDbArc
 50
125.9347170751
 51
180.0
  0
ARC
  5
238
330
1F
100
AcDbEntity
  8
0
  6
Continuous
 62
     7
370
    25
100
AcDbCircle
 10
-7.7693463305
 20
-199.70292112
 30
0.0
 40
1.000000000000129
100
AcDbArc
 50
180.0
 51
203.8330568956
  0
ARC
  5
239
330
1F
100
AcDbEntity
  8
0
  6
Continuous
 62
     7
370
    25
100
AcDbCircle
 10
-4.0970287375
 20
-208.0161861601
 30
0.0
 40
1.000000000003211
100
AcDbArc
 50
203.8330568956
 51
215.9347170751
  0
ARC
  5
23A
330
1F
100
AcDbEntity
  8
0
  6
Continuous
 62
     7
370
    25
100
AcDbCircle
 10
12.254199403
 20
46.9557493457
 30
0.0
 40
1.000000000000005
100
AcDbArc
 50
0.0
 51
129.3327143218
  0
ARC
  5
23B
330
1F
100
AcDbEntity
  8
0
  6
Continuous
 62
     7
370
    25
100
AcDbCircle
 10
7.1668584994
 20
42.7869561053
 30
0.0
 40
0.9999999999999972
100
AcDbArc
 50
129.3327143218
 51
226.0050860053
  0
ARC
  5
23C
330
1F
100
AcDbEntity
  8
0
  6
Continuous
 62
     7
370
    25
100
AcDbCircle
 10
12.254199403
 20
37.8750407501
 30
0.0
 40
1.000000000000002
100
AcDbArc
 50
226.0050860053
 51
0.0
  0
ARC
  5
23D
330
1F
100
AcDbEntity
  8
0
  6
Continuous
 62
     7
370
    25
100
AcDbCircle
 10
-14.5821746158
 20
49.1624632479
 30
0.0
 40
1.00000000000063
100
AcDbArc
 50
182.6334648312
 51
188.1883340077
  0
ARC
  5
23E
330
1F
100
AcDbEntity
  8
0
  6
Continuous
 62
     7
370
    25
100
AcDbCircle
 10
-12.3964700709
 20
33.9728171631
 30
0.0
 40
1.000000000000011
100
AcDbArc
 50
188.1883340077
 51
235.1172995788
  0
ARC
  5
23F
330
1F
100
AcDbEntity
  8
0
  6
Continuous
 62
     7
370
    25
100
AcDbCircle
 10
-11.3872481528
 20
33.2692271193
 30
0.0
 40
0.9999999999999982
100
AcDbArc
 50
235.1172995788
 51
339.2230646726
  0
ARC
  5
240
330
1F
100
AcDbEntity
  8
0
  6
Continuous
 62
     7
370
    25
100
AcDbCircle
 10
-4.077842436
 20
46.8966510254
 30
0.0
 40
1.000000000000071
100
AcDbArc
 50
145.1172995788
 51
159.2230646726
  0
ARC
  5
241
330
1F
100
AcDbEntity
  8
0
  6
Continuous
 62
     7
370
    25
100
AcDbCircle
 10
2.6950322484
 20
60.1087147158
 30
0.0
 40
0.9999999999999997
100
AcDbArc
 50
325.1172995788
 51
79.650443251
  0
ARC
  5
242
330
1F
100
AcDbEntity
  8
0
  6
Continuous
 62
     7
370
    25
100
AcDbCircle
 10
-4.7612735886
 20
63.503496495
 30
0.0
 40
0.999999999980995
100
AcDbArc
 50
256.3901081528
 51
259.650443251
  0
ARC
  5
243
330
1F
100
AcDbEntity
  8
0
  6
Continuous
 62
     7
370
    25
100
AcDbCircle
 10
-15.2641001871
 20
63.9885354237
 30
0.0
 40
0.999999999999999
100
AcDbArc
 50
76.3901081528
 51
182.6334648312
  0
ARC
  5
244
330
1F
100
AcDbEntity
  8
0
  6
Continuous
 62
     7
370
    25
100
AcDbCircle
 10
-8.8076242537
 20
-280.624071347
 30
0.0
 40
1.000000000000088
100
AcDbArc
 50
185.7312007022
 51
298.062736834
  0
ARC
  5
245
330
1F
100
AcDbEntity
  8
0
  6
Continuous
 62
     7
370
    25
100
AcDbCircle
 10
-7.1609798785
 20
-279.7462208973
 30
0.0
 40
1.000000000000024
100
AcDbArc
 50
298.062736834
 51
39.9047330597
  0
ARC
  5
246
330
1F
100
AcDbEntity
  8
0
  6
Continuous
 62
     7
370
    25
100
AcDbCircle
 10
-9.1323138886
 20
-277.3889276158
 30
0.0
 40
1.000000000000005
100
AcDbArc
 50
39.9047330597
 51
185.7312007022
  0
ARC
  5
247
330
1F
100
AcDbEntity
  8
0
  6
Continuous
 62
     7
370
    25
100
AcDbCircle
 10
6.5419858431
 20
-278.1111514025
 30
0.0
 40
0.9999999999999474
100
AcDbArc
 50
144.8572322979
 51
225.0
  0
ARC
  5
248
330
1F
100
AcDbEntity
  8
0
  6
Continuous
 62
     7
370
    25
100
AcDbCircle
 10
8.8608014285
 20
-280.4299669879
 30
0.0
 40
0.9999999999999907
100
AcDbArc
 50
225.0
 51
358.3276056389
  0
ARC
  5
249
330
1F
100
AcDbEntity
  8
0
  6
Continuous
 62
     7
370
    25
100
AcDbCircle
 10
9.0317740062
 20
-274.5741562008
 30
0.0
 40
1.000000000000023
100
AcDbArc
 50
358.3276056389
 51
144.8572322979
  0
ARC
  5
24A
330
1F
100
AcDbEntity
  8
0
  6
Continuous
 62
     7
370
    25
100
AcDbCircle
 10
7.3194795721
 20
-293.331833989
 30
0.0
 40
1.000000000000003
100
AcDbArc
 50
340.3602001423
 51
48.8932968509
  0
ARC
  5
24B
330
1F
100
AcDbEntity
  8
0
  6
Continuous
 62
     7
370
    25
100
AcDbCircle
 10
-1.2369165819
 20
-285.8658508836
 30
0.0
 40
0.9999999999998782
100
AcDbArc
 50
48.8932968509
 51
125.5906837592
  0
ARC
  5
24C
330
1F
100
AcDbEntity
  8
0
  6
Continuous
 62
     7
370
    25
100
AcDbCircle
 10
-7.0367067807
 20
-290.0166666075
 30
0.0
 40
0.9999999999999641
100
AcDbArc
 50
125.5906837592
 51
188.7161566201
  0
ARC
  5
24D
330
1F
100
AcDbEntity
  8
0
  6
Continuous
 62
     7
370
    25
100
AcDbCircle
 10
-5.8752155061
 20
-297.5927574211
 30
0.0
 40
0.9999999999995337
100
AcDbArc
 50
188.7161566201
 51
213.6408866114
  0
ARC
  5
24E
330
1F
100
AcDbEntity
  8
0
  6
Continuous
 62
     7
370
    25
100
AcDbCircle
 10
-1.1785398436
 20
-304.6508901205
 30
0.0
 40
1.000000000000006
100
AcDbArc
 50
213.6408866114
 51
305.728173343
  0
ARC
  5
24F
330
1F
100
AcDbEntity
  8
0
  6
Continuous
 62
     7
370
    25
100
AcDbCircle
 10
4.8198852344
 20
-300.3361103494
 30
0.0
 40
0.9999999999997609
100
AcDbArc
 50
305.728173343
 51
340.3602001424
  0
ARC
  5
250
330
1F
100
AcDbEntity
  8
0
  6
Continuous
 62
     7
370
    25
100
AcDbCircle
 10
3.1571188998
 20
-347.1788453301
 30
0.0
 40
0.9999999999999243
100
AcDbArc
 50
137.7863970636
 51
227.7863970637
  0
ARC
  5
251
330
1F
100
AcDbEntity
  8
0
  6
Continuous
 62
     7
370
    25
100
AcDbCircle
 10
8.0661001001
 20
-351.6321618324
 30
0.0
 40
1.000000000000026
100
AcDbArc
 50
227.7863970637
 51
359.0886530315
  0
ARC
  5
252
330
1F
100
AcDbEntity
  8
0
  6
Continuous
 62
     7
370
    25
100
AcDbCircle
 10
8.2258201831
 20
-341.5915129909
 30
0.0
 40
1.000000000000035
100
AcDbArc
 50
359.0886530315
 51
137.7863970636
  0
ARC
  5
253
330
1F
100
AcDbEntity
  8
0
  6
Continuous
 62
     7
370
    25
100
AcDbCircle
 10
-7.4392507876
 20
-114.7937125884
 30
0.0
 40
1.000000000000141
100
AcDbArc
 50
190.7057759518
 51
220.7411538778
  0
ARC
  5
254
330
1F
100
AcDbEntity
  8
0
  6
Continuous
 62
     7
370
    25
100
AcDbCircle
 10
-0.7887860475
 20
-122.5143670568
 30
0.0
 40
0.999999999999994
100
AcDbArc
 50
220.7411538778
 51
319.8304199583
  0
ARC
  5
255
330
1F
100
AcDbEntity
  8
0
  6
Continuous
 62
     7
370
    25
100
AcDbCircle
 10
9.5916750775
 20
-110.2175131087
 30
0.0
 40
0.9999999999998979
100
AcDbArc
 50
319.8304199583
 51
355.2243606186
  0
ARC
  5
256
330
1F
100
AcDbEntity
  8
0
  6
Continuous
 62
     7
370
    25
100
AcDbCircle
 10
13.2191836429
 20
-66.7972758817
 30
0.0
 40
1.000000000000006
100
AcDbArc
 50
355.2243606186
 51
111.59842536
  0
ARC
  5
257
330
1F
100
AcDbEntity
  8
0
  6
Continuous
 62
     7
370
    25
100
AcDbCircle
 10
-14.4428695156
 20
-77.7485781186
 30
0.0
 40
1.000000000000047
100
AcDbArc
 50
111.59842536
 51
190.7057759518
  0
ARC
  5
258
330
1F
100
AcDbEntity
  8
0
  6
Continuous
 62
     7
370
    25
100
AcDbCircle
 10
-12.3964700709
 20
-33.9728171631
 30
0.0
 40
1.0
100
AcDbArc
 50
124.8827004212
 51
171.8116659923
  0
ARC
  5
259
330
1F
100
AcDbEntity
  8
0
  6
Continuous
 62
     7
370
    25
100
AcDbCircle
 10
-14.5821746158
 20
-49.1624632479
 30
0.0
 40
1.00000000000042
100
AcDbArc
 50
171.8116659923
 51
177.3665351688
  0
ARC
  5
25A
330
1F
100
AcDbEntity
  8
0
  6
Continuous
 62
     7
370
    25
100
AcDbCircle
 10
-15.2641001871
 20
-63.9885354237
 30
0.0
 40
0.9999999999999971
100
AcDbArc
 50
177.3665351688
 51
283.6098918472
  0
ARC
  5
25B
330
1F
100
AcDbEntity
  8
0
  6
Continuous
 62
     7
370
    25
100
AcDbCircle
 10
-4.7612735886
 20
-63.503496495
 30
0.0
 40
0.9999999999962011
100
AcDbArc
 50
100.349556749
 51
103.6098918472
  0
ARC
  5
25C
330
1F
100
AcDbEntity
  8
0
  6
Continuous
 62
     7
370
    25
100
AcDbCircle
 10
2.6950322484
 20
-60.1087147158
 30
0.0
 40
1.00000000000001
100
AcDbArc
 50
280.349556749
 51
34.8827004212
  0
ARC
  5
25D
330
1F
100
AcDbEntity
  8
0
  6
Continuous
 62
     7
370
    25
100
AcDbCircle
 10
-4.077842436
 20
-46.8966510254
 30
0.0
 40
1.000000000000181
100
AcDbArc
 50
200.7769353274
 51
214.8827004212
  0
ARC
  5
25E
330
1F
100
AcDbEntity
  8
0
  6
Continuous
 62
     7
370
    25
100
AcDbCircle
 10
-11.3872481528
 20
-33.2692271193
 30
0.0
 40
0.9999999999999832
100
AcDbArc
 50
20.7769353274
 51
124.8827004212
  0
ARC
  5
25F
330
1F
100
AcDbEntity
  8
0
  6
Continuous
 62
     7
370
    25
100
AcDbCircle
 10
7.1668584994
 20
-42.7869561053
 30
0.0
 40
1.000000000000001
100
AcDbArc
 50
133.9949139947
 51
230.6672856782
  0
ARC
  5
260
330
1F
100
AcDbEntity
  8
0
  6
Continuous
 62
     7
370
    25
100
AcDbCircle
 10
12.254199403
 20
-46.9557493457
 30
0.0
 40
1.000000000000005
100
AcDbArc
 50
230.6672856782
 51
0.0
  0
ARC
  5
261
330
1F
100
AcDbEntity
  8
0
  6
Continuous
 62
     7
370
    25
100
AcDbCircle
 10
12.254199403
 20
-37.8750407501
 30
0.0
 40
0.9999999999999793
100
AcDbArc
 50
360.0
 51
133.9949139947
  0
ARC
  5
262
330
1F
100
AcDbEntity
  8
0
  6
Continuous
 62
     7
370
    25
100
AcDbCircle
 10
-8.0079040713
 20
-357.5084816074
 30
0.0
 40
1.000000000000006
100
AcDbArc
 50
133.2012139104
 51
214.6315229997
  0
ARC
  5
263
330
1F
100
AcDbEntity
  8
0
  6
Continuous
 62
     7
370
    25
100
AcDbCircle
 10
-1.818907335
 20
-366.4693914383
 30
0.0
 40
1.000000000000071
100
AcDbArc
 50
214.6315229997
 51
311.2684072732
  0
ARC
  5
264
330
1F
100
AcDbEntity
  8
0
  6
Continuous
 62
     7
370
    25
100
AcDbCircle
 10
3.836676215
 20
-361.5063625211
 30
0.0
 40
0.9999999999999877
100
AcDbArc
 50
311.2684072732
 51
51.7182303561
  0
ARC
  5
265
330
1F
100
AcDbEntity
  8
0
  6
Continuous
 62
     7
370
    25
100
AcDbCircle
 10
-4.9122790792
 20
-354.6013728203
 30
0.0
 40
0.999999999999811
100
AcDbArc
 50
51.7182303561
 51
133.2012139104
  0
ARC
  5
266
330
1F
100
AcDbEntity
  8
0
  6
Continuous
 62
     7
370
    25
100
AcDbCircle
 10
-0.1801264513
 20
167.2329869318
 30
0.0
 40
0.999999999999661
100
AcDbArc
 50
106.7262090703
 51
142.9426492737
  0
ARC
  5
267
330
1F
100
AcDbEntity
  8
0
  6
Continuous
 62
     7
370
    25
100
AcDbCircle
 10
-6.8982540306
 20
158.3362727539
 30
0.0
 40
0.9999999999999969
100
AcDbArc
 50
142.9426492737
 51
172.7857379608
  0
ARC
  5
268
330
1F
100
AcDbEntity
  8
0
  6
Continuous
 62
     7
370
    25
100
AcDbCircle
 10
-7.8300161115
 20
150.9753523146
 30
0.0
 40
0.9999999999999748
100
AcDbArc
 50
172.7857379608
 51
223.0065568725
  0
ARC
  5
269
330
1F
100
AcDbEntity
  8
0
  6
Continuous
 62
     7
370
    25
100
AcDbCircle
 10
0.0274324685
 20
142.5512033338
 30
0.0
 40
1.000000000000009
100
AcDbArc
 50
223.0065568725
 51
314.8056704671
  0
ARC
  5
26A
330
1F
100
AcDbEntity
  8
0
  6
Continuous
 62
     7
370
    25
100
AcDbCircle
 10
10.9714948837
 20
153.4212786684
 30
0.0
 40
1.00000000000003
100
AcDbArc
 50
314.8056704671
 51
23.814650422
  0
ARC
  5
26B
330
1F
100
AcDbEntity
  8
0
  6
Continuous
 62
     7
370
    25
100
AcDbCircle
 10
4.2835517866
 20
168.5743805108
 30
0.0
 40
1.000000000000076
100
AcDbArc
 50
23.814650422
 51
106.7262090703
  0
ARC
  5
26C
330
1F
100
AcDbEntity
  8
0
  6
Continuous
 62
     7
370
    25
100
AcDbCircle
 10
10.6539821461
 20
125.9239733228
 30
0.0
 40
0.9999999999999944
100
AcDbArc
 50
222.8408586026
 51
1.6902046743
  0
ARC
  5
26D
330
1F
100
AcDbEntity
  8
0
  6
Continuous
 62
     7
370
    25
100
AcDbCircle
 10
10.301006879
 20
137.8859129288
 30
0.0
 40
1.000000000000008
100
AcDbArc
 50
1.6902046743
 51
142.0879636835
  0
ARC
  5
26E
330
1F
100
AcDbEntity
  8
0
  6
Continuous
 62
     7
370
    25
100
AcDbCircle
 10
5.3985726143
 20
131.5911873328
 30
0.0
 40
1.000000000000028
100
AcDbArc
 50
142.0879636835
 51
222.8408586026
  0
ARC
  5
26F
330
1F
100
AcDbEntity
  8
0
  6
Continuous
 62
     7
370
    25
100
AcDbCircle
 10
-6.6954236526
 20
139.1017418191
 30
0.0
 40
0.9999999999999656
100
AcDbArc
 50
352.9542308751
 51
70.8133235087
  0
ARC
  5
270
330
1F
100
AcDbEntity
  8
0
  6
Continuous
 62
     7
370
    25
100
AcDbCircle
 10
-8.4668998946
 20
139.7181732595
 30
0.0
 40
1.000000000000008
100
AcDbArc
 50
70.8133235087
 51
178.7584901415
  0
ARC
  5
271
330
1F
100
AcDbEntity
  8
0
  6
Continuous
 62
     7
370
    25
100
AcDbCircle
 10
-8.5927904179
 20
133.9092248277
 30
0.0
 40
0.9999999999999937
100
AcDbArc
 50
178.7584901415
 51
319.7030720871
  0
ARC
  5
272
330
1F
100
AcDbEntity
  8
0
  6
Continuous
 62
     7
370
    25
100
AcDbCircle
 10
-7.1229609164
 20
135.6425766849
 30
0.0
 40
1.000000000000424
100
AcDbArc
 50
319.7030720871
 51
352.9542308751
  0
ARC
  5
273
330
1F
100
AcDbEntity
  8
0
  6
Continuous
 62
     7
370
    25
100
AcDbCircle
 10
-7.4392507876
 20
114.7937125884
 30
0.0
 40
1.000000000000082
100
AcDbArc
 50
139.2588461222
 51
169.2942240482
  0
ARC
  5
274
330
1F
100
AcDbEntity
  8
0
  6
Continuous
 62
     7
370
    25
100
AcDbCircle
 10
-14.4428695156
 20
77.7485781186
 30
0.0
 40
1.000000000000008
100
AcDbArc
 50
169.2942240482
 51
248.40157464
  0
ARC
  5
275
330
1F
100
AcDbEntity
  8
0
  6
Continuous
 62
     7
370
    25
100
AcDbCircle
 10
13.2191836429
 20
66.7972758817
 30
0.0
 40
1.000000000000005
100
AcDbArc
 50
248.40157464
 51
4.7756393814
  0
ARC
  5
276
330
1F
100
AcDbEntity
  8
0
  6
Continuous
 62
     7
370
    25
100
AcDbCircle
 10
9.5916750775
 20
110.2175131087
 30
0.0
 40
0.9999999999999495
100
AcDbArc
 50
4.7756393814
 51
40.1695800417
  0
ARC
  5
277
330
1F
100
AcDbEntity
  8
0
  6
Continuous
 62
     7
370
    25
100
AcDbCircle
 10
-0.7887860475
 20
122.5143670568
 30
0.0
 40
1.000000000000093
100
AcDbArc
 50
40.1695800417
 51
139.2588461222
  0
ARC
  5
278
330
1F
100
AcDbEntity
  8
0
  6
Continuous
 62
     7
370
    25
100
AcDbCircle
 10
-8.3727202311
 20
181.7790935333
 30
0.0
 40
0.9999999999999937
100
AcDbArc
 50
60.6263023392
 51
182.0820211685
  0
ARC
  5
279
330
1F
100
AcDbEntity
  8
0
  6
Continuous
 62
     7
370
    25
100
AcDbCircle
 10
-8.2664673102
 20
178.8563739177
 30
0.0
 40
1.000000000000017
100
AcDbArc
 50
182.0820211685
 51
329.1851897853
  0
ARC
  5
27A
330
1F
100
AcDbEntity
  8
0
  6
Continuous
 62
     7
370
    25
100
AcDbCircle
 10
-6.9880365469
 20
180.9997016358
 30
0.0
 40
1.000000000000066
100
AcDbArc
 50
329.1851897853
 51
60.6263023392
  0
ARC
  5
27B
330
1F
100
AcDbEntity
  8
0
  6
Continuous
 62
     7
370
    25
100
AcDbCircle
 10
8.1773274081
 20
185.3658602309
 30
0.0
 40
1.000000000000022
100
AcDbArc
 50
4.2419394198
 51
129.7882613086
  0
ARC
  5
27C
330
1F
100
AcDbEntity
  8
0
  6
Continuous
 62
     7
370
    25
100
AcDbCircle
 10
5.951934304
 20
183.5125048989
 30
0.0
 40
0.9999999999999742
100
AcDbArc
 50
129.7882613086
 51
229.2419394198
  0
ARC
  5
27D
330
1F
100
AcDbEntity
  8
0
  6
Continuous
 62
     7
370
    25
100
AcDbCircle
 10
8.4761630602
 20
181.3368714008
 30
0.0
 40
1.000000000000012
100
AcDbArc
 50
229.2419394198
 51
4.2419394198
  0
ARC
  5
27E
330
1F
100
AcDbEntity
  8
0
  6
Continuous
 62
     7
370
    25
100
AcDbCircle
 10
-4.0970287375
 20
208.0161861601
 30
0.0
 40
0.9999999999999138
100
AcDbArc
 50
144.0652829249
 51
156.1669431044
  0
ARC
  5
27F
330
1F
100
AcDbEntity
  8
0
  6
Continuous
 62
     7
370
    25
100
AcDbCircle
 10
-7.7693463305
 20
199.70292112
 30
0.0
 40
0.9999999999997998
100
AcDbArc
 50
156.1669431044
 51
180.0
  0
ARC
  5
280
330
1F
100
AcDbEntity
  8
0
  6
Continuous
 62
     7
370
    25
100
AcDbCircle
 10
-7.7693463305
 20
194.2443467209
 30
0.0
 40
1.000000000000072
100
AcDbArc
 50
180.0
 51
234.0652829249
  0
ARC
  5
281
330
1F
100
AcDbEntity
  8
0
  6
Continuous
 62
     7
370
    25
100
AcDbCircle
 10
-0.0288166664
 20
188.6339867019
 30
0.0
 40
1.00000000000008
100
AcDbArc
 50
234.0652829249
 51
308.5634942476
  0
ARC
  5
282
330
1F
100
AcDbEntity
  8
0
  6
Continuous
 62
     7
370
    25
100
AcDbCircle
 10
7.4180237502
 20
194.570956882
 30
0.0
 40
1.000000000000048
100
AcDbArc
 50
308.5634942476
 51
8.2824314373
  0
ARC
  5
283
330
1F
100
AcDbEntity
  8
0
  6
Continuous
 62
     7
370
    25
100
AcDbCircle
 10
5.4594057223
 20
208.0256760441
 30
0.0
 40
1.000000000000031
100
AcDbArc
 50
8.2824314373
 51
46.9804106296
  0
ARC
  5
284
330
1F
100
AcDbEntity
  8
0
  6
Continuous
 62
     7
370
    25
100
AcDbCircle
 10
-0.2372193434
 20
213.3415073537
 30
0.0
 40
1.000000000000058
100
AcDbArc
 50
46.9804106296
 51
144.0652829248
  0
ARC
  5
285
330
1F
100
AcDbEntity
  8
0
  6
Continuous
 62
     7
370
    25
100
AcDbCircle
 10
5.2483587757
 20
245.9779892422
 30
0.0
 40
1.000000000000036
100
AcDbArc
 50
307.4700732223
 51
41.0366491431
  0
ARC
  5
286
330
1F
100
AcDbEntity
  8
0
  6
Continuous
 62
     7
370
    25
100
AcDbCircle
 10
-3.7739315423
 20
256.3435485902
 30
0.0
 40
1.000000000000057
100
AcDbArc
 50
41.0366491431
 51
160.8773900656
  0
ARC
  5
287
330
1F
100
AcDbEntity
  8
0
  6
Continuous
 62
     7
370
    25
100
AcDbCircle
 10
-7.5865546466
 20
245.3473856127
 30
0.0
 40
0.9999999999994452
100
AcDbArc
 50
160.8773900656
 51
174.4647034084
  0
ARC
  5
288
330
1F
100
AcDbEntity
  8
0
  6
Continuous
 62
     7
370
    25
100
AcDbCircle
 10
-8.5875636985
 20
235.0182101917
 30
0.0
 40
0.999999999999938
100
AcDbArc
 50
174.4647034084
 51
246.9797346514
  0
ARC
  5
289
330
1F
100
AcDbEntity
  8
0
  6
Continuous
 62
     7
370
    25
100
AcDbCircle
 10
-6.451446267
 20
234.1105903332
 30
0.0
 40
1.000000000000139
100
AcDbArc
 50
246.9797346514
 51
319.5220713988
  0
ARC
  5
28A
330
1F
100
AcDbEntity
  8
0
  6
Continuous
 62
     7
370
    25
100
AcDbCircle
 10
2.0874448037
 20
241.0352215005
 30
0.0
 40
0.9999999999906739
100
AcDbArc
 50
127.4700732222
 51
139.5220713988
  0
ARC
  5
28B
330
1F
100
AcDbEntity
  8
0
  6
Continuous
 62
     7
370
    25
100
AcDbCircle
 10
8.2258201831
 20
341.5915129909
 30
0.0
 40
1.00000000000003
100
AcDbArc
 50
222.2136029364
 51
0.9113469685
  0
ARC
  5
28C
330
1F
100
AcDbEntity
  8
0
  6
Continuous
 62
     7
370
    25
100
AcDbCircle
 10
8.0661001001
 20
351.6321618324
 30
0.0
 40
1.000000000000009
100
AcDbArc
 50
0.9113469685
 51
132.2136029364
  0
ARC
  5
28D
330
1F
100
AcDbEntity
  8
0
  6
Continuous
 62
     7
370
    25
100
AcDbCircle
 10
3.1571188998
 20
347.1788453301
 30
0.0
 40
1.000000000000081
100
AcDbArc
 50
132.2136029364
 51
222.2136029363
  0
ARC
  5
28E
330
1F
100
AcDbEntity
  8
0
  6
Continuous
 62
     7
370
    25
100
AcDbCircle
 10
-4.9122790792
 20
354.6013728203
 30
0.0
 40
0.9999999999999983
100
AcDbArc
 50
226.7987860896
 51
308.2817696439
  0
ARC
  5
28F
330
1F
100
AcDbEntity
  8
0
  6
Continuous
 62
     7
370
    25
100
AcDbCircle
 10
3.836676215
 20
361.5063625211
 30
0.0
 40
0.999999999999969
100
AcDbArc
 50
308.2817696439
 51
48.7315927268
  0
ARC
  5
290
330
1F
100
AcDbEntity
  8
0
  6
Continuous
 62
     7
370
    25
100
AcDbCircle
 10
-1.818907335
 20
366.4693914383
 30
0.0
 40
1.00000000000004
100
AcDbArc
 50
48.7315927268
 51
145.3684770003
  0
ARC
  5
291
330
1F
100
AcDbEntity
  8
0
  6
Continuous
 62
     7
370
    25
100
AcDbCircle
 10
-8.0079040713
 20
357.5084816074
 30
0.0
 40
1.00000000000001
100
AcDbArc
 50
145.3684770003
 51
226.7987860897
  0
ARC
  5
292
330
1F
100
AcDbEntity
  8
0
  6
Continuous
 62
     7
370
    25
100
AcDbCircle
 10
4.8198852344
 20
300.3361103494
 30
0.0
 40
1.000000000000654
100
AcDbArc
 50
19.6397998577
 51
54.271826657
  0
ARC
  5
293
330
1F
100
AcDbEntity
  8
0
  6
Continuous
 62
     7
370
    25
100
AcDbCircle
 10
-1.1785398436
 20
304.6508901205
 30
0.0
 40
1.000000000000085
100
AcDbArc
 50
54.271826657
 51
146.3591133886
  0
ARC
  5
294
330
1F
100
AcDbEntity
  8
0
  6
Continuous
 62
     7
370
    25
100
AcDbCircle
 10
-5.8752155061
 20
297.5927574211
 30
0.0
 40
1.000000000000206
100
AcDbArc
 50
146.3591133886
 51
171.2838433799
  0
ARC
  5
295
330
1F
100
AcDbEntity
  8
0
  6
Continuous
 62
     7
370
    25
100
AcDbCircle
 10
-7.0367067807
 20
290.0166666075
 30
0.0
 40
0.9999999999997198
100
AcDbArc
 50
171.2838433799
 51
234.4093162408
  0
ARC
  5
296
330
1F
100
AcDbEntity
  8
0
  6
Continuous
 62
     7
370
    25
100
AcDbCircle
 10
-1.2369165819
 20
285.8658508836
 30
0.0
 40
0.9999999999998788
100
AcDbArc
 50
234.4093162408
 51
311.1067031491
  0
ARC
  5
297
330
1F
100
AcDbEntity
  8
0
  6
Continuous
 62
     7
370
    25
100
AcDbCircle
 10
7.3194795721
 20
293.331833989
 30
0.0
 40
1.000000000000175
100
AcDbArc
 50
311.1067031491
 51
19.6397998577
  0
ARC
  5
298
330
1F
100
AcDbEntity
  8
0
  6
Continuous
 62
     7
370
    25
100
AcDbCircle
 10
9.0317740062
 20
274.5741562008
 30
0.0
 40
1.000000000000003
100
AcDbArc
 50
215.1427677021
 51
1.6723943611
  0
ARC
  5
299
330
1F
100
AcDbEntity
  8
0
  6
Continuous
 62
     7
370
    25
100
AcDbCircle
 10
8.8608014285
 20
280.4299669879
 30
0.0
 40
0.999999999999971
100
AcDbArc
 50
1.6723943611
 51
135.0
  0
ARC
  5
29A
330
1F
100
AcDbEntity
  8
0
  6
Continuous
 62
     7
370
    25
100
AcDbCircle
 10
6.5419858431
 20
278.1111514025
 30
0.0
 40
0.999999999999912
100
AcDbArc
 50
135.0
 51
215.1427677021
  0
ARC
  5
29B
330
1F
100
AcDbEntity
  8
0
  6
Continuous
 62
     7
370
    25
100
AcDbCircle
 10
-7.1609798785
 20
279.7462208973
 30
0.0
 40
1.000000000000011
100
AcDbArc
 50
320.0952669403
 51
61.937263166
  0
ARC
  5
29C
330
1F
100
AcDbEntity
  8
0
  6
Continuous
 62
     7
370
    25
100
AcDbCircle
 10
-8.8076242537
 20
280.624071347
 30
0.0
 40
1.000000000000055
100
AcDbArc
 50
61.937263166
 51
174.2687992978
  0
ARC
  5
29D
330
1F
100
AcDbEntity
  8
0
  6
Continuous
 62
     7
370
    25
100
AcDbCircle
 10
-9.1323138886
 20
277.3889276158
 30
0.0
 40
0.9999999999999764
100
AcDbArc
 50
174.2687992978
 51
320.0952669403
  0
MTEXT
  5
29F
330
1F
100
AcDbEntity
  8
0
  6
Continuous
 62
     7
100
AcDbMText
 10
-30.0
 20
-391.0195663917
 30
0.0
 40
4.83362
 41
0.0
 71
     1
 72
     1
  1
SOLIDWORKS Educational Product.
  7
SLDTEXTSTYLE0
 73
     1
 44
1.0
  0
MTEXT
  5
2A0
330
1F
100
AcDbEntity
  8
0
  6
Continuous
 62
     7
100
AcDbMText
 10
-30.0
 20
-398.2699963917
 30
0.0
 40
4.83362
 41
0.0
 71
     1
 72
     1
  1
For Instructional Use Only.
  7
SLDTEXTSTYLE0
 73
     1
 44
1.0
  0
ENDSEC
  0
SECTION
  2
OBJECTS
  0
DICTIONARY
  5
C
330
0
100
AcDbDictionary
281
     1
  3
ACAD_GROUP
350
D
  3
ACAD_LAYOUT
350
1A
  3
ACAD_MLINESTYLE
350
17
  3
ACAD_PLOTSETTINGS
350
19
  3
ACAD_PLOTSTYLENAME
350
E
  3
ACAD_SCALELIST
350
47
  3
DWGPROPS
350
2A1
  0
DICTIONARY
  5
D
102
{ACAD_REACTORS
330
C
102
}
330
C
100
AcDbDictionary
281
     1
  0
DICTIONARY
  5
1A
102
{ACAD_REACTORS
330
C
102
}
330
C
100
AcDbDictionary
281
     1
  3
Layout1
350
1E
  3
Layout2
350
26
  3
Model
350
22
  0
DICTIONARY
  5
17
102
{ACAD_REACTORS
330
C
102
}
330
C
100
AcDbDictionary
281
     1
  3
Standard
350
18
  0
DICTIONARY
  5
19
102
{ACAD_REACTORS
330
C
102
}
330
C
100
AcDbDictionary
281
     1
  0
ACDBDICTIONARYWDFLT
  5
E
102
{ACAD_REACTORS
330
C
102
}
330
C
100
AcDbDictionary
281
     1
  3
Normal
350
F
100
AcDbDictionaryWithDefault
340
F
  0
DICTIONARY
  5
47
102
{ACAD_REACTORS
330
C
102
}
330
C
100
AcDbDictionary
281
     1
  3
A0
350
48
  3
A1
350
49
  3
A2
350
4A
  3
A3
350
4B
  3
A4
350
4C
  3
A5
350
4D
  3
A6
350
4E
  3
A7
350
4F
  3
A8
350
50
  3
A9
350
51
  3
B0
350
52
  3
B1
350
53
  3
B2
350
54
  3
B3
350
55
  3
B4
350
56
  3
B5
350
57
  3
B6
350
58
  0
XRECORD
  5
2A1
102
{ACAD_REACTORS
330
C
102
}
330
C
100
AcDbXrecord
280
     1
  1
DWGPROPS COOKIE
  2

  3

  4

  6

  7

  8
alexs
  9

300
=
301
=
302
=
303
=
304
=
305
=
306
=
307
=
308
=
309
=
 40
0.0
 41
2460715.109874306
 42
2460715.110266262
  1

 90
        0
  0
LAYOUT
  5
1E
102
{ACAD_REACTORS
330
1A
102
}
330
1A
100
AcDbPlotSettings
  1

  2
none_device
  4

  6

 40
0.0
 41
0.0
 42
0.0
 43
0.0
 44
0.0
 45
0.0
 46
0.0
 47
0.0
 48
0.0
 49
0.0
140
0.0
141
0.0
142
1.0
143
1.0
 70
   688
 72
     1
 73
     0
 74
     5
  7

 75
    16
147
1.0
148
0.0
149
0.0
100
AcDbLayout
  1
Layout1
 70
     1
 71
     1
 10
0.0
 20
0.0
 11
420.0
 21
297.0
 12
0.0
 22
0.0
 32
0.0
 14
1.0000000000E+20
 24
1.0000000000E+20
 34
1.0000000000E+20
 15
-1.0000000000E+20
 25
-1.0000000000E+20
 35
-1.0000000000E+20
146
0.0
 13
0.0
 23
0.0
 33
0.0
 16
1.0
 26
0.0
 36
0.0
 17
0.0
 27
1.0
 37
0.0
 76
     0
330
1B
  0
LAYOUT
  5
26
102
{ACAD_REACTORS
330
1A
102
}
330
1A
100
AcDbPlotSettings
  1

  2
none_device
  4

  6

 40
0.0
 41
0.0
 42
0.0
 43
0.0
 44
0.0
 45
0.0
 46
0.0
 47
0.0
 48
0.0
 49
0.0
140
0.0
141
0.0
142
1.0
143
1.0
 70
   688
 72
     1
 73
     0
 74
     5
  7

 75
    16
147
1.0
148
0.0
149
0.0
100
AcDbLayout
  1
Layout2
 70
     1
 71
     2
 10
0.0
 20
0.0
 11
0.0
 21
0.0
 12
0.0
 22
0.0
 32
0.0
 14
0.0
 24
0.0
 34
0.0
 15
0.0
 25
0.0
 35
0.0
146
0.0
 13
0.0
 23
0.0
 33
0.0
 16
1.0
 26
0.0
 36
0.0
 17
0.0
 27
1.0
 37
0.0
 76
     0
330
23
  0
LAYOUT
  5
22
102
{ACAD_REACTORS
330
1A
102
}
330
1A
100
AcDbPlotSettings
  1

  2
none_device
  4
ANSI_A_(11.00_x_8.50_Inches)
  6

 40
6.35
 41
19.05
 42
6.35000508
 43
19.05000254
 44
279.4
 45
215.9
 46
133.34999746
 47
88.89999873
 48
0.0
 49
0.0
140
0.0
141
0.0
142
0.0107884615
143
1.0
 70
  1696
 72
     0
 73
     0
 74
     0
  7

 75
     0
147
0.0179189148
148
-1300.4909072572
149
0.0
100
AcDbLayout
  1
Model
 70
     1
 71
     0
 10
0.0
 20
0.0
 11
420.0
 21
297.0
 12
0.0
 22
0.0
 32
0.0
 14
-30.0
 24
-390.0
 34
0.0
 15
30.0
 25
390.0
 35
0.0
146
0.0
 13
0.0
 23
0.0
 33
0.0
 16
1.0
 26
0.0
 36
0.0
 17
0.0
 27
1.0
 37
0.0
 76
     0
330
1F
331
29
  0
MLINESTYLE
  5
18
102
{ACAD_REACTORS
330
17
102
}
330
17
100
AcDbMlineStyle
  2
Standard
 70
     0
  3

 62
   256
 51
90.0
 52
90.0
 71
     2
 49
0.5
 62
   256
  6
BYLAYER
 49
-0.5
 62
   256
  6
BYLAYER
  0
ACDBPLACEHOLDER
  5
F
102
{ACAD_REACTORS
330
E
102
}
330
E
  0
SCALE
  5
48
102
{ACAD_REACTORS
330
47
102
}
330
47
100
AcDbScale
 70
     0
300
1:1
140
1.0
141
1.0
290
     1
  0
SCALE
  5
49
102
{ACAD_REACTORS
330
47
102
}
330
47
100
AcDbScale
 70
     0
300
1:2
140
1.0
141
2.0
290
     0
  0
SCALE
  5
4A
102
{ACAD_REACTORS
330
47
102
}
330
47
100
AcDbScale
 70
     0
300
1:4
140
1.0
141
4.0
290
     0
  0
SCALE
  5
4B
102
{ACAD_REACTORS
330
47
102
}
330
47
100
AcDbScale
 70
     0
300
1:5
140
1.0
141
5.0
290
     0
  0
SCALE
  5
4C
102
{ACAD_REACTORS
330
47
102
}
330
47
100
AcDbScale
 70
     0
300
1:8
140
1.0
141
8.0
290
     0
  0
SCALE
  5
4D
102
{ACAD_REACTORS
330
47
102
}
330
47
100
AcDbScale
 70
     0
300
1:10
140
1.0
141
10.0
290
     0
  0
SCALE
  5
4E
102
{ACAD_REACTORS
330
47
102
}
330
47
100
AcDbScale
 70
     0
300
1:16
140
1.0
141
16.0
290
     0
  0
SCALE
  5
4F
102
{ACAD_REACTORS
330
47
102
}
330
47
100
AcDbScale
 70
     0
300
1:20
140
1.0
141
20.0
290
     0
  0
SCALE
  5
50
102
{ACAD_REACTORS
330
47
102
}
330
47
100
AcDbScale
 70
     0
300
1:30
140
1.0
141
30.0
290
     0
  0
SCALE
  5
51
102
{ACAD_REACTORS
330
47
102
}
330
47
100
AcDbScale
 70
     0
300
1:40
140
1.0
141
40.0
290
     0
  0
SCALE
  5
52
102
{ACAD_REACTORS
330
47
102
}
330
47
100
AcDbScale
 70
     0
300
1:50
140
1.0
141
50.0
290
     0
  0
SCALE
  5
53
102
{ACAD_REACTORS
330
47
102
}
330
47
100
AcDbScale
 70
     0
300
1:100
140
1.0
141
100.0
290
     0
  0
SCALE
  5
54
102
{ACAD_REACTORS
330
47
102
}
330
47
100
AcDbScale
 70
     0
300
2:1
140
2.0
141
1.0
290
     0
  0
SCALE
  5
55
102
{ACAD_REACTORS
330
47
102
}
330
47
100
AcDbScale
 70
     0
300
4:1
140
4.0
141
1.0
290
     0
  0
SCALE
  5
56
102
{ACAD_REACTORS
330
47
102
}
330
47
100
AcDbScale
 70
     0
300
8:1
140
8.0
141
1.0
290
     0
  0
SCALE
  5
57
102
{ACAD_REACTORS
330
47
102
}
330
47
100
AcDbScale
 70
     0
300
10:1
140
10.0
141
1.0
290
     0
  0
SCALE
  5
58
102
{ACAD_REACTORS
330
47
102
}
330
47
100
AcDbScale
 70
     0
300
100:1
140
100.0
141
1.0
290
     0
  0
ENDSEC
  0
EOF
